<?xml version="1.0" encoding="UTF-8" standalone="no"?>
<!DOCTYPE svg PUBLIC "-//W3C//DTD SVG 1.1//EN" "http://www.w3.org/Graphics/SVG/1.1/DTD/svg11.dtd">
<svg width="100%" height="100%" viewBox="0 0 1000 1000" xmlns="http://www.w3.org/2000/svg" xmlns:xlink="http://www.w3.org/1999/xlink" xml:space="preserve" xmlns:serif="http://www.serif.com/" style="fill-rule:evenodd;clip-rule:evenodd;stroke-linecap:round;stroke-linejoin:round;stroke-miterlimit:1.5;">
<rect xmlns="http://www.w3.org/2000/svg" x="0" y="-2" width="1003" height="1043" style="fill:url(#1136722035846638);"/><defs xmlns="http://www.w3.org/2000/svg">
        <linearGradient id="1136722035846638" x1="0" y1="0" x2="1" y2="0" gradientUnits="userSpaceOnUse" gradientTransform="matrix(619,1359.94,-1313,641.129,380,34.2512)"><stop offset="0" style="stop-color:rgb(116,124,207);stop-opacity:1"/><stop offset="1" style="stop-color:rgb(56,64,152);stop-opacity:1"/></linearGradient>
    </defs>
<g xmlns="http://www.w3.org/2000/svg" id="ArmBack">
        <path id="ArmBack1" xmlns:ns1="http://www.serif.com/" ns1:id="ArmBack" d="M848,944C847.227,943.883 914.358,930.329 961,780C894.839,745.966 758.742,556.508 715,504C676.846,458.2 574.99,496.288 557,523C664.677,607.222 684.341,829.427 848,944Z" style="fill:rgb(191,182,182);stroke:black;stroke-width:6px;"/>
        <path id="ArmBack2" xmlns:ns2="http://www.serif.com/" ns2:id="ArmBack" d="M909,892C919.698,891.865 877.217,830.117 941,833C927.395,827.745 902.151,789.674 956,779" style="fill:rgb(191,182,182);stroke:black;stroke-width:6px;"/>
    </g>
<g xmlns="http://www.w3.org/2000/svg" id="ShirtYellowBack">
        <path d="M696,774L828.827,642.378C831.594,637.321 698.058,464.162 637,471C548.091,480.957 677.013,773.632 696,774Z" style="fill:rgb(255,183,0);stroke:black;stroke-width:6px;"/>
        <path d="M847,661C850.473,662.746 752.481,790.012 712,790C674.582,789.989 677,763 677,763C677,763 771.869,715.04 822.155,623.509C828.977,619.275 835.894,627.241 832.827,639.378C849.13,638.239 849.759,660.2 847,661Z" style="fill:rgb(255,183,0);stroke:black;stroke-width:6px;"/>
    </g>
<path xmlns="http://www.w3.org/2000/svg" id="Body" d="M729,999C756.359,935.515 852.869,518.109 591,464C315.846,407.146 245.065,785.723 263,999C280.896,1000.61 729,999 729,999Z" style="fill:rgb(191,182,182);stroke:black;stroke-width:6px;"/>
<path xmlns="http://www.w3.org/2000/svg" id="Pants" d="M744,940L728,1006L265,1004C259.724,963.607 259.985,900.414 264,857C465.432,948.045 633.709,983.196 744,940Z" style="fill:rgb(17,26,75);stroke:black;stroke-width:6px;"/>
<g xmlns="http://www.w3.org/2000/svg" id="Belt">
        <path id="Belt1" xmlns:ns1="http://www.serif.com/" ns1:id="Belt" d="M743,939L731,984C732.427,984.008 524.877,1057.15 265,887C261.716,882.839 263.106,850.285 265,845C534.962,971.128 673.132,972.378 743,939Z" style="fill:rgb(62,35,11);stroke:black;stroke-width:6px;"/>
        <path id="Buckle" d="M602,956L599,998C630.514,999.262 663.568,998.757 701,992L702,954C671.328,958.771 635.784,960.791 602,956Z" style="fill:rgb(229,145,0);stroke:black;stroke-width:6px;"/>
    </g>
<g xmlns="http://www.w3.org/2000/svg" id="ShirtYellowBody">
        <path id="ShirtYellowBody1" xmlns:ns1="http://www.serif.com/" ns1:id="ShirtYellowBody" d="M746,934C762.648,873.204 838.394,515.775 591,464C347.577,413.056 295.426,637.784 267,830C241.428,883.695 674.44,1012.46 746,934Z" style="fill:rgb(255,183,0);stroke:black;stroke-width:6px;"/>
        <path id="Buttons" d="M667,860C672.519,860 677,864.481 677,870C677,875.519 672.519,880 667,880C661.481,880 657,875.519 657,870C657,864.481 661.481,860 667,860ZM668,788C673.519,788 678,792.481 678,798C678,803.519 673.519,808 668,808C662.481,808 658,803.519 658,798C658,792.481 662.481,788 668,788ZM665,715C670.519,715 675,719.481 675,725C675,730.519 670.519,735 665,735C659.481,735 655,730.519 655,725C655,719.481 659.481,715 665,715Z" style="fill:rgb(3,3,3);stroke:rgb(3,0,0);stroke-width:6px;"/>
        <path id="Collar" d="M633,576C633,576 695.11,595.117 706,616C716.89,636.883 725.99,497.232 706,473C686.01,448.768 633,576 633,576Z" style="fill:rgb(255,183,0);stroke:black;stroke-width:6px;"/>
    </g>
<path xmlns="http://www.w3.org/2000/svg" id="VestBody" d="M745,934C762.058,888.467 811.725,667.735 714.493,542.096C711.23,598.451 704.232,616.48 661,690C581.804,655.021 469.386,539.068 377.77,482.881C285.379,543.781 263.301,698.883 275,838C275.274,885.144 448.211,945.754 588.714,961.829C628.074,937.088 665.165,911.493 665.165,911.493C665.165,911.493 687.458,942.028 703.023,960.775C720.129,956.094 734.458,943.975 745,934ZM665.5,715C670.743,715 675,719.257 675,724.5C675,729.743 670.743,734 665.5,734C660.257,734 656,729.743 656,724.5C656,719.257 660.257,715 665.5,715ZM669.5,788C674.743,788 679,792.257 679,797.5C679,802.743 674.743,807 669.5,807C664.257,807 660,802.743 660,797.5C660,792.257 664.257,788 669.5,788ZM666.5,860C671.743,860 676,864.257 676,869.5C676,874.743 671.743,879 666.5,879C661.257,879 657,874.743 657,869.5C657,864.257 661.257,860 666.5,860Z" style="fill:rgb(213,0,0);stroke:black;stroke-width:6px;"/>
<g xmlns="http://www.w3.org/2000/svg" id="ArmFront">
            <path id="ArmFront1" xmlns:ns1="http://www.serif.com/" ns1:id="ArmFront" d="M277,971C276.25,976.538 135.071,960.946 87,885C146.865,697.439 280.075,482.055 442,476C618.289,469.408 428.393,528.72 277,971" style="fill:rgb(191,182,182);stroke:black;stroke-width:6px;"/>
            <path id="ArmFront2" xmlns:ns2="http://www.serif.com/" ns2:id="ArmFront" d="M114,914C114,914 173.423,872.935 169,947C181.238,934.736 224.372,904.658 225,966C236.974,944.068 264.146,935.521 275,971" style="fill:none;stroke:black;stroke-width:6px;"/>
        </g>
<g xmlns="http://www.w3.org/2000/svg" id="ShirtYellowFront">
            <path d="M174,691C174,691 300.445,463.058 431,488C547.05,510.171 339.55,774.311 352,785C366.541,797.484 165.754,708.896 174,691Z" style="fill:rgb(255,183,0);stroke:black;stroke-width:6px;"/>
            <path d="M151,720C151,720 237.235,793.145 352,811C357.446,807.61 364.154,801.735 362,790C362.96,790.317 373.477,774.715 374,765C299.75,753.641 231.323,722.72 171,671C171,671 158.556,685.88 162,695C150.815,699.721 146.044,707.524 151,720Z" style="fill:rgb(255,183,0);stroke:black;stroke-width:6px;"/>
        </g>
<path xmlns="http://www.w3.org/2000/svg" id="EarBack" d="M461,208C469.489,213.447 444.099,117.679 324,166C203.102,214.642 266.653,366.862 285,406C307.318,453.61 303.917,478.338 331,508C340.189,518.064 390.22,560.331 436,469C481.78,377.669 461,208 461,208Z" style="fill:rgb(191,182,182);stroke:black;stroke-width:6px;"/>
<g xmlns="http://www.w3.org/2000/svg" id="HornBack">
            <path d="M339,533C368.71,533.881 379.253,545.993 392,563C369.839,604.937 353.91,617.187 338,623C322.09,628.813 292.167,610.667 309,580C320.025,568.94 331.827,548.655 339,533Z" style="fill:white;stroke:black;stroke-width:6px;"/>
            <path id="HornBack1" xmlns:ns1="http://www.serif.com/" ns1:id="HornBack" d="M339,533C339,533 340.061,461.908 373,465C405.939,468.092 414.855,490.278 415,501C415.219,517.257 405.424,539.78 391,566C387.452,555.752 372.517,536.888 339,533Z" style="fill:rgb(191,182,182);stroke:black;stroke-width:6px;"/>
        </g>
<path xmlns="http://www.w3.org/2000/svg" id="Head" d="M669,550C654.903,569.845 636.525,590.122 618,608C536.833,686.333 450.013,727.63 386,733C300.281,740.191 235,708.167 193,650C184.427,638.128 165.5,627.667 158,614C154.148,606.981 157.551,597.988 157,590C156.333,580.333 157.607,564.351 154,556C149.042,544.52 139.979,520.421 148,520C167.187,518.994 205.255,569.728 240,601C242.05,602.846 314.399,649.285 356,569C369.909,542.157 364,498 364,498C335.388,402.015 346.848,278.902 396,201C396,201 426.77,144.823 542,141C657.23,137.177 677.163,163.014 688,166C742.991,181.154 771.218,309.021 747,393C722.782,476.979 669,550 669,550Z" style="fill:rgb(191,182,182);stroke:black;stroke-width:6px;"/>
<g xmlns="http://www.w3.org/2000/svg" id="HornFront">
            <path d="M512,629C526.681,615.19 548.051,596.082 562,575C562,575 630.026,587.74 600,628C562.399,678.416 485.502,653.926 512,629Z" style="fill:white;stroke:black;stroke-width:6px;"/>
            <path d="M575,556C613.393,461.56 658.288,504.218 677,540C655.202,570.254 629.229,599.968 598,629C596.491,590.655 583.537,575.608 563,576L575,556Z" style="fill:rgb(191,182,182);"/>
            <path d="M684,526C663.065,562.535 632.935,595.167 598,628C597.973,586.894 582.258,577.883 561,576L575,553" style="fill:none;stroke:black;stroke-width:6px;"/>
        </g>
<g xmlns="http://www.w3.org/2000/svg" id="EarFront">
            <path d="M638,235C638,235 672.892,141.658 769,144C823.595,145.331 856.196,197.106 868,228C884.939,272.334 876.556,352.438 808,419C795.747,430.897 775.388,455.324 762,481C743.427,516.618 737.464,535.178 700,546C676.209,552.872 655.22,546.317 642,537C706.159,364.39 638,235 638,235Z" style="fill:rgb(191,182,182);"/>
            <path d="M637,238C649.778,177.606 737.356,121.138 806.311,153.581C879.735,188.128 884.362,280.326 869,326C851.671,377.522 814.676,416.318 801,428C776.728,448.733 753.023,507.635 736,527C714.115,551.895 667.42,558.032 642,536" style="fill:none;stroke:black;stroke-width:6px;"/>
        </g>
<path xmlns="http://www.w3.org/2000/svg" id="YoungEyes" d="M562.256,393.084C565.064,393.422 566.781,398.365 566.088,404.114C565.395,409.863 562.552,414.255 559.744,413.916C556.936,413.578 555.219,408.635 555.912,402.886C556.605,397.137 559.448,392.745 562.256,393.084ZM396.256,382.084C399.064,382.422 400.781,387.365 400.088,393.114C399.395,398.863 396.552,403.255 393.744,402.916C390.936,402.578 389.219,397.635 389.912,391.886C390.605,386.137 393.448,381.745 396.256,382.084Z" style="stroke:black;stroke-width:6px;"/></svg>