<?xml version="1.0" encoding="UTF-8" standalone="no"?>
<!DOCTYPE svg PUBLIC "-//W3C//DTD SVG 1.1//EN" "http://www.w3.org/Graphics/SVG/1.1/DTD/svg11.dtd">
<svg width="100%" height="100%" viewBox="0 0 1000 1000" xmlns="http://www.w3.org/2000/svg" xmlns:xlink="http://www.w3.org/1999/xlink" xml:space="preserve" xmlns:serif="http://www.serif.com/" style="fill-rule:evenodd;clip-rule:evenodd;stroke-linecap:round;stroke-linejoin:round;stroke-miterlimit:1.5;">
<rect xmlns="http://www.w3.org/2000/svg" x="0" y="-2" width="1003" height="1043" style="fill:url(#7851270172534453);"/><defs xmlns="http://www.w3.org/2000/svg">
        <linearGradient id="7851270172534453" x1="0" y1="0" x2="1" y2="0" gradientUnits="userSpaceOnUse" gradientTransform="matrix(530,1031.61,-999.972,551.137,458,-3.03575)"><stop offset="0" style="stop-color:rgb(46,50,64);stop-opacity:1"/><stop offset="1" style="stop-color:rgb(31,32,53);stop-opacity:1"/></linearGradient>
    </defs>
<g xmlns="http://www.w3.org/2000/svg" id="ArmBack">
        <path id="ArmBack1" xmlns:ns1="http://www.serif.com/" ns1:id="ArmBack" d="M848,944C847.227,943.883 914.358,930.329 961,780C894.839,745.966 758.742,556.508 715,504C676.846,458.2 574.99,496.288 557,523C664.677,607.222 684.341,829.427 848,944Z" style="fill:rgb(191,182,182);stroke:black;stroke-width:6px;"/>
        <path id="ArmBack2" xmlns:ns2="http://www.serif.com/" ns2:id="ArmBack" d="M909,892C919.698,891.865 877.217,830.117 941,833C927.395,827.745 902.151,789.674 956,779" style="fill:rgb(191,182,182);stroke:black;stroke-width:6px;"/>
    </g>
<g xmlns="http://www.w3.org/2000/svg" id="ShirtYellowBack">
        <path d="M696,774L828.827,642.378C831.594,637.321 698.058,464.162 637,471C548.091,480.957 677.013,773.632 696,774Z" style="fill:rgb(255,183,0);stroke:black;stroke-width:6px;"/>
        <path d="M847,661C850.473,662.746 752.481,790.012 712,790C674.582,789.989 677,763 677,763C677,763 771.869,715.04 822.155,623.509C828.977,619.275 835.894,627.241 832.827,639.378C849.13,638.239 849.759,660.2 847,661Z" style="fill:rgb(255,183,0);stroke:black;stroke-width:6px;"/>
    </g>
<g xmlns="http://www.w3.org/2000/svg" id="HoodieArmBack">
        <path d="M812,918C857.94,883.691 902.561,828.771 931,754L902,726C866.403,797.723 821.535,856.955 776,881L812,918Z" style="fill:rgb(216,216,216);stroke:black;stroke-width:6px;"/>
        <path d="M847,656L799,600C799,600 795.425,556.926 774,546C752.575,535.074 673,492 673,492C673,492 616.421,692.997 693,787C735.262,838.879 752.901,868.43 771,881C797.227,899.214 910.84,754.226 903,716C890.028,694.436 878.914,664.518 847,656Z" style="fill:rgb(216,216,216);stroke:black;stroke-width:6px;"/>
        <path d="M781,630C781,630 815.304,652.285 847.794,655.794" style="fill:none;stroke:black;stroke-width:6px;"/>
    </g>
<path xmlns="http://www.w3.org/2000/svg" id="Body" d="M729,999C756.359,935.515 852.869,518.109 591,464C315.846,407.146 245.065,785.723 263,999C280.896,1000.61 729,999 729,999Z" style="fill:rgb(191,182,182);stroke:black;stroke-width:6px;"/>
<path xmlns="http://www.w3.org/2000/svg" id="KhakiPants" d="M744,940L728,1006L265,1004C259.724,963.607 259.985,900.414 264,857C465.432,948.045 633.709,983.196 744,940Z" style="fill:rgb(143,105,38);stroke:black;stroke-width:6px;"/>
<g xmlns="http://www.w3.org/2000/svg" id="Belt">
        <path id="Belt1" xmlns:ns1="http://www.serif.com/" ns1:id="Belt" d="M743,939L731,984C732.427,984.008 524.877,1057.15 265,887C261.716,882.839 263.106,850.285 265,845C534.962,971.128 673.132,972.378 743,939Z" style="fill:rgb(62,35,11);stroke:black;stroke-width:6px;"/>
        <path id="Buckle" d="M602,956L599,998C630.514,999.262 663.568,998.757 701,992L702,954C671.328,958.771 635.784,960.791 602,956Z" style="fill:rgb(229,145,0);stroke:black;stroke-width:6px;"/>
    </g>
<g xmlns="http://www.w3.org/2000/svg" id="ShirtYellowBody">
        <path id="ShirtYellowBody1" xmlns:ns1="http://www.serif.com/" ns1:id="ShirtYellowBody" d="M746,934C762.648,873.204 838.394,515.775 591,464C347.577,413.056 295.426,637.784 267,830C241.428,883.695 674.44,1012.46 746,934Z" style="fill:rgb(255,183,0);stroke:black;stroke-width:6px;"/>
        <path id="Buttons" d="M667,860C672.519,860 677,864.481 677,870C677,875.519 672.519,880 667,880C661.481,880 657,875.519 657,870C657,864.481 661.481,860 667,860ZM668,788C673.519,788 678,792.481 678,798C678,803.519 673.519,808 668,808C662.481,808 658,803.519 658,798C658,792.481 662.481,788 668,788ZM665,715C670.519,715 675,719.481 675,725C675,730.519 670.519,735 665,735C659.481,735 655,730.519 655,725C655,719.481 659.481,715 665,715Z" style="fill:rgb(3,3,3);stroke:rgb(3,0,0);stroke-width:6px;"/>
        <path id="Collar" d="M633,576C633,576 695.11,595.117 706,616C716.89,636.883 725.99,497.232 706,473C686.01,448.768 633,576 633,576Z" style="fill:rgb(255,183,0);stroke:black;stroke-width:6px;"/>
    </g>
<path xmlns="http://www.w3.org/2000/svg" id="VestBody" d="M745,934C762.058,888.467 811.725,667.735 714.493,542.096C711.23,598.451 704.232,616.48 661,690C581.804,655.021 469.386,539.068 377.77,482.881C285.379,543.781 263.301,698.883 275,838C275.274,885.144 448.211,945.754 588.714,961.829C628.074,937.088 665.165,911.493 665.165,911.493C665.165,911.493 687.458,942.028 703.023,960.775C720.129,956.094 734.458,943.975 745,934ZM665.5,715C670.743,715 675,719.257 675,724.5C675,729.743 670.743,734 665.5,734C660.257,734 656,729.743 656,724.5C656,719.257 660.257,715 665.5,715ZM669.5,788C674.743,788 679,792.257 679,797.5C679,802.743 674.743,807 669.5,807C664.257,807 660,802.743 660,797.5C660,792.257 664.257,788 669.5,788ZM666.5,860C671.743,860 676,864.257 676,869.5C676,874.743 671.743,879 666.5,879C661.257,879 657,874.743 657,869.5C657,864.257 661.257,860 666.5,860Z" style="fill:rgb(213,0,0);stroke:black;stroke-width:6px;"/>
<g xmlns="http://www.w3.org/2000/svg" id="HoodieWhiteBody">
            <path id="HoodieWhiteBody1" xmlns:ns1="http://www.serif.com/" ns1:id="HoodieWhiteBody" d="M746,961C761.359,893.515 852.869,518.109 591,464C315.846,407.146 238.065,700.723 256,914C186.718,969.397 615.456,1040.65 746,961Z" style="fill:rgb(216,216,216);stroke:black;stroke-width:6px;"/>
            <path id="HoodiePocket" d="M764.543,915.691C758.522,906.436 743.599,911.849 745,799C690.13,847.757 634.452,866.465 458,839C439.73,882.935 436.989,921.38 372,931C368.386,950.319 358.431,966.225 353,977C471.484,1018.57 666.969,1021.31 751,959C751,959 763.217,942.891 764.543,915.691Z" style="fill:rgb(216,216,216);stroke:black;stroke-width:6px;"/>
        </g>
<g xmlns="http://www.w3.org/2000/svg" id="ArmFront">
            <path id="ArmFront1" xmlns:ns1="http://www.serif.com/" ns1:id="ArmFront" d="M277,971C276.25,976.538 135.071,960.946 87,885C146.865,697.439 280.075,482.055 442,476C618.289,469.408 428.393,528.72 277,971" style="fill:rgb(191,182,182);stroke:black;stroke-width:6px;"/>
            <path id="ArmFront2" xmlns:ns2="http://www.serif.com/" ns2:id="ArmFront" d="M114,914C114,914 173.423,872.935 169,947C181.238,934.736 224.372,904.658 225,966C236.974,944.068 264.146,935.521 275,971" style="fill:none;stroke:black;stroke-width:6px;"/>
        </g>
<g xmlns="http://www.w3.org/2000/svg" id="ShirtYellowFront">
            <path d="M174,691C174,691 300.445,463.058 431,488C547.05,510.171 339.55,774.311 352,785C366.541,797.484 165.754,708.896 174,691Z" style="fill:rgb(255,183,0);stroke:black;stroke-width:6px;"/>
            <path d="M151,720C151,720 237.235,793.145 352,811C357.446,807.61 364.154,801.735 362,790C362.96,790.317 373.477,774.715 374,765C299.75,753.641 231.323,722.72 171,671C171,671 158.556,685.88 162,695C150.815,699.721 146.044,707.524 151,720Z" style="fill:rgb(255,183,0);stroke:black;stroke-width:6px;"/>
        </g>
<g xmlns="http://www.w3.org/2000/svg" id="HoodieFront">
            <g id="HoodieWhiteFront">
                <path id="HoodieWhiteFront1" xmlns:ns1="http://www.serif.com/" ns1:id="HoodieWhiteFront" d="M330,539C309.879,551.865 289.392,561.239 268,562M300,921C256.316,932.303 183.789,888.725 110,809L125,776C178.24,836.569 240.371,889.082 306,896L300,921ZM313,521L268,562C235.075,562.37 198.762,617.973 194,641C189.238,664.027 135.409,682.933 138,709C140.591,735.067 99.737,741.676 128,780C155.927,817.868 278.968,917.473 318,891C327.878,884.3 340.124,871.393 319.252,846.485C353.685,853.503 452.055,571.241 440,593L435,628C486.453,602.413 515.174,454.002 407,478C341.837,492.456 313,521 313,521Z" style="fill:rgb(216,216,216);stroke:black;stroke-width:6px;"/>
                <path d="M215,755C229.794,797.409 256.384,819.315 301,841" style="fill:none;stroke:black;stroke-width:6px;"/>
            </g>
            <g id="HoodieHood">
                <path id="HoodieHood1" xmlns:ns2="http://www.serif.com/" ns2:id="HoodieHood" d="M600,638C609.283,634.491 562.603,568.758 510,531C461.677,496.314 446,442 446,442C446,442 607.956,453.701 628,438C648.044,422.299 641.258,530.945 640,546C638.742,561.055 599,638 599,638C633.944,636.041 731.919,573.322 738,568C757.331,551.082 705.544,489.63 705.544,489.63C693.677,479.508 678,484 678,484C666.326,477.461 647.061,421.879 631,422C603,422.211 528.482,430.716 488,421C447.518,411.284 411.17,393.315 400,414C388.83,434.685 394,428 394,428C394,428 380.461,417.763 367,433C353.539,448.237 297.816,491.448 308.63,523.185C333.45,494.735 432.549,531.361 495,586C520.063,607.928 600,638 600,638ZM678,484C683.645,484.929 638.442,550.256 636,559M386,452L394,429M439,515L370.011,456.011L439,515Z" style="fill:rgb(216,216,216);"/>
                <clipPath id="_clip1">
                    <path id="HoodieHood2" xmlns:ns3="http://www.serif.com/" ns3:id="HoodieHood" d="M600,638C609.283,634.491 562.603,568.758 510,531C461.677,496.314 446,442 446,442C446,442 607.956,453.701 628,438C648.044,422.299 641.258,530.945 640,546C638.742,561.055 599,638 599,638C633.944,636.041 731.919,573.322 738,568C757.331,551.082 705.544,489.63 705.544,489.63C693.677,479.508 678,484 678,484C666.326,477.461 647.061,421.879 631,422C603,422.211 528.482,430.716 488,421C447.518,411.284 411.17,393.315 400,414C388.83,434.685 394,428 394,428C394,428 380.461,417.763 367,433C353.539,448.237 297.816,491.448 308.63,523.185C333.45,494.735 432.549,531.361 495,586C520.063,607.928 600,638 600,638ZM678,484C683.645,484.929 638.442,550.256 636,559M386,452L394,429M439,515L370.011,456.011L439,515Z"/>
                </clipPath>
                <g clip-path="url(#_clip1)">
                    <g transform="matrix(1,0,0,1,0,-6)">
                        <circle cx="628.5" cy="618.5" r="9.5" style="fill:rgb(216,216,216);stroke:black;stroke-width:6px;"/>
                    </g>
                    <g transform="matrix(1,0,0,1,-59,-8)">
                        <circle cx="628.5" cy="618.5" r="9.5" style="fill:rgb(216,216,216);stroke:black;stroke-width:6px;"/>
                    </g>
                </g>
                <path id="HoodieHood3" xmlns:ns4="http://www.serif.com/" ns4:id="HoodieHood" d="M600,638C609.283,634.491 562.603,568.758 510,531C461.677,496.314 446,442 446,442C446,442 607.956,453.701 628,438C648.044,422.299 641.258,530.945 640,546C638.742,561.055 599,638 599,638C633.944,636.041 731.919,573.322 738,568C757.331,551.082 705.544,489.63 705.544,489.63C693.677,479.508 678,484 678,484C666.326,477.461 647.061,421.879 631,422C603,422.211 528.482,430.716 488,421C447.518,411.284 411.17,393.315 400,414C388.83,434.685 394,428 394,428C394,428 380.461,417.763 367,433C353.539,448.237 297.816,491.448 308.63,523.185C333.45,494.735 432.549,531.361 495,586C520.063,607.928 600,638 600,638ZM678,484C683.645,484.929 638.442,550.256 636,559M386,452L394,429M439,515L370.011,456.011L439,515Z" style="fill:none;stroke:black;stroke-width:6px;"/>
                <path d="M637,615C637,615 655.622,722.698 652,775L638,773C642.058,725.97 636.234,669.401 621,615C626.034,610.883 631.227,608.958 637,615Z" style="fill:rgb(216,216,216);stroke:black;stroke-width:6px;"/>
                <g transform="matrix(0.997895,0.0648512,-0.0648512,0.997895,-17.8942,-40.8247)">
                    <path d="M637,615C637,615 655.622,722.698 652,775L638,773C642.058,725.97 636.234,669.401 621,615C626.034,610.883 631.227,608.958 637,615Z" style="fill:rgb(216,216,216);stroke:black;stroke-width:6px;"/>
                </g>
                <g transform="matrix(1,0,0,1,1,-5)">
                    <path d="M646,803L652,775C645.999,781.146 641.221,778.965 637,773L633,798C635.575,805.081 639.704,807.374 646,803Z" style="fill:rgb(216,216,216);stroke:black;stroke-width:6px;"/>
                </g>
                <g transform="matrix(0.997895,0.0648512,-0.0648512,0.997895,-16.5721,-45.7493)">
                    <path d="M646,803L652,775C645.999,781.146 641.221,778.965 637,773L633,798C635.575,805.081 639.704,807.374 646,803Z" style="fill:rgb(216,216,216);stroke:black;stroke-width:6px;"/>
                </g>
            </g>
        </g>
<path xmlns="http://www.w3.org/2000/svg" id="EarBack" d="M461,208C469.489,213.447 444.099,117.679 324,166C203.102,214.642 266.653,366.862 285,406C307.318,453.61 303.917,478.338 331,508C340.189,518.064 390.22,560.331 436,469C481.78,377.669 461,208 461,208Z" style="fill:rgb(191,182,182);stroke:black;stroke-width:6px;"/>
<path xmlns="http://www.w3.org/2000/svg" d="M708,191C713.558,200.103 566.883,67.298 440,176C295.261,300 367.03,482.439 356,511C360.656,559.377 318.083,635.972 291,660C263.917,684.028 112.099,751.388 115,774C117.901,796.612 171.719,788.217 191,797C210.281,805.783 223.052,815.107 248,803C272.948,790.893 357.205,763.369 408,746C471.521,724.279 538.868,643.419 552,615C588.787,613.299 697.177,539.696 742,445C765.015,396.376 762.745,383.175 752,307C741.255,230.825 708,191 708,191ZM587,537L552,615" style="fill:rgb(191,182,182);stroke:black;stroke-width:6px;"/>
<g xmlns="http://www.w3.org/2000/svg" id="EarFront">
            <path d="M638,235C638,235 672.892,141.658 769,144C823.595,145.331 856.196,197.106 868,228C884.939,272.334 876.556,352.438 808,419C795.747,430.897 775.388,455.324 762,481C743.427,516.618 737.464,535.178 700,546C676.209,552.872 655.22,546.317 642,537C706.159,364.39 638,235 638,235Z" style="fill:rgb(191,182,182);"/>
            <path d="M637,238C649.778,177.606 737.356,121.138 806.311,153.581C879.735,188.128 884.362,280.326 869,326C851.671,377.522 814.676,416.318 801,428C776.728,448.733 753.023,507.635 736,527C714.115,551.895 667.42,558.032 642,536" style="fill:none;stroke:black;stroke-width:6px;"/>
        </g>
<g xmlns="http://www.w3.org/2000/svg" id="YoungEyes2">
            <path d="M379.848,372.344C384.707,373.321 387.421,380.234 385.904,387.771C384.388,395.308 379.212,400.634 374.353,399.656C369.494,398.679 366.781,391.766 368.297,384.229C369.814,376.692 374.99,371.366 379.848,372.344ZM531.853,382.431C537.071,382.881 540.734,389.909 540.027,398.116C539.32,406.323 534.51,412.622 529.292,412.172C524.073,411.723 520.41,404.695 521.117,396.488C521.824,388.28 526.634,381.982 531.853,382.431Z" style="stroke:black;stroke-width:6px;"/>
            <path d="M349,311C349,311 371.806,293.128 393,289" style="fill:none;stroke:black;stroke-width:6px;"/>
            <path d="M516,291C516,291 552.521,298.57 582,325" style="fill:none;stroke:black;stroke-width:6px;"/>
        </g></svg>