<?xml version="1.0" encoding="UTF-8" standalone="no"?>
<!DOCTYPE svg PUBLIC "-//W3C//DTD SVG 1.1//EN" "http://www.w3.org/Graphics/SVG/1.1/DTD/svg11.dtd">
<svg width="100%" height="100%" viewBox="0 0 1000 1000" xmlns="http://www.w3.org/2000/svg" xmlns:xlink="http://www.w3.org/1999/xlink" xml:space="preserve" xmlns:serif="http://www.serif.com/" style="fill-rule:evenodd;clip-rule:evenodd;stroke-linecap:round;stroke-linejoin:round;stroke-miterlimit:1.5;">
<g xmlns="http://www.w3.org/2000/svg" id="Background1" transform="matrix(1,0,0,0.965484,0,-0.0690316)">
            <rect x="0" y="-2" width="1003" height="1043" style="fill:url(#1082886016512501);"/>
        </g><defs xmlns="http://www.w3.org/2000/svg">
        <linearGradient id="1082886016512501" x1="0" y1="0" x2="1" y2="0" gradientUnits="userSpaceOnUse" gradientTransform="matrix(485,1096.86,-1059,502.339,405,69.4667)"><stop offset="0" style="stop-color:rgb(146,191,195);stop-opacity:1"/><stop offset="1" style="stop-color:rgb(70,137,143);stop-opacity:1"/></linearGradient>
    </defs>
<g xmlns="http://www.w3.org/2000/svg" id="ArmBack">
        <path id="ArmBack1" xmlns:ns1="http://www.serif.com/" ns1:id="ArmBack" d="M848,944C847.227,943.883 914.358,930.329 961,780C894.839,745.966 758.742,556.508 715,504C676.846,458.2 574.99,496.288 557,523C664.677,607.222 684.341,829.427 848,944Z" style="fill:rgb(191,182,182);stroke:black;stroke-width:6px;"/>
        <path id="ArmBack2" xmlns:ns2="http://www.serif.com/" ns2:id="ArmBack" d="M909,892C919.698,891.865 877.217,830.117 941,833C927.395,827.745 902.151,789.674 956,779" style="fill:rgb(191,182,182);stroke:black;stroke-width:6px;"/>
    </g>
<path xmlns="http://www.w3.org/2000/svg" id="T-ShirtBack" d="M830,631C830,631 771.163,791.382 711,809C664.868,751.493 537.345,606.825 545,566C552.655,525.175 635.932,428.33 706,494C772.28,556.119 819.54,639.193 830,631Z" style="fill:rgb(41,41,45);stroke:black;stroke-width:6px;"/>
<path xmlns="http://www.w3.org/2000/svg" id="Body" d="M729,999C756.359,935.515 852.869,518.109 591,464C315.846,407.146 245.065,785.723 263,999C280.896,1000.61 729,999 729,999Z" style="fill:rgb(191,182,182);stroke:black;stroke-width:6px;"/>
<path xmlns="http://www.w3.org/2000/svg" id="KhakiPants" d="M744,940L728,1006L265,1004C259.724,963.607 259.985,900.414 264,857C465.432,948.045 633.709,983.196 744,940Z" style="fill:rgb(143,105,38);stroke:black;stroke-width:6px;"/>
<g xmlns="http://www.w3.org/2000/svg" id="Belt">
        <path id="Belt1" xmlns:ns1="http://www.serif.com/" ns1:id="Belt" d="M743,939L731,984C732.427,984.008 524.877,1057.15 265,887C261.716,882.839 263.106,850.285 265,845C534.962,971.128 673.132,972.378 743,939Z" style="fill:rgb(62,35,11);stroke:black;stroke-width:6px;"/>
        <path id="Buckle" d="M602,956L599,998C630.514,999.262 663.568,998.757 701,992L702,954C671.328,958.771 635.784,960.791 602,956Z" style="fill:rgb(229,145,0);stroke:black;stroke-width:6px;"/>
    </g>
<g xmlns="http://www.w3.org/2000/svg" id="T-ShirtBody">
            <path d="M661,492C661,492 738.33,546.524 639,585C539.67,623.476 427.903,568.394 424,533C420.097,497.606 448.726,471.019 479,467C509.274,462.981 273.017,461.179 259,908C449.283,1029.75 686.101,997.217 735,984C792.24,818.508 790.517,552.53 661,492Z" style="fill:rgb(41,41,45);stroke:black;stroke-width:6px;"/>
            <path d="M400,508C386.479,527.904 397.322,624.625 576,625C692.969,625.245 723.934,566.023 712,537" style="fill:none;stroke:black;stroke-width:6px;"/>
        </g>
<g xmlns="http://www.w3.org/2000/svg" id="Arweave-Logo" xmlns:ns1="http://www.serif.com/" ns1:id="Arweave Logo" transform="matrix(0.916215,-0.0598462,0.0651801,0.997874,-0.181473,39.1575)">
            <g transform="matrix(4.16667,0,0,4.16667,560,667)">
                <circle cx="16.376" cy="15.992" r="14.664" style="fill:none;stroke:rgb(200,205,219);stroke-width:2.5px;"/>
            </g>
            <g transform="matrix(4.16667,0,0,4.16667,560,667)">
                <path d="M19.114,21.291C19.042,21.148 18.982,20.985 18.932,20.799C18.882,20.614 18.84,20.419 18.804,20.212C18.64,20.39 18.451,20.557 18.238,20.714C18.024,20.871 17.786,21.01 17.522,21.131C17.266,21.244 16.981,21.334 16.668,21.398C16.354,21.469 16.016,21.505 15.653,21.505C15.062,21.505 14.517,21.419 14.019,21.248C13.527,21.077 13.104,20.839 12.748,20.533C12.392,20.226 12.114,19.863 11.914,19.443C11.715,19.016 11.615,18.553 11.615,18.054C11.615,16.837 12.068,15.897 12.972,15.235C13.883,14.565 15.24,14.23 17.042,14.23L18.697,14.23L18.697,13.547C18.697,12.991 18.516,12.554 18.152,12.233C17.789,11.906 17.266,11.742 16.582,11.742C15.977,11.742 15.535,11.874 15.258,12.137C14.98,12.393 14.841,12.739 14.841,13.173L11.872,13.173C11.872,12.682 11.979,12.215 12.192,11.774C12.413,11.332 12.73,10.944 13.143,10.61C13.563,10.275 14.072,10.011 14.67,9.819C15.275,9.62 15.966,9.52 16.742,9.52C17.44,9.52 18.088,9.605 18.686,9.776C19.292,9.947 19.815,10.2 20.257,10.535C20.698,10.869 21.043,11.293 21.293,11.806C21.542,12.311 21.667,12.899 21.667,13.568L21.667,18.524C21.667,19.144 21.706,19.657 21.784,20.063C21.862,20.468 21.976,20.817 22.126,21.109L22.126,21.291L19.114,21.291ZM16.283,19.208C16.582,19.208 16.86,19.172 17.116,19.101C17.373,19.03 17.604,18.937 17.811,18.823C18.017,18.709 18.195,18.581 18.345,18.439C18.494,18.289 18.612,18.14 18.697,17.99L18.697,16.004L17.18,16.004C16.718,16.004 16.322,16.05 15.995,16.142C15.667,16.228 15.4,16.352 15.194,16.516C14.987,16.673 14.834,16.865 14.734,17.093C14.635,17.314 14.585,17.556 14.585,17.819C14.585,18.218 14.724,18.549 15.001,18.813C15.286,19.076 15.713,19.208 16.283,19.208Z" style="fill:rgb(210,213,223);fill-rule:nonzero;"/>
            </g>
        </g>
<g xmlns="http://www.w3.org/2000/svg" id="BroVestBody">
            <path id="BroVestBody1" xmlns:ns1="http://www.serif.com/" ns1:id="BroVestBody" d="M577.045,461.46C581.642,462.181 586.291,463.027 591,464C852.869,518.109 765.359,910.515 738,974C691.287,1037.2 237.882,953.791 255,915C249.985,855.368 261.906,820.813 271.295,794.438C289.374,809.539 319.379,828.569 345,816C455.451,761.813 390.098,607.577 362,561C360.742,558.914 359.286,557.755 357.658,557.423C382.042,523.261 439.645,483.76 475.141,466.465C443.094,477.669 438.484,532.291 529,567C638.031,608.808 668.343,689.12 667,690L688,688C694.208,683.09 692.54,570.506 684,532C676.836,499.701 634.815,471.462 577.045,461.46Z" style="fill:rgb(0,47,98);stroke:black;stroke-width:6px;"/>
            <path d="M266,906C250.194,914.024 489.324,976.896 654,977" style="fill:none;stroke:black;stroke-width:6px;"/>
            <g transform="matrix(1,0,0,1,82,0)">
                <path d="M602,679L605,700L587,701L582,680C601.065,782.497 602.609,899.197 586,996L601,997C619.882,893.814 615.298,777.186 602,679Z" style="fill:rgb(0,47,98);stroke:black;stroke-width:6px;"/>
            </g>
            <g transform="matrix(0.968235,0.250044,-0.250044,0.968235,283.866,-137.389)">
                <rect x="579" y="701" width="20" height="39" style="fill:rgb(0,47,98);stroke:black;stroke-width:6px;"/>
            </g>
            <path d="M745,958C745,958 732.558,971.879 695,974" style="fill:none;stroke:black;stroke-width:6px;"/>
            <g transform="matrix(0.986021,0.166623,-0.166623,0.986021,178.772,-107.626)">
                <path d="M659,665L674,662C688.092,700.23 694.582,763.826 696,806L683,805C682.623,765.526 674.461,703.536 659,665Z" style="fill:none;stroke:black;stroke-width:6px;"/>
            </g>
            <g transform="matrix(0.954729,0.297477,-0.297477,0.954729,318.099,-37.1491)">
                <path d="M659,665L674,662C688.092,700.23 694.582,763.826 696,806L683,805C682.623,765.526 674.461,703.536 659,665Z" style="fill:none;stroke:black;stroke-width:6px;"/>
            </g>
            <g transform="matrix(0.954729,0.297477,-0.297477,0.954729,100.099,-32.1491)">
                <path d="M659,665L674,662C688.092,700.23 694.582,763.826 696,806L683,805C682.623,765.526 674.461,703.536 659,665Z" style="fill:none;stroke:black;stroke-width:6px;"/>
            </g>
            <g transform="matrix(0.839615,-0.0959406,0.113529,0.993535,181.169,143.555)">
                <rect x="579" y="701" width="20" height="39" style="fill:rgb(0,47,98);stroke:black;stroke-width:6.48px;"/>
            </g>
            <g transform="matrix(0.844963,-0.0139814,0.0165445,0.999863,29.8964,79.721)">
                <rect x="579" y="701" width="20" height="39" style="fill:rgb(0,47,98);stroke:black;stroke-width:6.48px;"/>
            </g>
        </g>
<g xmlns="http://www.w3.org/2000/svg" id="ArmFront">
            <path id="ArmFront1" xmlns:ns1="http://www.serif.com/" ns1:id="ArmFront" d="M277,971C276.25,976.538 135.071,960.946 87,885C146.865,697.439 280.075,482.055 442,476C618.289,469.408 428.393,528.72 277,971" style="fill:rgb(191,182,182);stroke:black;stroke-width:6px;"/>
            <path id="ArmFront2" xmlns:ns2="http://www.serif.com/" ns2:id="ArmFront" d="M114,914C114,914 173.423,872.935 169,947C181.238,934.736 224.372,904.658 225,966C236.974,944.068 264.146,935.521 275,971" style="fill:none;stroke:black;stroke-width:6px;"/>
        </g>
<path xmlns="http://www.w3.org/2000/svg" id="T-ShirtBackFront" d="M451,463C615.791,440.597 420.162,697.407 400,721C399.25,726.538 247.071,703.946 199,628C260.865,521.439 370.181,473.987 451,463Z" style="fill:rgb(41,41,45);stroke:black;stroke-width:6px;"/>
<g xmlns="http://www.w3.org/2000/svg" id="BroVestFront">
            <path d="M467.606,469.748C439.191,482.15 413.839,505.573 453,543C499.26,587.212 508.095,595.678 519.459,598.573C474.071,673.886 403.58,748.011 412,711C427.062,644.79 321,509 321,509C321,509 387.056,475.029 467.606,469.748Z" style="fill:rgb(0,47,98);"/>
            <path d="M412,711C427.062,644.79 320,510 320,510C323.585,503.103 403.143,471.973 472,467" style="fill:none;stroke:black;stroke-width:6px;"/>
            <path d="M630,469C630,469 693.362,465.441 739,521C728.394,568.881 745.094,579.197 762,635" style="fill:rgb(0,47,98);stroke:black;stroke-width:6px;"/>
            <path id="BroVestFront1" xmlns:ns1="http://www.serif.com/" ns1:id="BroVestFront" d="M666,686C661.86,663.814 646.834,637.867 618,615C600.265,600.936 527.366,582.851 489.564,552.231C458.188,526.817 426.718,501.806 454,482C519.572,434.396 614.046,455.042 638.729,487.672C685.313,547.723 676.002,593.144 685,683C695.26,666.679 695.745,587.032 757,561C750.469,494.736 696.689,438.656 660.755,415.913C624.822,393.17 433.068,383.175 394,416C350.219,461.611 477.73,566.149 499,618C536.31,618.99 638.388,662.684 666,686Z" style="fill:rgb(0,47,98);stroke:black;stroke-width:6px;"/>
        </g>
<path xmlns="http://www.w3.org/2000/svg" id="Ear2Back" d="M456,166C456,166 409.946,21.441 341,30C272.054,38.559 294.61,87.177 289,122C281.443,168.906 220.591,183.716 207,213C186.316,257.566 203.788,275.094 211,300C220.574,333.062 256.228,346.429 259,384C262.508,431.54 245.154,429.477 267,463C288.846,496.523 330.306,492.246 371,516C423.02,546.365 483.199,179.219 456,166Z" style="fill:rgb(191,182,182);stroke:black;stroke-width:6px;"/>
<path xmlns="http://www.w3.org/2000/svg" d="M708,191C713.558,200.103 566.883,67.298 440,176C295.261,300 367.03,482.439 356,511C360.656,559.377 318.083,635.972 291,660C263.917,684.028 112.099,751.388 115,774C117.901,796.612 171.719,788.217 191,797C210.281,805.783 223.052,815.107 248,803C272.948,790.893 357.205,763.369 408,746C471.521,724.279 538.868,643.419 552,615C588.787,613.299 697.177,539.696 742,445C765.015,396.376 762.745,383.175 752,307C741.255,230.825 708,191 708,191ZM587,537L552,615" style="fill:rgb(191,182,182);stroke:black;stroke-width:6px;"/>
<g xmlns="http://www.w3.org/2000/svg" id="Ear2Front">
            <path d="M639,236C639,236 732.717,10.989 819,58C864.465,82.772 842.681,130.999 850,167C857.319,203.001 920.509,213.249 924,288C927.491,362.751 856.556,355.166 847,410C837.444,464.834 850.04,455.103 830,470C809.96,484.897 766.217,490.833 764,513C761.783,535.167 767.253,531.609 759,545C750.747,558.391 721.306,545.609 710,561C698.694,576.391 707.529,630.187 659,616C610.471,601.813 615,560 615,560L639,236Z" style="fill:rgb(191,182,182);"/>
            <path d="M639,236C639,236 732.717,10.989 819,58C864.465,82.772 842.681,130.999 850,167C857.319,203.001 920.509,213.249 924,288C927.491,362.751 856.556,355.166 847,410C837.444,464.834 850.04,455.103 830,470C809.96,484.897 766.217,490.833 764,513C761.783,535.167 767.253,531.609 759,545C750.747,558.391 721.306,545.609 710,561C698.694,576.391 707.529,630.187 659,616C610.471,601.813 615,560 615,560" style="fill:none;stroke:black;stroke-width:6px;"/>
        </g>
<g xmlns="http://www.w3.org/2000/svg" id="YoungEyes2">
            <path d="M379.848,372.344C384.707,373.321 387.421,380.234 385.904,387.771C384.388,395.308 379.212,400.634 374.353,399.656C369.494,398.679 366.781,391.766 368.297,384.229C369.814,376.692 374.99,371.366 379.848,372.344ZM531.853,382.431C537.071,382.881 540.734,389.909 540.027,398.116C539.32,406.323 534.51,412.622 529.292,412.172C524.073,411.723 520.41,404.695 521.117,396.488C521.824,388.28 526.634,381.982 531.853,382.431Z" style="stroke:black;stroke-width:6px;"/>
            <path d="M349,311C349,311 371.806,293.128 393,289" style="fill:none;stroke:black;stroke-width:6px;"/>
            <path d="M516,291C516,291 552.521,298.57 582,325" style="fill:none;stroke:black;stroke-width:6px;"/>
        </g></svg>