<?xml version="1.0" encoding="UTF-8" standalone="no"?>
<!DOCTYPE svg PUBLIC "-//W3C//DTD SVG 1.1//EN" "http://www.w3.org/Graphics/SVG/1.1/DTD/svg11.dtd">
<svg width="100%" height="100%" viewBox="0 0 1000 1000" xmlns="http://www.w3.org/2000/svg" xmlns:xlink="http://www.w3.org/1999/xlink" xml:space="preserve" xmlns:serif="http://www.serif.com/" style="fill-rule:evenodd;clip-rule:evenodd;stroke-linecap:round;stroke-linejoin:round;stroke-miterlimit:1.5;">
<rect xmlns="http://www.w3.org/2000/svg" x="0" y="-2" width="1003" height="1043" style="fill:url(#7535836679515925);"/><defs xmlns="http://www.w3.org/2000/svg">
        <linearGradient id="7535836679515925" x1="0" y1="0" x2="1" y2="0" gradientUnits="userSpaceOnUse" gradientTransform="matrix(530,1031.61,-999.972,551.137,458,-3.03575)"><stop offset="0" style="stop-color:rgb(122,125,136);stop-opacity:1"/><stop offset="1" style="stop-color:rgb(73,74,105);stop-opacity:1"/></linearGradient>
    </defs>
<g xmlns="http://www.w3.org/2000/svg" id="ArmBack">
        <path id="ArmBack1" xmlns:ns1="http://www.serif.com/" ns1:id="ArmBack" d="M848,944C847.227,943.883 914.358,930.329 961,780C894.839,745.966 758.742,556.508 715,504C676.846,458.2 574.99,496.288 557,523C664.677,607.222 684.341,829.427 848,944Z" style="fill:rgb(191,182,182);stroke:black;stroke-width:6px;"/>
        <path id="ArmBack2" xmlns:ns2="http://www.serif.com/" ns2:id="ArmBack" d="M909,892C919.698,891.865 877.217,830.117 941,833C927.395,827.745 902.151,789.674 956,779" style="fill:rgb(191,182,182);stroke:black;stroke-width:6px;"/>
    </g>
<g xmlns="http://www.w3.org/2000/svg" id="ShirtYellowBack">
        <path d="M696,774L828.827,642.378C831.594,637.321 698.058,464.162 637,471C548.091,480.957 677.013,773.632 696,774Z" style="fill:rgb(255,183,0);stroke:black;stroke-width:6px;"/>
        <path d="M847,661C850.473,662.746 752.481,790.012 712,790C674.582,789.989 677,763 677,763C677,763 771.869,715.04 822.155,623.509C828.977,619.275 835.894,627.241 832.827,639.378C849.13,638.239 849.759,660.2 847,661Z" style="fill:rgb(255,183,0);stroke:black;stroke-width:6px;"/>
    </g>
<path xmlns="http://www.w3.org/2000/svg" id="Body" d="M729,999C756.359,935.515 852.869,518.109 591,464C315.846,407.146 245.065,785.723 263,999C280.896,1000.61 729,999 729,999Z" style="fill:rgb(191,182,182);stroke:black;stroke-width:6px;"/>
<path xmlns="http://www.w3.org/2000/svg" id="Pants" d="M744,940L728,1006L265,1004C259.724,963.607 259.985,900.414 264,857C465.432,948.045 633.709,983.196 744,940Z" style="fill:rgb(17,26,75);stroke:black;stroke-width:6px;"/>
<g xmlns="http://www.w3.org/2000/svg" id="Belt">
        <path id="Belt1" xmlns:ns1="http://www.serif.com/" ns1:id="Belt" d="M743,939L731,984C732.427,984.008 524.877,1057.15 265,887C261.716,882.839 263.106,850.285 265,845C534.962,971.128 673.132,972.378 743,939Z" style="fill:rgb(62,35,11);stroke:black;stroke-width:6px;"/>
        <path id="Buckle" d="M602,956L599,998C630.514,999.262 663.568,998.757 701,992L702,954C671.328,958.771 635.784,960.791 602,956Z" style="fill:rgb(229,145,0);stroke:black;stroke-width:6px;"/>
    </g>
<g xmlns="http://www.w3.org/2000/svg" id="ShirtYellowBody">
        <path id="ShirtYellowBody1" xmlns:ns1="http://www.serif.com/" ns1:id="ShirtYellowBody" d="M746,934C762.648,873.204 838.394,515.775 591,464C347.577,413.056 295.426,637.784 267,830C241.428,883.695 674.44,1012.46 746,934Z" style="fill:rgb(255,183,0);stroke:black;stroke-width:6px;"/>
        <path id="Buttons" d="M667,860C672.519,860 677,864.481 677,870C677,875.519 672.519,880 667,880C661.481,880 657,875.519 657,870C657,864.481 661.481,860 667,860ZM668,788C673.519,788 678,792.481 678,798C678,803.519 673.519,808 668,808C662.481,808 658,803.519 658,798C658,792.481 662.481,788 668,788ZM665,715C670.519,715 675,719.481 675,725C675,730.519 670.519,735 665,735C659.481,735 655,730.519 655,725C655,719.481 659.481,715 665,715Z" style="fill:rgb(3,3,3);stroke:rgb(3,0,0);stroke-width:6px;"/>
        <path id="Collar" d="M633,576C633,576 695.11,595.117 706,616C716.89,636.883 725.99,497.232 706,473C686.01,448.768 633,576 633,576Z" style="fill:rgb(255,183,0);stroke:black;stroke-width:6px;"/>
    </g>
<g xmlns="http://www.w3.org/2000/svg" id="Bowtie" transform="matrix(1,0,0,1,90,-5)">
            <path d="M640,648C651.249,641.059 660.547,618.838 650,580C645.051,561.775 596.846,567.896 593,579C590.852,585.2 577.639,626.687 597,639C616.361,651.313 632.167,652.833 640,648Z" style="fill:rgb(231,0,0);stroke:rgb(1,1,1);stroke-width:6px;"/>
            <path d="M558,640C564.564,643.797 582.109,650.993 598,641C615.296,630.123 603.308,585.931 594,579C586.246,573.226 555.189,571.132 550,586C545.412,599.145 541.615,630.523 558,640Z" style="fill:rgb(231,0,0);stroke:rgb(1,1,1);stroke-width:6px;"/>
            <path d="M503,647C531.681,653.802 555.848,644.968 560,636C564.152,627.032 562.663,588.519 554,579C544.802,568.893 514.102,560.057 498,572C483.748,582.571 489.741,643.855 503,647Z" style="fill:rgb(231,0,0);stroke:rgb(1,1,1);stroke-width:6px;"/>
        </g>
<g xmlns="http://www.w3.org/2000/svg" id="ArmFront">
            <path id="ArmFront1" xmlns:ns1="http://www.serif.com/" ns1:id="ArmFront" d="M277,971C276.25,976.538 135.071,960.946 87,885C146.865,697.439 280.075,482.055 442,476C618.289,469.408 428.393,528.72 277,971" style="fill:rgb(191,182,182);stroke:black;stroke-width:6px;"/>
            <path id="ArmFront2" xmlns:ns2="http://www.serif.com/" ns2:id="ArmFront" d="M114,914C114,914 173.423,872.935 169,947C181.238,934.736 224.372,904.658 225,966C236.974,944.068 264.146,935.521 275,971" style="fill:none;stroke:black;stroke-width:6px;"/>
        </g>
<g xmlns="http://www.w3.org/2000/svg" id="ShirtYellowFront">
            <path d="M174,691C174,691 300.445,463.058 431,488C547.05,510.171 339.55,774.311 352,785C366.541,797.484 165.754,708.896 174,691Z" style="fill:rgb(255,183,0);stroke:black;stroke-width:6px;"/>
            <path d="M151,720C151,720 237.235,793.145 352,811C357.446,807.61 364.154,801.735 362,790C362.96,790.317 373.477,774.715 374,765C299.75,753.641 231.323,722.72 171,671C171,671 158.556,685.88 162,695C150.815,699.721 146.044,707.524 151,720Z" style="fill:rgb(255,183,0);stroke:black;stroke-width:6px;"/>
        </g>
<path xmlns="http://www.w3.org/2000/svg" id="Ear3Back" d="M444,197C444,197 349.65,119.368 294,135C238.35,150.632 228.312,204.295 247,305C262.589,389.007 289.247,390.32 309,490C322.195,556.585 373.5,548.394 387,552C451.776,569.301 494.074,209.522 444,197Z" style="fill:rgb(191,182,182);stroke:black;stroke-width:6px;"/>
<g xmlns="http://www.w3.org/2000/svg" id="HornBack">
            <path d="M339,533C368.71,533.881 379.253,545.993 392,563C369.839,604.937 353.91,617.187 338,623C322.09,628.813 292.167,610.667 309,580C320.025,568.94 331.827,548.655 339,533Z" style="fill:white;stroke:black;stroke-width:6px;"/>
            <path id="HornBack1" xmlns:ns1="http://www.serif.com/" ns1:id="HornBack" d="M339,533C339,533 340.061,461.908 373,465C405.939,468.092 414.855,490.278 415,501C415.219,517.257 405.424,539.78 391,566C387.452,555.752 372.517,536.888 339,533Z" style="fill:rgb(191,182,182);stroke:black;stroke-width:6px;"/>
        </g>
<path xmlns="http://www.w3.org/2000/svg" d="M708,191C713.558,200.103 566.883,67.298 440,176C295.261,300 367.03,482.439 356,511C360.656,559.377 318.083,635.972 291,660C263.917,684.028 112.099,751.388 115,774C117.901,796.612 171.719,788.217 191,797C210.281,805.783 223.052,815.107 248,803C272.948,790.893 357.205,763.369 408,746C471.521,724.279 538.868,643.419 552,615C588.787,613.299 697.177,539.696 742,445C765.015,396.376 762.745,383.175 752,307C741.255,230.825 708,191 708,191ZM587,537L552,615" style="fill:rgb(191,182,182);stroke:black;stroke-width:6px;"/>
<g xmlns="http://www.w3.org/2000/svg" id="HornFront">
            <path d="M512,629C526.681,615.19 548.051,596.082 562,575C562,575 630.026,587.74 600,628C562.399,678.416 485.502,653.926 512,629Z" style="fill:white;stroke:black;stroke-width:6px;"/>
            <path d="M575,556C613.393,461.56 658.288,504.218 677,540C655.202,570.254 629.229,599.968 598,629C596.491,590.655 583.537,575.608 563,576L575,556Z" style="fill:rgb(191,182,182);"/>
            <path d="M684,526C663.065,562.535 632.935,595.167 598,628C597.973,586.894 582.258,577.883 561,576L575,553" style="fill:none;stroke:black;stroke-width:6px;"/>
        </g>
<g xmlns="http://www.w3.org/2000/svg" id="Eart3Front">
            <g transform="matrix(1,0,0,1,-45,7)">
                <path d="M687,226C687,226 767.864,73.406 854,134C940.136,194.594 941.526,273.38 935,310C928.474,346.62 884.536,419.667 877,430C869.464,440.333 828.699,492.585 827,509C823.224,545.485 781.25,598.998 727,579C696.331,567.695 698,532 698,532" style="fill:rgb(191,182,182);"/>
            </g>
            <g transform="matrix(1,0,0,1,-45,7)">
                <path d="M682,234C682,234 767.864,73.406 854,134C940.136,194.594 941.526,273.38 935,310C928.474,346.62 910.312,393.233 877,430C858.062,450.902 835.715,480.934 828,512C816.022,560.232 773.354,594.784 726,580C703.162,572.87 697,531 697,531" style="fill:none;stroke:black;stroke-width:6px;"/>
            </g>
        </g>
<path xmlns="http://www.w3.org/2000/svg" id="YoungEyes" d="M562.256,393.084C565.064,393.422 566.781,398.365 566.088,404.114C565.395,409.863 562.552,414.255 559.744,413.916C556.936,413.578 555.219,408.635 555.912,402.886C556.605,397.137 559.448,392.745 562.256,393.084ZM396.256,382.084C399.064,382.422 400.781,387.365 400.088,393.114C399.395,398.863 396.552,403.255 393.744,402.916C390.936,402.578 389.219,397.635 389.912,391.886C390.605,386.137 393.448,381.745 396.256,382.084Z" style="stroke:black;stroke-width:6px;"/>
<g xmlns="http://www.w3.org/2000/svg" id="Monocol">
            <path d="M577,449C626.231,428.952 632.524,329.257 551,343C474.224,355.942 508.157,477.034 577,449Z" style="fill:url(#7464156698673234);stroke:url(#34760848184590);stroke-width:6px;"/>
            <path d="M617,378C616.409,368.898 613.196,360.388 605,353M638,238C643.59,268.147 688.463,420.962 643,408C617.322,400.679 619.843,354.52 610,353M512,354C523.796,342.593 525.567,333.507 562,328M365,346C431.079,356.011 408.933,378.745 443,376" style="fill:none;stroke:url(#1921968195638980);stroke-width:6px;"/>
        </g><defs xmlns="http://www.w3.org/2000/svg">
        <radialGradient id="7464156698673234" cx="0" cy="0" r="1" gradientUnits="userSpaceOnUse" gradientTransform="matrix(-44,65,-65,-44,579,368)"><stop offset="0" style="stop-color:white;stop-opacity:1"/><stop offset="1" style="stop-color:rgb(178,178,178);stop-opacity:0"/></radialGradient>
        <radialGradient id="34760848184590" cx="0" cy="0" r="1" gradientUnits="userSpaceOnUse" gradientTransform="matrix(70.14,0,0,106.691,551,342.309)"><stop offset="0" style="stop-color:black;stop-opacity:1"/><stop offset="1" style="stop-color:black;stop-opacity:1"/></radialGradient>
        <radialGradient id="1921968195638980" cx="0" cy="0" r="1" gradientUnits="userSpaceOnUse" gradientTransform="matrix(12,0,0,25,605,353)"><stop offset="0" style="stop-color:black;stop-opacity:1"/><stop offset="1" style="stop-color:black;stop-opacity:1"/></radialGradient>
    </defs></svg>