<?xml version="1.0" encoding="UTF-8" standalone="no"?>
<!DOCTYPE svg PUBLIC "-//W3C//DTD SVG 1.1//EN" "http://www.w3.org/Graphics/SVG/1.1/DTD/svg11.dtd">
<svg width="100%" height="100%" viewBox="0 0 1000 1000" xmlns="http://www.w3.org/2000/svg" xmlns:xlink="http://www.w3.org/1999/xlink" xml:space="preserve" xmlns:serif="http://www.serif.com/" style="fill-rule:evenodd;clip-rule:evenodd;stroke-linecap:round;stroke-linejoin:round;stroke-miterlimit:1.5;">
<rect xmlns="http://www.w3.org/2000/svg" x="0" y="-2" width="1003" height="1043" style="fill:url(#27791205763595);"/><defs xmlns="http://www.w3.org/2000/svg">
        <linearGradient id="27791205763595" x1="0" y1="0" x2="1" y2="0" gradientUnits="userSpaceOnUse" gradientTransform="matrix(554,1421.05,-1372,573.805,428,39.43)"><stop offset="0" style="stop-color:rgb(183,163,223);stop-opacity:1"/><stop offset="1" style="stop-color:rgb(110,70,189);stop-opacity:1"/></linearGradient>
    </defs>
<g xmlns="http://www.w3.org/2000/svg" id="ArmBack">
        <path id="ArmBack1" xmlns:ns1="http://www.serif.com/" ns1:id="ArmBack" d="M848,944C847.227,943.883 914.358,930.329 961,780C894.839,745.966 758.742,556.508 715,504C676.846,458.2 574.99,496.288 557,523C664.677,607.222 684.341,829.427 848,944Z" style="fill:rgb(191,182,182);stroke:black;stroke-width:6px;"/>
        <path id="ArmBack2" xmlns:ns2="http://www.serif.com/" ns2:id="ArmBack" d="M909,892C919.698,891.865 877.217,830.117 941,833C927.395,827.745 902.151,789.674 956,779" style="fill:rgb(191,182,182);stroke:black;stroke-width:6px;"/>
    </g>
<path xmlns="http://www.w3.org/2000/svg" id="T-ShirtBack" d="M830,631C830,631 771.163,791.382 711,809C664.868,751.493 537.345,606.825 545,566C552.655,525.175 635.932,428.33 706,494C772.28,556.119 819.54,639.193 830,631Z" style="fill:rgb(41,41,45);stroke:black;stroke-width:6px;"/>
<path xmlns="http://www.w3.org/2000/svg" id="Body" d="M729,999C756.359,935.515 852.869,518.109 591,464C315.846,407.146 245.065,785.723 263,999C280.896,1000.61 729,999 729,999Z" style="fill:rgb(191,182,182);stroke:black;stroke-width:6px;"/>
<path xmlns="http://www.w3.org/2000/svg" id="Pants" d="M744,940L728,1006L265,1004C259.724,963.607 259.985,900.414 264,857C465.432,948.045 633.709,983.196 744,940Z" style="fill:rgb(17,26,75);stroke:black;stroke-width:6px;"/>
<g xmlns="http://www.w3.org/2000/svg" id="Belt">
        <path id="Belt1" xmlns:ns1="http://www.serif.com/" ns1:id="Belt" d="M743,939L731,984C732.427,984.008 524.877,1057.15 265,887C261.716,882.839 263.106,850.285 265,845C534.962,971.128 673.132,972.378 743,939Z" style="fill:rgb(62,35,11);stroke:black;stroke-width:6px;"/>
        <path id="Buckle" d="M602,956L599,998C630.514,999.262 663.568,998.757 701,992L702,954C671.328,958.771 635.784,960.791 602,956Z" style="fill:rgb(229,145,0);stroke:black;stroke-width:6px;"/>
    </g>
<g xmlns="http://www.w3.org/2000/svg" id="T-ShirtBody">
            <path d="M661,492C661,492 738.33,546.524 639,585C539.67,623.476 427.903,568.394 424,533C420.097,497.606 448.726,471.019 479,467C509.274,462.981 273.017,461.179 259,908C449.283,1029.75 686.101,997.217 735,984C792.24,818.508 790.517,552.53 661,492Z" style="fill:rgb(41,41,45);stroke:black;stroke-width:6px;"/>
            <path d="M400,508C386.479,527.904 397.322,624.625 576,625C692.969,625.245 723.934,566.023 712,537" style="fill:none;stroke:black;stroke-width:6px;"/>
        </g>
<g xmlns="http://www.w3.org/2000/svg" id="SolanaLogo" transform="matrix(0.998985,0.0450344,-0.0450344,0.998985,18.6507,-26.486)">
            <g transform="matrix(0.347728,-0.0439128,0.0439128,0.347728,550.861,687.638)">
                <path d="M64.6,237.9C67,235.5 70.3,234.1 73.8,234.1L391.2,234.1C397,234.1 399.9,241.1 395.8,245.2L333.1,307.9C330.7,310.3 327.4,311.7 323.9,311.7L6.5,311.7C0.7,311.7 -2.2,304.7 1.9,300.6L64.6,237.9Z" style="fill:url(#6932845582576490);fill-rule:nonzero;"/>
            </g>
            <g transform="matrix(0.347728,-0.0439128,0.0439128,0.347728,550.861,687.638)">
                <path d="M64.6,3.8C67.1,1.4 70.4,0 73.8,0L391.2,0C397,0 399.9,7 395.8,11.1L333.1,73.8C330.7,76.2 327.4,77.6 323.9,77.6L6.5,77.6C0.7,77.6 -2.2,70.6 1.9,66.5L64.6,3.8Z" style="fill:url(#6594732995442398);fill-rule:nonzero;"/>
            </g>
            <g transform="matrix(0.347728,-0.0439128,0.0439128,0.347728,550.861,687.638)">
                <path d="M333.1,120.1C330.7,117.7 327.4,116.3 323.9,116.3L6.5,116.3C0.7,116.3 -2.2,123.3 1.9,127.4L64.6,190.1C67,192.5 70.3,193.9 73.8,193.9L391.2,193.9C397,193.9 399.9,186.9 395.8,182.8L333.1,120.1Z" style="fill:url(#2938357697495209);fill-rule:nonzero;"/>
            </g>
        </g><defs xmlns="http://www.w3.org/2000/svg">
        <linearGradient id="6932845582576490" x1="0" y1="0" x2="1" y2="0" gradientUnits="userSpaceOnUse" gradientTransform="matrix(-219.666,420.749,-420.749,-219.666,360.879,-37.4553)"><stop offset="0" style="stop-color:rgb(0,255,163);stop-opacity:1"/><stop offset="1" style="stop-color:rgb(220,31,255);stop-opacity:1"/></linearGradient>
        <linearGradient id="6594732995442398" x1="0" y1="0" x2="1" y2="0" gradientUnits="userSpaceOnUse" gradientTransform="matrix(-219.666,420.749,-420.749,-219.666,264.829,-87.6014)"><stop offset="0" style="stop-color:rgb(0,255,163);stop-opacity:1"/><stop offset="1" style="stop-color:rgb(220,31,255);stop-opacity:1"/></linearGradient>
        <linearGradient id="2938357697495209" x1="0" y1="0" x2="1" y2="0" gradientUnits="userSpaceOnUse" gradientTransform="matrix(-219.666,420.749,-420.749,-219.666,312.548,-62.688)"><stop offset="0" style="stop-color:rgb(0,255,163);stop-opacity:1"/><stop offset="1" style="stop-color:rgb(220,31,255);stop-opacity:1"/></linearGradient>
    </defs>
<g xmlns="http://www.w3.org/2000/svg" id="BroVestBody">
            <path id="BroVestBody1" xmlns:ns1="http://www.serif.com/" ns1:id="BroVestBody" d="M577.045,461.46C581.642,462.181 586.291,463.027 591,464C852.869,518.109 765.359,910.515 738,974C691.287,1037.2 237.882,953.791 255,915C249.985,855.368 261.906,820.813 271.295,794.438C289.374,809.539 319.379,828.569 345,816C455.451,761.813 390.098,607.577 362,561C360.742,558.914 359.286,557.755 357.658,557.423C382.042,523.261 439.645,483.76 475.141,466.465C443.094,477.669 438.484,532.291 529,567C638.031,608.808 668.343,689.12 667,690L688,688C694.208,683.09 692.54,570.506 684,532C676.836,499.701 634.815,471.462 577.045,461.46Z" style="fill:rgb(0,47,98);stroke:black;stroke-width:6px;"/>
            <path d="M266,906C250.194,914.024 489.324,976.896 654,977" style="fill:none;stroke:black;stroke-width:6px;"/>
            <g transform="matrix(1,0,0,1,82,0)">
                <path d="M602,679L605,700L587,701L582,680C601.065,782.497 602.609,899.197 586,996L601,997C619.882,893.814 615.298,777.186 602,679Z" style="fill:rgb(0,47,98);stroke:black;stroke-width:6px;"/>
            </g>
            <g transform="matrix(0.968235,0.250044,-0.250044,0.968235,283.866,-137.389)">
                <rect x="579" y="701" width="20" height="39" style="fill:rgb(0,47,98);stroke:black;stroke-width:6px;"/>
            </g>
            <path d="M745,958C745,958 732.558,971.879 695,974" style="fill:none;stroke:black;stroke-width:6px;"/>
            <g transform="matrix(0.986021,0.166623,-0.166623,0.986021,178.772,-107.626)">
                <path d="M659,665L674,662C688.092,700.23 694.582,763.826 696,806L683,805C682.623,765.526 674.461,703.536 659,665Z" style="fill:none;stroke:black;stroke-width:6px;"/>
            </g>
            <g transform="matrix(0.954729,0.297477,-0.297477,0.954729,318.099,-37.1491)">
                <path d="M659,665L674,662C688.092,700.23 694.582,763.826 696,806L683,805C682.623,765.526 674.461,703.536 659,665Z" style="fill:none;stroke:black;stroke-width:6px;"/>
            </g>
            <g transform="matrix(0.954729,0.297477,-0.297477,0.954729,100.099,-32.1491)">
                <path d="M659,665L674,662C688.092,700.23 694.582,763.826 696,806L683,805C682.623,765.526 674.461,703.536 659,665Z" style="fill:none;stroke:black;stroke-width:6px;"/>
            </g>
            <g transform="matrix(0.839615,-0.0959406,0.113529,0.993535,181.169,143.555)">
                <rect x="579" y="701" width="20" height="39" style="fill:rgb(0,47,98);stroke:black;stroke-width:6.48px;"/>
            </g>
            <g transform="matrix(0.844963,-0.0139814,0.0165445,0.999863,29.8964,79.721)">
                <rect x="579" y="701" width="20" height="39" style="fill:rgb(0,47,98);stroke:black;stroke-width:6.48px;"/>
            </g>
        </g>
<g xmlns="http://www.w3.org/2000/svg" id="ArmFront">
            <path id="ArmFront1" xmlns:ns1="http://www.serif.com/" ns1:id="ArmFront" d="M277,971C276.25,976.538 135.071,960.946 87,885C146.865,697.439 280.075,482.055 442,476C618.289,469.408 428.393,528.72 277,971" style="fill:rgb(191,182,182);stroke:black;stroke-width:6px;"/>
            <path id="ArmFront2" xmlns:ns2="http://www.serif.com/" ns2:id="ArmFront" d="M114,914C114,914 173.423,872.935 169,947C181.238,934.736 224.372,904.658 225,966C236.974,944.068 264.146,935.521 275,971" style="fill:none;stroke:black;stroke-width:6px;"/>
        </g>
<path xmlns="http://www.w3.org/2000/svg" id="T-ShirtBackFront" d="M451,463C615.791,440.597 420.162,697.407 400,721C399.25,726.538 247.071,703.946 199,628C260.865,521.439 370.181,473.987 451,463Z" style="fill:rgb(41,41,45);stroke:black;stroke-width:6px;"/>
<g xmlns="http://www.w3.org/2000/svg" id="BroVestFront">
            <path d="M467.606,469.748C439.191,482.15 413.839,505.573 453,543C499.26,587.212 508.095,595.678 519.459,598.573C474.071,673.886 403.58,748.011 412,711C427.062,644.79 321,509 321,509C321,509 387.056,475.029 467.606,469.748Z" style="fill:rgb(0,47,98);"/>
            <path d="M412,711C427.062,644.79 320,510 320,510C323.585,503.103 403.143,471.973 472,467" style="fill:none;stroke:black;stroke-width:6px;"/>
            <path d="M630,469C630,469 693.362,465.441 739,521C728.394,568.881 745.094,579.197 762,635" style="fill:rgb(0,47,98);stroke:black;stroke-width:6px;"/>
            <path id="BroVestFront1" xmlns:ns1="http://www.serif.com/" ns1:id="BroVestFront" d="M666,686C661.86,663.814 646.834,637.867 618,615C600.265,600.936 527.366,582.851 489.564,552.231C458.188,526.817 426.718,501.806 454,482C519.572,434.396 614.046,455.042 638.729,487.672C685.313,547.723 676.002,593.144 685,683C695.26,666.679 695.745,587.032 757,561C750.469,494.736 696.689,438.656 660.755,415.913C624.822,393.17 433.068,383.175 394,416C350.219,461.611 477.73,566.149 499,618C536.31,618.99 638.388,662.684 666,686Z" style="fill:rgb(0,47,98);stroke:black;stroke-width:6px;"/>
        </g>
<path xmlns="http://www.w3.org/2000/svg" id="EarBack" d="M461,208C469.489,213.447 444.099,117.679 324,166C203.102,214.642 266.653,366.862 285,406C307.318,453.61 303.917,478.338 331,508C340.189,518.064 390.22,560.331 436,469C481.78,377.669 461,208 461,208Z" style="fill:rgb(191,182,182);stroke:black;stroke-width:6px;"/>
<path xmlns="http://www.w3.org/2000/svg" d="M708,191C713.558,200.103 566.883,67.298 440,176C295.261,300 367.03,482.439 356,511C360.656,559.377 318.083,635.972 291,660C263.917,684.028 112.099,751.388 115,774C117.901,796.612 171.719,788.217 191,797C210.281,805.783 223.052,815.107 248,803C272.948,790.893 357.205,763.369 408,746C471.521,724.279 538.868,643.419 552,615C588.787,613.299 697.177,539.696 742,445C765.015,396.376 762.745,383.175 752,307C741.255,230.825 708,191 708,191ZM587,537L552,615" style="fill:rgb(191,182,182);stroke:black;stroke-width:6px;"/>
<g xmlns="http://www.w3.org/2000/svg" id="EarFront">
            <path d="M638,235C638,235 672.892,141.658 769,144C823.595,145.331 856.196,197.106 868,228C884.939,272.334 876.556,352.438 808,419C795.747,430.897 775.388,455.324 762,481C743.427,516.618 737.464,535.178 700,546C676.209,552.872 655.22,546.317 642,537C706.159,364.39 638,235 638,235Z" style="fill:rgb(191,182,182);"/>
            <path d="M637,238C649.778,177.606 737.356,121.138 806.311,153.581C879.735,188.128 884.362,280.326 869,326C851.671,377.522 814.676,416.318 801,428C776.728,448.733 753.023,507.635 736,527C714.115,551.895 667.42,558.032 642,536" style="fill:none;stroke:black;stroke-width:6px;"/>
        </g>
<path xmlns="http://www.w3.org/2000/svg" id="YoungEyes" d="M562.256,393.084C565.064,393.422 566.781,398.365 566.088,404.114C565.395,409.863 562.552,414.255 559.744,413.916C556.936,413.578 555.219,408.635 555.912,402.886C556.605,397.137 559.448,392.745 562.256,393.084ZM396.256,382.084C399.064,382.422 400.781,387.365 400.088,393.114C399.395,398.863 396.552,403.255 393.744,402.916C390.936,402.578 389.219,397.635 389.912,391.886C390.605,386.137 393.448,381.745 396.256,382.084Z" style="stroke:black;stroke-width:6px;"/>
<g xmlns="http://www.w3.org/2000/svg" id="AviatorGlasses">
            <path d="M636,243C611.512,290.971 575.006,391.201 575,392M363,273L275,387M409,391C409,391 427.454,383.792 436,393M469,360C441.147,365.028 406.605,365.574 377,360" style="fill:none;stroke:black;stroke-width:6px;"/>
            <path d="M435,381C437.035,360.871 519.21,350.969 561,375C573.117,381.968 575.507,395.403 577.072,405.619C580.849,430.265 577.443,446.529 562,465C537.111,494.768 429.723,433.202 435,381ZM283,369C296.882,354.606 378.634,350.771 401,375C423.366,399.229 396.278,459.269 346,469C289.186,479.996 262.527,390.229 283,369Z" style="fill:url(#285856817539737);stroke:black;stroke-width:6px;"/>
        </g><defs xmlns="http://www.w3.org/2000/svg">
        <radialGradient id="285856817539737" cx="0" cy="0" r="1" gradientUnits="userSpaceOnUse" gradientTransform="matrix(162.604,2.62265,-2.62265,162.604,426,383)"><stop offset="0" style="stop-color:rgb(166,166,166);stop-opacity:1"/><stop offset="1" style="stop-color:black;stop-opacity:1"/></radialGradient>
    </defs></svg>