<?xml version="1.0" encoding="UTF-8" standalone="no"?>
<!DOCTYPE svg PUBLIC "-//W3C//DTD SVG 1.1//EN" "http://www.w3.org/Graphics/SVG/1.1/DTD/svg11.dtd">
<svg width="100%" height="100%" viewBox="0 0 1000 1000" xmlns="http://www.w3.org/2000/svg" xmlns:xlink="http://www.w3.org/1999/xlink" xml:space="preserve" xmlns:serif="http://www.serif.com/" style="fill-rule:evenodd;clip-rule:evenodd;stroke-linecap:round;stroke-linejoin:round;stroke-miterlimit:1.5;">
<rect xmlns="http://www.w3.org/2000/svg" x="0" y="-2" width="1003" height="1043" style="fill:url(#7851270172534453);"/><defs xmlns="http://www.w3.org/2000/svg">
        <linearGradient id="7851270172534453" x1="0" y1="0" x2="1" y2="0" gradientUnits="userSpaceOnUse" gradientTransform="matrix(530,1031.61,-999.972,551.137,458,-3.03575)"><stop offset="0" style="stop-color:rgb(46,50,64);stop-opacity:1"/><stop offset="1" style="stop-color:rgb(31,32,53);stop-opacity:1"/></linearGradient>
    </defs>
<g xmlns="http://www.w3.org/2000/svg" id="ArmBack">
        <path id="ArmBack1" xmlns:ns1="http://www.serif.com/" ns1:id="ArmBack" d="M848,944C847.227,943.883 914.358,930.329 961,780C894.839,745.966 758.742,556.508 715,504C676.846,458.2 574.99,496.288 557,523C664.677,607.222 684.341,829.427 848,944Z" style="fill:rgb(191,182,182);stroke:black;stroke-width:6px;"/>
        <path id="ArmBack2" xmlns:ns2="http://www.serif.com/" ns2:id="ArmBack" d="M909,892C919.698,891.865 877.217,830.117 941,833C927.395,827.745 902.151,789.674 956,779" style="fill:rgb(191,182,182);stroke:black;stroke-width:6px;"/>
    </g>
<path xmlns="http://www.w3.org/2000/svg" id="T-ShirtBack" d="M830,631C830,631 771.163,791.382 711,809C664.868,751.493 537.345,606.825 545,566C552.655,525.175 635.932,428.33 706,494C772.28,556.119 819.54,639.193 830,631Z" style="fill:rgb(41,41,45);stroke:black;stroke-width:6px;"/>
<g xmlns="http://www.w3.org/2000/svg" id="HoodieArmBack">
        <path d="M812,918C857.94,883.691 902.561,828.771 931,754L902,726C866.403,797.723 821.535,856.955 776,881L812,918Z" style="fill:rgb(216,216,216);stroke:black;stroke-width:6px;"/>
        <path d="M847,656L799,600C799,600 795.425,556.926 774,546C752.575,535.074 673,492 673,492C673,492 616.421,692.997 693,787C735.262,838.879 752.901,868.43 771,881C797.227,899.214 910.84,754.226 903,716C890.028,694.436 878.914,664.518 847,656Z" style="fill:rgb(216,216,216);stroke:black;stroke-width:6px;"/>
        <path d="M781,630C781,630 815.304,652.285 847.794,655.794" style="fill:none;stroke:black;stroke-width:6px;"/>
    </g>
<path xmlns="http://www.w3.org/2000/svg" id="Body" d="M729,999C756.359,935.515 852.869,518.109 591,464C315.846,407.146 245.065,785.723 263,999C280.896,1000.61 729,999 729,999Z" style="fill:rgb(191,182,182);stroke:black;stroke-width:6px;"/>
<path xmlns="http://www.w3.org/2000/svg" id="Pants" d="M744,940L728,1006L265,1004C259.724,963.607 259.985,900.414 264,857C465.432,948.045 633.709,983.196 744,940Z" style="fill:rgb(17,26,75);stroke:black;stroke-width:6px;"/>
<g xmlns="http://www.w3.org/2000/svg" id="Belt">
        <path id="Belt1" xmlns:ns1="http://www.serif.com/" ns1:id="Belt" d="M743,939L731,984C732.427,984.008 524.877,1057.15 265,887C261.716,882.839 263.106,850.285 265,845C534.962,971.128 673.132,972.378 743,939Z" style="fill:rgb(62,35,11);stroke:black;stroke-width:6px;"/>
        <path id="Buckle" d="M602,956L599,998C630.514,999.262 663.568,998.757 701,992L702,954C671.328,958.771 635.784,960.791 602,956Z" style="fill:rgb(229,145,0);stroke:black;stroke-width:6px;"/>
    </g>
<g xmlns="http://www.w3.org/2000/svg" id="T-ShirtBody">
            <path d="M661,492C661,492 738.33,546.524 639,585C539.67,623.476 427.903,568.394 424,533C420.097,497.606 448.726,471.019 479,467C509.274,462.981 273.017,461.179 259,908C449.283,1029.75 686.101,997.217 735,984C792.24,818.508 790.517,552.53 661,492Z" style="fill:rgb(41,41,45);stroke:black;stroke-width:6px;"/>
            <path d="M400,508C386.479,527.904 397.322,624.625 576,625C692.969,625.245 723.934,566.023 712,537" style="fill:none;stroke:black;stroke-width:6px;"/>
        </g>
<g xmlns="http://www.w3.org/2000/svg" id="Arweave-Logo" xmlns:ns1="http://www.serif.com/" ns1:id="Arweave Logo" transform="matrix(0.916215,-0.0598462,0.0651801,0.997874,-0.181473,39.1575)">
            <g transform="matrix(4.16667,0,0,4.16667,560,667)">
                <circle cx="16.376" cy="15.992" r="14.664" style="fill:none;stroke:rgb(200,205,219);stroke-width:2.5px;"/>
            </g>
            <g transform="matrix(4.16667,0,0,4.16667,560,667)">
                <path d="M19.114,21.291C19.042,21.148 18.982,20.985 18.932,20.799C18.882,20.614 18.84,20.419 18.804,20.212C18.64,20.39 18.451,20.557 18.238,20.714C18.024,20.871 17.786,21.01 17.522,21.131C17.266,21.244 16.981,21.334 16.668,21.398C16.354,21.469 16.016,21.505 15.653,21.505C15.062,21.505 14.517,21.419 14.019,21.248C13.527,21.077 13.104,20.839 12.748,20.533C12.392,20.226 12.114,19.863 11.914,19.443C11.715,19.016 11.615,18.553 11.615,18.054C11.615,16.837 12.068,15.897 12.972,15.235C13.883,14.565 15.24,14.23 17.042,14.23L18.697,14.23L18.697,13.547C18.697,12.991 18.516,12.554 18.152,12.233C17.789,11.906 17.266,11.742 16.582,11.742C15.977,11.742 15.535,11.874 15.258,12.137C14.98,12.393 14.841,12.739 14.841,13.173L11.872,13.173C11.872,12.682 11.979,12.215 12.192,11.774C12.413,11.332 12.73,10.944 13.143,10.61C13.563,10.275 14.072,10.011 14.67,9.819C15.275,9.62 15.966,9.52 16.742,9.52C17.44,9.52 18.088,9.605 18.686,9.776C19.292,9.947 19.815,10.2 20.257,10.535C20.698,10.869 21.043,11.293 21.293,11.806C21.542,12.311 21.667,12.899 21.667,13.568L21.667,18.524C21.667,19.144 21.706,19.657 21.784,20.063C21.862,20.468 21.976,20.817 22.126,21.109L22.126,21.291L19.114,21.291ZM16.283,19.208C16.582,19.208 16.86,19.172 17.116,19.101C17.373,19.03 17.604,18.937 17.811,18.823C18.017,18.709 18.195,18.581 18.345,18.439C18.494,18.289 18.612,18.14 18.697,17.99L18.697,16.004L17.18,16.004C16.718,16.004 16.322,16.05 15.995,16.142C15.667,16.228 15.4,16.352 15.194,16.516C14.987,16.673 14.834,16.865 14.734,17.093C14.635,17.314 14.585,17.556 14.585,17.819C14.585,18.218 14.724,18.549 15.001,18.813C15.286,19.076 15.713,19.208 16.283,19.208Z" style="fill:rgb(210,213,223);fill-rule:nonzero;"/>
            </g>
        </g>
<g xmlns="http://www.w3.org/2000/svg" id="HoodieWhiteBody">
            <path id="HoodieWhiteBody1" xmlns:ns1="http://www.serif.com/" ns1:id="HoodieWhiteBody" d="M746,961C761.359,893.515 852.869,518.109 591,464C315.846,407.146 238.065,700.723 256,914C186.718,969.397 615.456,1040.65 746,961Z" style="fill:rgb(216,216,216);stroke:black;stroke-width:6px;"/>
            <path id="HoodiePocket" d="M764.543,915.691C758.522,906.436 743.599,911.849 745,799C690.13,847.757 634.452,866.465 458,839C439.73,882.935 436.989,921.38 372,931C368.386,950.319 358.431,966.225 353,977C471.484,1018.57 666.969,1021.31 751,959C751,959 763.217,942.891 764.543,915.691Z" style="fill:rgb(216,216,216);stroke:black;stroke-width:6px;"/>
        </g>
<g xmlns="http://www.w3.org/2000/svg" id="EthereumLogo" transform="matrix(0.277128,-0.0236425,0.0236425,0.277128,466.126,590.296)">
            <path d="M475,908L476,752L665,640L475,908Z" style="fill:rgb(202,179,245);"/>
            <path d="M287,641L475,907L479.582,752.306L287,641Z" style="fill:rgb(240,205,194);"/>
            <path d="M475,286L475,517L666,604L475,286Z" style="fill:rgb(184,251,245);"/>
            <path d="M288.582,605.306L478.582,288.306L478.888,515.723L288.582,605.306Z" style="fill:rgb(240,205,194);"/>
            <path d="M474,716L664.306,599.418L475.306,513.418L474,716Z" style="fill:rgb(202,179,245);"/>
            <path d="M285,604L479.194,512.141L477.582,715.306L285,604Z" style="fill:rgb(138,170,241);"/>
        </g>
<g xmlns="http://www.w3.org/2000/svg" id="ArmFront">
            <path id="ArmFront1" xmlns:ns1="http://www.serif.com/" ns1:id="ArmFront" d="M277,971C276.25,976.538 135.071,960.946 87,885C146.865,697.439 280.075,482.055 442,476C618.289,469.408 428.393,528.72 277,971" style="fill:rgb(191,182,182);stroke:black;stroke-width:6px;"/>
            <path id="ArmFront2" xmlns:ns2="http://www.serif.com/" ns2:id="ArmFront" d="M114,914C114,914 173.423,872.935 169,947C181.238,934.736 224.372,904.658 225,966C236.974,944.068 264.146,935.521 275,971" style="fill:none;stroke:black;stroke-width:6px;"/>
        </g>
<path xmlns="http://www.w3.org/2000/svg" id="T-ShirtBackFront" d="M451,463C615.791,440.597 420.162,697.407 400,721C399.25,726.538 247.071,703.946 199,628C260.865,521.439 370.181,473.987 451,463Z" style="fill:rgb(41,41,45);stroke:black;stroke-width:6px;"/>
<g xmlns="http://www.w3.org/2000/svg" id="HoodieFront">
            <g id="HoodieWhiteFront">
                <path id="HoodieWhiteFront1" xmlns:ns1="http://www.serif.com/" ns1:id="HoodieWhiteFront" d="M330,539C309.879,551.865 289.392,561.239 268,562M300,921C256.316,932.303 183.789,888.725 110,809L125,776C178.24,836.569 240.371,889.082 306,896L300,921ZM313,521L268,562C235.075,562.37 198.762,617.973 194,641C189.238,664.027 135.409,682.933 138,709C140.591,735.067 99.737,741.676 128,780C155.927,817.868 278.968,917.473 318,891C327.878,884.3 340.124,871.393 319.252,846.485C353.685,853.503 452.055,571.241 440,593L435,628C486.453,602.413 515.174,454.002 407,478C341.837,492.456 313,521 313,521Z" style="fill:rgb(216,216,216);stroke:black;stroke-width:6px;"/>
                <path d="M215,755C229.794,797.409 256.384,819.315 301,841" style="fill:none;stroke:black;stroke-width:6px;"/>
            </g>
            <g id="HoodieHood">
                <path id="HoodieHood1" xmlns:ns2="http://www.serif.com/" ns2:id="HoodieHood" d="M600,638C609.283,634.491 562.603,568.758 510,531C461.677,496.314 446,442 446,442C446,442 607.956,453.701 628,438C648.044,422.299 641.258,530.945 640,546C638.742,561.055 599,638 599,638C633.944,636.041 731.919,573.322 738,568C757.331,551.082 705.544,489.63 705.544,489.63C693.677,479.508 678,484 678,484C666.326,477.461 647.061,421.879 631,422C603,422.211 528.482,430.716 488,421C447.518,411.284 411.17,393.315 400,414C388.83,434.685 394,428 394,428C394,428 380.461,417.763 367,433C353.539,448.237 297.816,491.448 308.63,523.185C333.45,494.735 432.549,531.361 495,586C520.063,607.928 600,638 600,638ZM678,484C683.645,484.929 638.442,550.256 636,559M386,452L394,429M439,515L370.011,456.011L439,515Z" style="fill:rgb(216,216,216);"/>
                <clipPath id="_clip1">
                    <path id="HoodieHood2" xmlns:ns3="http://www.serif.com/" ns3:id="HoodieHood" d="M600,638C609.283,634.491 562.603,568.758 510,531C461.677,496.314 446,442 446,442C446,442 607.956,453.701 628,438C648.044,422.299 641.258,530.945 640,546C638.742,561.055 599,638 599,638C633.944,636.041 731.919,573.322 738,568C757.331,551.082 705.544,489.63 705.544,489.63C693.677,479.508 678,484 678,484C666.326,477.461 647.061,421.879 631,422C603,422.211 528.482,430.716 488,421C447.518,411.284 411.17,393.315 400,414C388.83,434.685 394,428 394,428C394,428 380.461,417.763 367,433C353.539,448.237 297.816,491.448 308.63,523.185C333.45,494.735 432.549,531.361 495,586C520.063,607.928 600,638 600,638ZM678,484C683.645,484.929 638.442,550.256 636,559M386,452L394,429M439,515L370.011,456.011L439,515Z"/>
                </clipPath>
                <g clip-path="url(#_clip1)">
                    <g transform="matrix(1,0,0,1,0,-6)">
                        <circle cx="628.5" cy="618.5" r="9.5" style="fill:rgb(216,216,216);stroke:black;stroke-width:6px;"/>
                    </g>
                    <g transform="matrix(1,0,0,1,-59,-8)">
                        <circle cx="628.5" cy="618.5" r="9.5" style="fill:rgb(216,216,216);stroke:black;stroke-width:6px;"/>
                    </g>
                </g>
                <path id="HoodieHood3" xmlns:ns4="http://www.serif.com/" ns4:id="HoodieHood" d="M600,638C609.283,634.491 562.603,568.758 510,531C461.677,496.314 446,442 446,442C446,442 607.956,453.701 628,438C648.044,422.299 641.258,530.945 640,546C638.742,561.055 599,638 599,638C633.944,636.041 731.919,573.322 738,568C757.331,551.082 705.544,489.63 705.544,489.63C693.677,479.508 678,484 678,484C666.326,477.461 647.061,421.879 631,422C603,422.211 528.482,430.716 488,421C447.518,411.284 411.17,393.315 400,414C388.83,434.685 394,428 394,428C394,428 380.461,417.763 367,433C353.539,448.237 297.816,491.448 308.63,523.185C333.45,494.735 432.549,531.361 495,586C520.063,607.928 600,638 600,638ZM678,484C683.645,484.929 638.442,550.256 636,559M386,452L394,429M439,515L370.011,456.011L439,515Z" style="fill:none;stroke:black;stroke-width:6px;"/>
                <path d="M637,615C637,615 655.622,722.698 652,775L638,773C642.058,725.97 636.234,669.401 621,615C626.034,610.883 631.227,608.958 637,615Z" style="fill:rgb(216,216,216);stroke:black;stroke-width:6px;"/>
                <g transform="matrix(0.997895,0.0648512,-0.0648512,0.997895,-17.8942,-40.8247)">
                    <path d="M637,615C637,615 655.622,722.698 652,775L638,773C642.058,725.97 636.234,669.401 621,615C626.034,610.883 631.227,608.958 637,615Z" style="fill:rgb(216,216,216);stroke:black;stroke-width:6px;"/>
                </g>
                <g transform="matrix(1,0,0,1,1,-5)">
                    <path d="M646,803L652,775C645.999,781.146 641.221,778.965 637,773L633,798C635.575,805.081 639.704,807.374 646,803Z" style="fill:rgb(216,216,216);stroke:black;stroke-width:6px;"/>
                </g>
                <g transform="matrix(0.997895,0.0648512,-0.0648512,0.997895,-16.5721,-45.7493)">
                    <path d="M646,803L652,775C645.999,781.146 641.221,778.965 637,773L633,798C635.575,805.081 639.704,807.374 646,803Z" style="fill:rgb(216,216,216);stroke:black;stroke-width:6px;"/>
                </g>
            </g>
        </g>
<path xmlns="http://www.w3.org/2000/svg" id="EarBack" d="M461,208C469.489,213.447 444.099,117.679 324,166C203.102,214.642 266.653,366.862 285,406C307.318,453.61 303.917,478.338 331,508C340.189,518.064 390.22,560.331 436,469C481.78,377.669 461,208 461,208Z" style="fill:rgb(191,182,182);stroke:black;stroke-width:6px;"/>
<g xmlns="http://www.w3.org/2000/svg" id="HornBack">
            <path d="M339,533C368.71,533.881 379.253,545.993 392,563C369.839,604.937 353.91,617.187 338,623C322.09,628.813 292.167,610.667 309,580C320.025,568.94 331.827,548.655 339,533Z" style="fill:white;stroke:black;stroke-width:6px;"/>
            <path id="HornBack1" xmlns:ns1="http://www.serif.com/" ns1:id="HornBack" d="M339,533C339,533 340.061,461.908 373,465C405.939,468.092 414.855,490.278 415,501C415.219,517.257 405.424,539.78 391,566C387.452,555.752 372.517,536.888 339,533Z" style="fill:rgb(191,182,182);stroke:black;stroke-width:6px;"/>
        </g>
<path xmlns="http://www.w3.org/2000/svg" d="M708,191C713.558,200.103 566.883,67.298 440,176C295.261,300 367.03,482.439 356,511C360.656,559.377 318.083,635.972 291,660C263.917,684.028 112.099,751.388 115,774C117.901,796.612 171.719,788.217 191,797C210.281,805.783 223.052,815.107 248,803C272.948,790.893 357.205,763.369 408,746C471.521,724.279 538.868,643.419 552,615C588.787,613.299 697.177,539.696 742,445C765.015,396.376 762.745,383.175 752,307C741.255,230.825 708,191 708,191ZM587,537L552,615" style="fill:rgb(191,182,182);stroke:black;stroke-width:6px;"/>
<g xmlns="http://www.w3.org/2000/svg" id="HornFront">
            <path d="M512,629C526.681,615.19 548.051,596.082 562,575C562,575 630.026,587.74 600,628C562.399,678.416 485.502,653.926 512,629Z" style="fill:white;stroke:black;stroke-width:6px;"/>
            <path d="M575,556C613.393,461.56 658.288,504.218 677,540C655.202,570.254 629.229,599.968 598,629C596.491,590.655 583.537,575.608 563,576L575,556Z" style="fill:rgb(191,182,182);"/>
            <path d="M684,526C663.065,562.535 632.935,595.167 598,628C597.973,586.894 582.258,577.883 561,576L575,553" style="fill:none;stroke:black;stroke-width:6px;"/>
        </g>
<g xmlns="http://www.w3.org/2000/svg" id="EarFront">
            <path d="M638,235C638,235 672.892,141.658 769,144C823.595,145.331 856.196,197.106 868,228C884.939,272.334 876.556,352.438 808,419C795.747,430.897 775.388,455.324 762,481C743.427,516.618 737.464,535.178 700,546C676.209,552.872 655.22,546.317 642,537C706.159,364.39 638,235 638,235Z" style="fill:rgb(191,182,182);"/>
            <path d="M637,238C649.778,177.606 737.356,121.138 806.311,153.581C879.735,188.128 884.362,280.326 869,326C851.671,377.522 814.676,416.318 801,428C776.728,448.733 753.023,507.635 736,527C714.115,551.895 667.42,558.032 642,536" style="fill:none;stroke:black;stroke-width:6px;"/>
        </g>
<path xmlns="http://www.w3.org/2000/svg" id="YoungEyes" d="M562.256,393.084C565.064,393.422 566.781,398.365 566.088,404.114C565.395,409.863 562.552,414.255 559.744,413.916C556.936,413.578 555.219,408.635 555.912,402.886C556.605,397.137 559.448,392.745 562.256,393.084ZM396.256,382.084C399.064,382.422 400.781,387.365 400.088,393.114C399.395,398.863 396.552,403.255 393.744,402.916C390.936,402.578 389.219,397.635 389.912,391.886C390.605,386.137 393.448,381.745 396.256,382.084Z" style="stroke:black;stroke-width:6px;"/>
<g xmlns="http://www.w3.org/2000/svg" id="AviatorGlasses">
            <path d="M636,243C611.512,290.971 575.006,391.201 575,392M363,273L275,387M409,391C409,391 427.454,383.792 436,393M469,360C441.147,365.028 406.605,365.574 377,360" style="fill:none;stroke:black;stroke-width:6px;"/>
            <path d="M435,381C437.035,360.871 519.21,350.969 561,375C573.117,381.968 575.507,395.403 577.072,405.619C580.849,430.265 577.443,446.529 562,465C537.111,494.768 429.723,433.202 435,381ZM283,369C296.882,354.606 378.634,350.771 401,375C423.366,399.229 396.278,459.269 346,469C289.186,479.996 262.527,390.229 283,369Z" style="fill:url(#285856817539737);stroke:black;stroke-width:6px;"/>
        </g><defs xmlns="http://www.w3.org/2000/svg">
        <radialGradient id="285856817539737" cx="0" cy="0" r="1" gradientUnits="userSpaceOnUse" gradientTransform="matrix(162.604,2.62265,-2.62265,162.604,426,383)"><stop offset="0" style="stop-color:rgb(166,166,166);stop-opacity:1"/><stop offset="1" style="stop-color:black;stop-opacity:1"/></radialGradient>
    </defs></svg>