<?xml version="1.0" encoding="UTF-8" standalone="no"?>
<!DOCTYPE svg PUBLIC "-//W3C//DTD SVG 1.1//EN" "http://www.w3.org/Graphics/SVG/1.1/DTD/svg11.dtd">
<svg width="100%" height="100%" viewBox="0 0 1000 1000" xmlns="http://www.w3.org/2000/svg" xmlns:xlink="http://www.w3.org/1999/xlink" xml:space="preserve" xmlns:serif="http://www.serif.com/" style="fill-rule:evenodd;clip-rule:evenodd;stroke-linecap:round;stroke-linejoin:round;stroke-miterlimit:1.5;">
<rect xmlns="http://www.w3.org/2000/svg" x="0" y="-2" width="1003" height="1043" style="fill:url(#27791205763595);"/><defs xmlns="http://www.w3.org/2000/svg">
        <linearGradient id="27791205763595" x1="0" y1="0" x2="1" y2="0" gradientUnits="userSpaceOnUse" gradientTransform="matrix(554,1421.05,-1372,573.805,428,39.43)"><stop offset="0" style="stop-color:rgb(183,163,223);stop-opacity:1"/><stop offset="1" style="stop-color:rgb(110,70,189);stop-opacity:1"/></linearGradient>
    </defs>
<g xmlns="http://www.w3.org/2000/svg" id="ArmBack">
        <path id="ArmBack1" xmlns:ns1="http://www.serif.com/" ns1:id="ArmBack" d="M848,944C847.227,943.883 914.358,930.329 961,780C894.839,745.966 758.742,556.508 715,504C676.846,458.2 574.99,496.288 557,523C664.677,607.222 684.341,829.427 848,944Z" style="fill:rgb(191,182,182);stroke:black;stroke-width:6px;"/>
        <path id="ArmBack2" xmlns:ns2="http://www.serif.com/" ns2:id="ArmBack" d="M909,892C919.698,891.865 877.217,830.117 941,833C927.395,827.745 902.151,789.674 956,779" style="fill:rgb(191,182,182);stroke:black;stroke-width:6px;"/>
    </g>
<g xmlns="http://www.w3.org/2000/svg" id="ShirtBlueBack">
        <path d="M696,774L828.827,642.378C831.594,637.321 698.058,464.162 637,471C548.091,480.957 677.013,773.632 696,774Z" style="fill:rgb(153,197,235);stroke:black;stroke-width:6px;"/>
        <path d="M847,661C850.473,662.746 752.481,790.012 712,790C674.582,789.989 677,763 677,763C677,763 771.869,715.04 822.155,623.509C828.977,619.275 835.894,627.241 832.827,639.378C849.13,638.239 849.759,660.2 847,661Z" style="fill:rgb(153,197,235);stroke:black;stroke-width:6px;"/>
    </g>
<path xmlns="http://www.w3.org/2000/svg" id="Body" d="M729,999C756.359,935.515 852.869,518.109 591,464C315.846,407.146 245.065,785.723 263,999C280.896,1000.61 729,999 729,999Z" style="fill:rgb(191,182,182);stroke:black;stroke-width:6px;"/>
<path xmlns="http://www.w3.org/2000/svg" id="Pants" d="M744,940L728,1006L265,1004C259.724,963.607 259.985,900.414 264,857C465.432,948.045 633.709,983.196 744,940Z" style="fill:rgb(0,147,67);stroke:black;stroke-width:6px;"/>
<g xmlns="http://www.w3.org/2000/svg" id="Belt">
        <path id="Belt1" xmlns:ns1="http://www.serif.com/" ns1:id="Belt" d="M743,939L731,984C732.427,984.008 524.877,1057.15 265,887C261.716,882.839 263.106,850.285 265,845C534.962,971.128 673.132,972.378 743,939Z" style="fill:rgb(62,35,11);stroke:black;stroke-width:6px;"/>
        <path id="Buckle" d="M602,956L599,998C630.514,999.262 663.568,998.757 701,992L702,954C671.328,958.771 635.784,960.791 602,956Z" style="fill:rgb(229,145,0);stroke:black;stroke-width:6px;"/>
    </g>
<g xmlns="http://www.w3.org/2000/svg" id="ShirtBlueBody">
            <path id="ShirtBody" d="M746,934C762.648,873.204 838.394,515.775 591,464C347.577,413.056 295.426,637.784 267,830C241.428,883.695 674.44,1012.46 746,934Z" style="fill:rgb(153,197,235);stroke:black;stroke-width:6px;"/>
            <path id="Buttons" d="M667,860C672.519,860 677,864.481 677,870C677,875.519 672.519,880 667,880C661.481,880 657,875.519 657,870C657,864.481 661.481,860 667,860ZM668,788C673.519,788 678,792.481 678,798C678,803.519 673.519,808 668,808C662.481,808 658,803.519 658,798C658,792.481 662.481,788 668,788ZM665,715C670.519,715 675,719.481 675,725C675,730.519 670.519,735 665,735C659.481,735 655,730.519 655,725C655,719.481 659.481,715 665,715Z" style="stroke:black;stroke-width:6px;"/>
            <path id="Collar" d="M633,576C633,576 695.11,595.117 706,616C716.89,636.883 725.99,497.232 706,473C686.01,448.768 633,576 633,576Z" style="fill:rgb(153,197,235);stroke:black;stroke-width:6px;"/>
        </g>
<g xmlns="http://www.w3.org/2000/svg" id="Bowtie" transform="matrix(1,0,0,1,90,-5)">
            <path d="M640,648C651.249,641.059 660.547,618.838 650,580C645.051,561.775 596.846,567.896 593,579C590.852,585.2 577.639,626.687 597,639C616.361,651.313 632.167,652.833 640,648Z" style="fill:rgb(231,0,0);stroke:rgb(1,1,1);stroke-width:6px;"/>
            <path d="M558,640C564.564,643.797 582.109,650.993 598,641C615.296,630.123 603.308,585.931 594,579C586.246,573.226 555.189,571.132 550,586C545.412,599.145 541.615,630.523 558,640Z" style="fill:rgb(231,0,0);stroke:rgb(1,1,1);stroke-width:6px;"/>
            <path d="M503,647C531.681,653.802 555.848,644.968 560,636C564.152,627.032 562.663,588.519 554,579C544.802,568.893 514.102,560.057 498,572C483.748,582.571 489.741,643.855 503,647Z" style="fill:rgb(231,0,0);stroke:rgb(1,1,1);stroke-width:6px;"/>
        </g>
<g xmlns="http://www.w3.org/2000/svg" id="ArmFront">
            <path id="ArmFront1" xmlns:ns1="http://www.serif.com/" ns1:id="ArmFront" d="M277,971C276.25,976.538 135.071,960.946 87,885C146.865,697.439 280.075,482.055 442,476C618.289,469.408 428.393,528.72 277,971" style="fill:rgb(191,182,182);stroke:black;stroke-width:6px;"/>
            <path id="ArmFront2" xmlns:ns2="http://www.serif.com/" ns2:id="ArmFront" d="M114,914C114,914 173.423,872.935 169,947C181.238,934.736 224.372,904.658 225,966C236.974,944.068 264.146,935.521 275,971" style="fill:none;stroke:black;stroke-width:6px;"/>
        </g>
<g xmlns="http://www.w3.org/2000/svg" id="ShirtBlueFront">
            <path d="M174,691C174,691 300.445,463.058 431,488C547.05,510.171 339.55,774.311 352,785C366.541,797.484 165.754,708.896 174,691Z" style="fill:rgb(153,197,235);stroke:black;stroke-width:6px;"/>
            <path d="M151,720C151,720 237.235,793.145 352,811C357.446,807.61 364.154,801.735 362,790C362.96,790.317 373.477,774.715 374,765C299.75,753.641 231.323,722.72 171,671C171,671 158.556,685.88 162,695C150.815,699.721 146.044,707.524 151,720Z" style="fill:rgb(153,197,235);stroke:black;stroke-width:6px;"/>
        </g>
<path xmlns="http://www.w3.org/2000/svg" id="EarBack" d="M461,208C469.489,213.447 444.099,117.679 324,166C203.102,214.642 266.653,366.862 285,406C307.318,453.61 303.917,478.338 331,508C340.189,518.064 390.22,560.331 436,469C481.78,377.669 461,208 461,208Z" style="fill:rgb(191,182,182);stroke:black;stroke-width:6px;"/>
<g xmlns="http://www.w3.org/2000/svg" id="Horn2Back">
            <path d="M348,540C377.71,540.881 388.253,552.993 401,570C328.402,704.31 143.26,687.361 153,673C159.104,664 251.29,638.29 305,588C319.175,574.727 340.827,555.655 348,540Z" style="fill:white;stroke:black;stroke-width:6px;"/>
            <path id="HornBack" d="M341,548C337.811,555.797 337.062,557.463 336.347,542.598C335.892,533.125 344.66,525.342 356.78,514.52C384.034,490.186 385.83,444.275 399,488C408.542,519.678 423.855,497.278 424,508C424.219,524.257 413.424,550.78 399,577C403.758,557.309 347.459,532.204 341,548Z" style="fill:rgb(191,182,182);stroke:black;stroke-width:6px;"/>
        </g>
<path xmlns="http://www.w3.org/2000/svg" d="M708,191C713.558,200.103 566.883,67.298 440,176C295.261,300 367.03,482.439 356,511C360.656,559.377 318.083,635.972 291,660C263.917,684.028 112.099,751.388 115,774C117.901,796.612 171.719,788.217 191,797C210.281,805.783 223.052,815.107 248,803C272.948,790.893 357.205,763.369 408,746C471.521,724.279 538.868,643.419 552,615C588.787,613.299 697.177,539.696 742,445C765.015,396.376 762.745,383.175 752,307C741.255,230.825 708,191 708,191ZM587,537L552,615" style="fill:rgb(191,182,182);stroke:black;stroke-width:6px;"/>
<g xmlns="http://www.w3.org/2000/svg" id="Horn2Front">
            <path d="M358,706C438.747,667.931 516.094,618.54 524,583C529.108,560.038 614.873,556.336 601,624C442.683,758.531 325.094,721.514 358,706Z" style="fill:white;stroke:black;stroke-width:6px;"/>
            <path d="M530,535C549.324,519.09 663.592,444.541 675,539C659.872,559.996 644.859,581.684 624.777,601.936C622.121,622.271 609.026,633.807 595,633C603.125,570.13 550.938,556.222 522,578C519.02,564.08 522.272,549.704 530,535Z" style="fill:rgb(191,182,182);"/>
            <path d="M684,526C669.527,551.472 652.887,574.959 627.956,601.072C623.647,620.524 607.859,633.661 595,636C609.349,570.586 555.076,556.668 524,577C517.399,564.511 520.587,550.302 530,535" style="fill:none;stroke:black;stroke-width:6px;"/>
            <path d="M617,556C644.411,586.372 621.499,638.566 590,636" style="fill:none;stroke:black;stroke-width:6px;"/>
        </g>
<g xmlns="http://www.w3.org/2000/svg" id="EarFront">
            <path d="M638,235C638,235 672.892,141.658 769,144C823.595,145.331 856.196,197.106 868,228C884.939,272.334 876.556,352.438 808,419C795.747,430.897 775.388,455.324 762,481C743.427,516.618 737.464,535.178 700,546C676.209,552.872 655.22,546.317 642,537C706.159,364.39 638,235 638,235Z" style="fill:rgb(191,182,182);"/>
            <path d="M637,238C649.778,177.606 737.356,121.138 806.311,153.581C879.735,188.128 884.362,280.326 869,326C851.671,377.522 814.676,416.318 801,428C776.728,448.733 753.023,507.635 736,527C714.115,551.895 667.42,558.032 642,536" style="fill:none;stroke:black;stroke-width:6px;"/>
        </g>
<path xmlns="http://www.w3.org/2000/svg" id="YoungEyes" d="M562.256,393.084C565.064,393.422 566.781,398.365 566.088,404.114C565.395,409.863 562.552,414.255 559.744,413.916C556.936,413.578 555.219,408.635 555.912,402.886C556.605,397.137 559.448,392.745 562.256,393.084ZM396.256,382.084C399.064,382.422 400.781,387.365 400.088,393.114C399.395,398.863 396.552,403.255 393.744,402.916C390.936,402.578 389.219,397.635 389.912,391.886C390.605,386.137 393.448,381.745 396.256,382.084Z" style="stroke:black;stroke-width:6px;"/>
<g xmlns="http://www.w3.org/2000/svg" id="AviatorGlasses">
            <path d="M636,243C611.512,290.971 575.006,391.201 575,392M363,273L275,387M409,391C409,391 427.454,383.792 436,393M469,360C441.147,365.028 406.605,365.574 377,360" style="fill:none;stroke:black;stroke-width:6px;"/>
            <path d="M435,381C437.035,360.871 519.21,350.969 561,375C573.117,381.968 575.507,395.403 577.072,405.619C580.849,430.265 577.443,446.529 562,465C537.111,494.768 429.723,433.202 435,381ZM283,369C296.882,354.606 378.634,350.771 401,375C423.366,399.229 396.278,459.269 346,469C289.186,479.996 262.527,390.229 283,369Z" style="fill:url(#285856817539737);stroke:black;stroke-width:6px;"/>
        </g><defs xmlns="http://www.w3.org/2000/svg">
        <radialGradient id="285856817539737" cx="0" cy="0" r="1" gradientUnits="userSpaceOnUse" gradientTransform="matrix(162.604,2.62265,-2.62265,162.604,426,383)"><stop offset="0" style="stop-color:rgb(166,166,166);stop-opacity:1"/><stop offset="1" style="stop-color:black;stop-opacity:1"/></radialGradient>
    </defs></svg>