<?xml version="1.0" encoding="UTF-8" standalone="no"?>
<!DOCTYPE svg PUBLIC "-//W3C//DTD SVG 1.1//EN" "http://www.w3.org/Graphics/SVG/1.1/DTD/svg11.dtd">
<svg width="100%" height="100%" viewBox="0 0 1000 1000" xmlns="http://www.w3.org/2000/svg" xmlns:xlink="http://www.w3.org/1999/xlink" xml:space="preserve" xmlns:serif="http://www.serif.com/" style="fill-rule:evenodd;clip-rule:evenodd;stroke-linecap:round;stroke-linejoin:round;stroke-miterlimit:1.5;">
<rect xmlns="http://www.w3.org/2000/svg" x="0" y="-2" width="1003" height="1043" style="fill:url(#4667997129439887);"/><defs xmlns="http://www.w3.org/2000/svg">
        <linearGradient id="4667997129439887" x1="0" y1="0" x2="1" y2="0" gradientUnits="userSpaceOnUse" gradientTransform="matrix(478,1293.65,-1249,495.088,496,133.683)"><stop offset="0" style="stop-color:rgb(235,185,178);stop-opacity:1"/><stop offset="1" style="stop-color:rgb(205,92,78);stop-opacity:1"/></linearGradient>
    </defs>
<g xmlns="http://www.w3.org/2000/svg" id="ArmBack">
        <path id="ArmBack1" xmlns:ns1="http://www.serif.com/" ns1:id="ArmBack" d="M848,944C847.227,943.883 914.358,930.329 961,780C894.839,745.966 758.742,556.508 715,504C676.846,458.2 574.99,496.288 557,523C664.677,607.222 684.341,829.427 848,944Z" style="fill:rgb(191,182,182);stroke:black;stroke-width:6px;"/>
        <path id="ArmBack2" xmlns:ns2="http://www.serif.com/" ns2:id="ArmBack" d="M909,892C919.698,891.865 877.217,830.117 941,833C927.395,827.745 902.151,789.674 956,779" style="fill:rgb(191,182,182);stroke:black;stroke-width:6px;"/>
    </g>
<g xmlns="http://www.w3.org/2000/svg" id="ShirtWhiteBack">
        <path id="ShirtWhiteBack1" xmlns:ns1="http://www.serif.com/" ns1:id="ShirtWhiteBack" d="M776,881C775.227,880.883 847.358,863.329 894,713C842.839,654.966 759.832,555.58 715,504C669.429,451.57 572.171,493.767 557,523C664.677,607.222 612.341,766.427 776,881Z" style="fill:rgb(230,230,230);stroke:black;stroke-width:6px;"/>
        <path d="M929,751C898.42,825.34 861.47,884.613 814,919L772,879C819.65,834.427 860.169,778.198 890,707L929,751Z" style="fill:rgb(230,230,230);stroke:black;stroke-width:6px;"/>
    </g>
<path xmlns="http://www.w3.org/2000/svg" id="Body" d="M729,999C756.359,935.515 852.869,518.109 591,464C315.846,407.146 245.065,785.723 263,999C280.896,1000.61 729,999 729,999Z" style="fill:rgb(191,182,182);stroke:black;stroke-width:6px;"/>
<path xmlns="http://www.w3.org/2000/svg" id="Pants" d="M744,940L728,1006L265,1004C259.724,963.607 259.985,900.414 264,857C465.432,948.045 633.709,983.196 744,940Z" style="fill:rgb(17,26,75);stroke:black;stroke-width:6px;"/>
<g xmlns="http://www.w3.org/2000/svg" id="Belt">
        <path id="Belt1" xmlns:ns1="http://www.serif.com/" ns1:id="Belt" d="M743,939L731,984C732.427,984.008 524.877,1057.15 265,887C261.716,882.839 263.106,850.285 265,845C534.962,971.128 673.132,972.378 743,939Z" style="fill:rgb(62,35,11);stroke:black;stroke-width:6px;"/>
        <path id="Buckle" d="M602,956L599,998C630.514,999.262 663.568,998.757 701,992L702,954C671.328,958.771 635.784,960.791 602,956Z" style="fill:rgb(229,145,0);stroke:black;stroke-width:6px;"/>
    </g>
<g xmlns="http://www.w3.org/2000/svg" id="WhiteShirtBody">
            <path id="WhiteShirtBody1" xmlns:ns1="http://www.serif.com/" ns1:id="WhiteShirtBody" d="M652,489C652,489 738.33,546.524 639,585C539.67,623.476 427.903,568.394 424,533C420.097,497.606 448.726,471.019 479,467C509.274,462.981 290.017,437.179 260,840C451.283,973.75 691.101,988.217 745,940C788.24,768.508 781.517,549.53 652,489Z" style="fill:rgb(230,230,230);stroke:black;stroke-width:6px;"/>
            <path id="Buttons" d="M667,860C672.519,860 677,864.481 677,870C677,875.519 672.519,880 667,880C661.481,880 657,875.519 657,870C657,864.481 661.481,860 667,860ZM668,788C673.519,788 678,792.481 678,798C678,803.519 673.519,808 668,808C662.481,808 658,803.519 658,798C658,792.481 662.481,788 668,788ZM665,715C670.519,715 675,719.481 675,725C675,730.519 670.519,735 665,735C659.481,735 655,730.519 655,725C655,719.481 659.481,715 665,715Z" style="stroke:black;stroke-width:6px;"/>
            <path id="Collar" d="M633,576C633,576 695.11,595.117 706,616C716.89,636.883 725.99,497.232 706,473C686.01,448.768 633,576 633,576Z" style="fill:rgb(230,230,230);stroke:black;stroke-width:6px;"/>
        </g>
<g xmlns="http://www.w3.org/2000/svg" id="Bowtie" transform="matrix(1,0,0,1,90,-5)">
            <path d="M640,648C651.249,641.059 660.547,618.838 650,580C645.051,561.775 596.846,567.896 593,579C590.852,585.2 577.639,626.687 597,639C616.361,651.313 632.167,652.833 640,648Z" style="fill:rgb(231,0,0);stroke:rgb(1,1,1);stroke-width:6px;"/>
            <path d="M558,640C564.564,643.797 582.109,650.993 598,641C615.296,630.123 603.308,585.931 594,579C586.246,573.226 555.189,571.132 550,586C545.412,599.145 541.615,630.523 558,640Z" style="fill:rgb(231,0,0);stroke:rgb(1,1,1);stroke-width:6px;"/>
            <path d="M503,647C531.681,653.802 555.848,644.968 560,636C564.152,627.032 562.663,588.519 554,579C544.802,568.893 514.102,560.057 498,572C483.748,582.571 489.741,643.855 503,647Z" style="fill:rgb(231,0,0);stroke:rgb(1,1,1);stroke-width:6px;"/>
        </g>
<g xmlns="http://www.w3.org/2000/svg" id="ArmFront">
            <path id="ArmFront1" xmlns:ns1="http://www.serif.com/" ns1:id="ArmFront" d="M277,971C276.25,976.538 135.071,960.946 87,885C146.865,697.439 280.075,482.055 442,476C618.289,469.408 428.393,528.72 277,971" style="fill:rgb(191,182,182);stroke:black;stroke-width:6px;"/>
            <path id="ArmFront2" xmlns:ns2="http://www.serif.com/" ns2:id="ArmFront" d="M114,914C114,914 173.423,872.935 169,947C181.238,934.736 224.372,904.658 225,966C236.974,944.068 264.146,935.521 275,971" style="fill:none;stroke:black;stroke-width:6px;"/>
        </g>
<g xmlns="http://www.w3.org/2000/svg" id="ShirtWhiteFront">
            <path id="ArmFront" d="M441,471C633.62,443.291 421.974,569.052 319,870C318.25,875.538 170.071,857.946 122,782C202.307,612.233 293.648,492.197 441,471Z" style="fill:rgb(230,230,230);stroke:black;stroke-width:6px;"/>
            <path d="M298,918C228.558,905.142 162.091,872.614 97,831L127,768C191.605,811.006 257.92,839.823 326,854L298,918Z" style="fill:rgb(230,230,230);stroke:black;stroke-width:6px;"/>
            <ellipse cx="131.5" cy="812.5" rx="6.5" ry="7.5" style="fill:rgb(230,230,230);stroke:black;stroke-width:6px;"/>
        </g>
<path xmlns="http://www.w3.org/2000/svg" id="Ear2Back" d="M456,166C456,166 409.946,21.441 341,30C272.054,38.559 294.61,87.177 289,122C281.443,168.906 220.591,183.716 207,213C186.316,257.566 203.788,275.094 211,300C220.574,333.062 256.228,346.429 259,384C262.508,431.54 245.154,429.477 267,463C288.846,496.523 330.306,492.246 371,516C423.02,546.365 483.199,179.219 456,166Z" style="fill:rgb(191,182,182);stroke:black;stroke-width:6px;"/>
<g xmlns="http://www.w3.org/2000/svg" id="HornBack">
            <path d="M339,533C368.71,533.881 379.253,545.993 392,563C369.839,604.937 353.91,617.187 338,623C322.09,628.813 292.167,610.667 309,580C320.025,568.94 331.827,548.655 339,533Z" style="fill:white;stroke:black;stroke-width:6px;"/>
            <path id="HornBack1" xmlns:ns1="http://www.serif.com/" ns1:id="HornBack" d="M339,533C339,533 340.061,461.908 373,465C405.939,468.092 414.855,490.278 415,501C415.219,517.257 405.424,539.78 391,566C387.452,555.752 372.517,536.888 339,533Z" style="fill:rgb(191,182,182);stroke:black;stroke-width:6px;"/>
        </g>
<g xmlns="http://www.w3.org/2000/svg" id="Head2">
            <path id="Head21" xmlns:ns1="http://www.serif.com/" ns1:id="Head2" d="M529,127C427.471,130.263 367.283,221.927 354,318C340.36,416.656 329.512,481.135 306,503C286.687,520.96 224.386,629.386 233,708C243.046,799.681 298.622,955.107 313,1002C322.459,1032.85 397.923,984.121 399,975C399.036,974.697 370.471,941.596 378,924C385.529,906.404 412.014,863.952 400,831C387.986,798.048 406.448,779.619 415,762C423.552,744.381 410.748,694.006 433,678C455.252,661.994 509.962,646.072 545,597.435C575.204,583.585 625.368,610.413 709,497C791.496,385.128 742.364,216.132 694,164C674.388,142.86 655.943,125.195 609,128C593.52,128.925 573,147 573,147C570.387,142.842 554.164,126.191 529,127ZM550,167L573,147" style="fill:rgb(191,182,182);stroke:black;stroke-width:6px;"/>
            <path d="M626,518C608.743,559.764 565.116,562.002 546,597" style="fill:none;stroke:black;stroke-width:6px;"/>
        </g>
<g xmlns="http://www.w3.org/2000/svg" id="HornFront">
            <path d="M512,629C526.681,615.19 548.051,596.082 562,575C562,575 630.026,587.74 600,628C562.399,678.416 485.502,653.926 512,629Z" style="fill:white;stroke:black;stroke-width:6px;"/>
            <path d="M575,556C613.393,461.56 658.288,504.218 677,540C655.202,570.254 629.229,599.968 598,629C596.491,590.655 583.537,575.608 563,576L575,556Z" style="fill:rgb(191,182,182);"/>
            <path d="M684,526C663.065,562.535 632.935,595.167 598,628C597.973,586.894 582.258,577.883 561,576L575,553" style="fill:none;stroke:black;stroke-width:6px;"/>
        </g>
<g xmlns="http://www.w3.org/2000/svg" id="Ear2Front">
            <path d="M639,236C639,236 732.717,10.989 819,58C864.465,82.772 842.681,130.999 850,167C857.319,203.001 920.509,213.249 924,288C927.491,362.751 856.556,355.166 847,410C837.444,464.834 850.04,455.103 830,470C809.96,484.897 766.217,490.833 764,513C761.783,535.167 767.253,531.609 759,545C750.747,558.391 721.306,545.609 710,561C698.694,576.391 707.529,630.187 659,616C610.471,601.813 615,560 615,560L639,236Z" style="fill:rgb(191,182,182);"/>
            <path d="M639,236C639,236 732.717,10.989 819,58C864.465,82.772 842.681,130.999 850,167C857.319,203.001 920.509,213.249 924,288C927.491,362.751 856.556,355.166 847,410C837.444,464.834 850.04,455.103 830,470C809.96,484.897 766.217,490.833 764,513C761.783,535.167 767.253,531.609 759,545C750.747,558.391 721.306,545.609 710,561C698.694,576.391 707.529,630.187 659,616C610.471,601.813 615,560 615,560" style="fill:none;stroke:black;stroke-width:6px;"/>
        </g>
<path xmlns="http://www.w3.org/2000/svg" id="YoungEyes" d="M562.256,393.084C565.064,393.422 566.781,398.365 566.088,404.114C565.395,409.863 562.552,414.255 559.744,413.916C556.936,413.578 555.219,408.635 555.912,402.886C556.605,397.137 559.448,392.745 562.256,393.084ZM396.256,382.084C399.064,382.422 400.781,387.365 400.088,393.114C399.395,398.863 396.552,403.255 393.744,402.916C390.936,402.578 389.219,397.635 389.912,391.886C390.605,386.137 393.448,381.745 396.256,382.084Z" style="stroke:black;stroke-width:6px;"/>
<g xmlns="http://www.w3.org/2000/svg" id="AviatorGlasses">
            <path d="M636,243C611.512,290.971 575.006,391.201 575,392M363,273L275,387M409,391C409,391 427.454,383.792 436,393M469,360C441.147,365.028 406.605,365.574 377,360" style="fill:none;stroke:black;stroke-width:6px;"/>
            <path d="M435,381C437.035,360.871 519.21,350.969 561,375C573.117,381.968 575.507,395.403 577.072,405.619C580.849,430.265 577.443,446.529 562,465C537.111,494.768 429.723,433.202 435,381ZM283,369C296.882,354.606 378.634,350.771 401,375C423.366,399.229 396.278,459.269 346,469C289.186,479.996 262.527,390.229 283,369Z" style="fill:url(#285856817539737);stroke:black;stroke-width:6px;"/>
        </g><defs xmlns="http://www.w3.org/2000/svg">
        <radialGradient id="285856817539737" cx="0" cy="0" r="1" gradientUnits="userSpaceOnUse" gradientTransform="matrix(162.604,2.62265,-2.62265,162.604,426,383)"><stop offset="0" style="stop-color:rgb(166,166,166);stop-opacity:1"/><stop offset="1" style="stop-color:black;stop-opacity:1"/></radialGradient>
    </defs></svg>