<?xml version="1.0" encoding="UTF-8" standalone="no"?>
<!DOCTYPE svg PUBLIC "-//W3C//DTD SVG 1.1//EN" "http://www.w3.org/Graphics/SVG/1.1/DTD/svg11.dtd">
<svg width="100%" height="100%" viewBox="0 0 1000 1000" xmlns="http://www.w3.org/2000/svg" xmlns:xlink="http://www.w3.org/1999/xlink" xml:space="preserve" xmlns:serif="http://www.serif.com/" style="fill-rule:evenodd;clip-rule:evenodd;stroke-linecap:round;stroke-linejoin:round;stroke-miterlimit:1.5;">
<rect xmlns="http://www.w3.org/2000/svg" x="0" y="-2" width="1003" height="1043" style="fill:url(#6072519229181365);"/><defs xmlns="http://www.w3.org/2000/svg">
        <linearGradient id="6072519229181365" x1="0" y1="0" x2="1" y2="0" gradientUnits="userSpaceOnUse" gradientTransform="matrix(630,1272.94,-1229,652.522,388,41.5015)"><stop offset="0" style="stop-color:rgb(179,221,180);stop-opacity:1"/><stop offset="1" style="stop-color:rgb(75,179,83);stop-opacity:1"/></linearGradient>
    </defs>
<g xmlns="http://www.w3.org/2000/svg" id="ArmBack">
        <path id="ArmBack1" xmlns:ns1="http://www.serif.com/" ns1:id="ArmBack" d="M848,944C847.227,943.883 914.358,930.329 961,780C894.839,745.966 758.742,556.508 715,504C676.846,458.2 574.99,496.288 557,523C664.677,607.222 684.341,829.427 848,944Z" style="fill:rgb(191,182,182);stroke:black;stroke-width:6px;"/>
        <path id="ArmBack2" xmlns:ns2="http://www.serif.com/" ns2:id="ArmBack" d="M909,892C919.698,891.865 877.217,830.117 941,833C927.395,827.745 902.151,789.674 956,779" style="fill:rgb(191,182,182);stroke:black;stroke-width:6px;"/>
    </g>
<g xmlns="http://www.w3.org/2000/svg" id="ShirtWhiteBack">
        <path id="ShirtWhiteBack1" xmlns:ns1="http://www.serif.com/" ns1:id="ShirtWhiteBack" d="M776,881C775.227,880.883 847.358,863.329 894,713C842.839,654.966 759.832,555.58 715,504C669.429,451.57 572.171,493.767 557,523C664.677,607.222 612.341,766.427 776,881Z" style="fill:rgb(230,230,230);stroke:black;stroke-width:6px;"/>
        <path d="M929,751C898.42,825.34 861.47,884.613 814,919L772,879C819.65,834.427 860.169,778.198 890,707L929,751Z" style="fill:rgb(230,230,230);stroke:black;stroke-width:6px;"/>
    </g>
<path xmlns="http://www.w3.org/2000/svg" id="SuitGreenBack" d="M776,881C784.227,893.883 865.358,867.329 912,717C860.839,658.966 759.832,555.58 715,504C669.429,451.57 572.171,493.767 557,523C664.677,607.222 612.341,766.427 776,881Z" style="fill:rgb(0,147,67);stroke:black;stroke-width:6px;"/>
<path xmlns="http://www.w3.org/2000/svg" id="Body" d="M729,999C756.359,935.515 852.869,518.109 591,464C315.846,407.146 245.065,785.723 263,999C280.896,1000.61 729,999 729,999Z" style="fill:rgb(191,182,182);stroke:black;stroke-width:6px;"/>
<path xmlns="http://www.w3.org/2000/svg" id="Pants" d="M744,940L728,1006L265,1004C259.724,963.607 259.985,900.414 264,857C465.432,948.045 633.709,983.196 744,940Z" style="fill:rgb(17,26,75);stroke:black;stroke-width:6px;"/>
<g xmlns="http://www.w3.org/2000/svg" id="Belt">
        <path id="Belt1" xmlns:ns1="http://www.serif.com/" ns1:id="Belt" d="M743,939L731,984C732.427,984.008 524.877,1057.15 265,887C261.716,882.839 263.106,850.285 265,845C534.962,971.128 673.132,972.378 743,939Z" style="fill:rgb(62,35,11);stroke:black;stroke-width:6px;"/>
        <path id="Buckle" d="M602,956L599,998C630.514,999.262 663.568,998.757 701,992L702,954C671.328,958.771 635.784,960.791 602,956Z" style="fill:rgb(229,145,0);stroke:black;stroke-width:6px;"/>
    </g>
<g xmlns="http://www.w3.org/2000/svg" id="WhiteShirtBody">
            <path id="WhiteShirtBody1" xmlns:ns1="http://www.serif.com/" ns1:id="WhiteShirtBody" d="M652,489C652,489 738.33,546.524 639,585C539.67,623.476 427.903,568.394 424,533C420.097,497.606 448.726,471.019 479,467C509.274,462.981 290.017,437.179 260,840C451.283,973.75 691.101,988.217 745,940C788.24,768.508 781.517,549.53 652,489Z" style="fill:rgb(230,230,230);stroke:black;stroke-width:6px;"/>
            <path id="Buttons" d="M667,860C672.519,860 677,864.481 677,870C677,875.519 672.519,880 667,880C661.481,880 657,875.519 657,870C657,864.481 661.481,860 667,860ZM668,788C673.519,788 678,792.481 678,798C678,803.519 673.519,808 668,808C662.481,808 658,803.519 658,798C658,792.481 662.481,788 668,788ZM665,715C670.519,715 675,719.481 675,725C675,730.519 670.519,735 665,735C659.481,735 655,730.519 655,725C655,719.481 659.481,715 665,715Z" style="stroke:black;stroke-width:6px;"/>
            <path id="Collar" d="M633,576C633,576 695.11,595.117 706,616C716.89,636.883 725.99,497.232 706,473C686.01,448.768 633,576 633,576Z" style="fill:rgb(230,230,230);stroke:black;stroke-width:6px;"/>
        </g>
<g xmlns="http://www.w3.org/2000/svg" id="GreenVest">
            <path id="VestGreen" d="M751,942C764.077,884.543 827.354,622.877 685.738,507.34C706.243,572.068 695.625,698.414 676,697C676,697 492.652,519.5 445.687,469.54C287.959,524.232 253.744,692.481 257,791C286.684,854.655 455.521,991.992 592.842,1013.21C616.908,989.273 665.407,957.828 665.407,957.828C665.407,957.828 700.212,996.297 711.253,1017.58C722.191,1008.61 745.95,964.189 751,942Z" style="fill:rgb(0,106,83);stroke:black;stroke-width:6px;"/>
            <g transform="matrix(0.992081,-0.125597,0.125597,0.992081,-19.4442,245.801)">
                <ellipse cx="605" cy="747.5" rx="12" ry="11.5" style="fill:rgb(0,14,14);"/>
            </g>
            <g transform="matrix(0.992081,-0.125597,0.125597,0.992081,-11.3168,163.352)">
                <ellipse cx="605" cy="747.5" rx="12" ry="11.5" style="fill:rgb(0,14,14);"/>
            </g>
            <g transform="matrix(0.992081,-0.125597,0.125597,0.992081,-13.6938,82.7627)">
                <ellipse cx="605" cy="747.5" rx="12" ry="11.5" style="fill:rgb(0,14,14);"/>
            </g>
        </g>
<g xmlns="http://www.w3.org/2000/svg" id="SuitJacketBody">
            <path d="M451,484C560.258,677.431 546.18,844.681 344,972L239,948C241.759,617.493 343.421,502.896 451,484Z" style="fill:rgb(0,147,67);stroke:black;stroke-width:6px;"/>
            <path d="M656,487C749.485,606.366 789.164,798.578 746,946L857,909C801.696,758.17 774.644,544.699 656,487Z" style="fill:rgb(0,147,67);stroke:black;stroke-width:6px;"/>
        </g>
<g xmlns="http://www.w3.org/2000/svg" id="Bowtie" transform="matrix(1,0,0,1,90,-5)">
            <path d="M640,648C651.249,641.059 660.547,618.838 650,580C645.051,561.775 596.846,567.896 593,579C590.852,585.2 577.639,626.687 597,639C616.361,651.313 632.167,652.833 640,648Z" style="fill:rgb(231,0,0);stroke:rgb(1,1,1);stroke-width:6px;"/>
            <path d="M558,640C564.564,643.797 582.109,650.993 598,641C615.296,630.123 603.308,585.931 594,579C586.246,573.226 555.189,571.132 550,586C545.412,599.145 541.615,630.523 558,640Z" style="fill:rgb(231,0,0);stroke:rgb(1,1,1);stroke-width:6px;"/>
            <path d="M503,647C531.681,653.802 555.848,644.968 560,636C564.152,627.032 562.663,588.519 554,579C544.802,568.893 514.102,560.057 498,572C483.748,582.571 489.741,643.855 503,647Z" style="fill:rgb(231,0,0);stroke:rgb(1,1,1);stroke-width:6px;"/>
        </g>
<g xmlns="http://www.w3.org/2000/svg" id="ArmFront">
            <path id="ArmFront1" xmlns:ns1="http://www.serif.com/" ns1:id="ArmFront" d="M277,971C276.25,976.538 135.071,960.946 87,885C146.865,697.439 280.075,482.055 442,476C618.289,469.408 428.393,528.72 277,971" style="fill:rgb(191,182,182);stroke:black;stroke-width:6px;"/>
            <path id="ArmFront2" xmlns:ns2="http://www.serif.com/" ns2:id="ArmFront" d="M114,914C114,914 173.423,872.935 169,947C181.238,934.736 224.372,904.658 225,966C236.974,944.068 264.146,935.521 275,971" style="fill:none;stroke:black;stroke-width:6px;"/>
        </g>
<g xmlns="http://www.w3.org/2000/svg" id="ShirtWhiteFront">
            <path id="ArmFront" d="M441,471C633.62,443.291 421.974,569.052 319,870C318.25,875.538 170.071,857.946 122,782C202.307,612.233 293.648,492.197 441,471Z" style="fill:rgb(230,230,230);stroke:black;stroke-width:6px;"/>
            <path d="M298,918C228.558,905.142 162.091,872.614 97,831L127,768C191.605,811.006 257.92,839.823 326,854L298,918Z" style="fill:rgb(230,230,230);stroke:black;stroke-width:6px;"/>
            <ellipse cx="131.5" cy="812.5" rx="6.5" ry="7.5" style="fill:rgb(230,230,230);stroke:black;stroke-width:6px;"/>
        </g>
<g xmlns="http://www.w3.org/2000/svg" id="SuitCoatFront">
            <path id="SuitCoatFront1" xmlns:ns1="http://www.serif.com/" ns1:id="SuitCoatFront" d="M448,467C642.859,439.582 404.313,636.199 325,902C299.708,894.456 198.113,877.764 96,798C193.865,622.439 277.621,490.974 448,467Z" style="fill:rgb(0,147,67);stroke:black;stroke-width:6px;"/>
            <path d="M416,546C519.07,488.746 569.593,810.644 423,850C448.748,762.334 447.62,692.428 403,633C439.06,623.348 464,617 464,617C468.534,610.852 454.854,573.211 416,546Z" style="fill:rgb(0,147,67);"/>
            <path d="M423,850C448.748,762.334 447.62,692.428 403,633C439.06,623.348 464,617 464,617C468.534,610.852 439.708,560.857 416,546" style="fill:none;stroke:black;stroke-width:6px;"/>
        </g>
<path xmlns="http://www.w3.org/2000/svg" id="Ear3Back" d="M444,197C444,197 349.65,119.368 294,135C238.35,150.632 228.312,204.295 247,305C262.589,389.007 289.247,390.32 309,490C322.195,556.585 373.5,548.394 387,552C451.776,569.301 494.074,209.522 444,197Z" style="fill:rgb(191,182,182);stroke:black;stroke-width:6px;"/>
<path xmlns="http://www.w3.org/2000/svg" d="M708,191C713.558,200.103 566.883,67.298 440,176C295.261,300 367.03,482.439 356,511C360.656,559.377 318.083,635.972 291,660C263.917,684.028 112.099,751.388 115,774C117.901,796.612 171.719,788.217 191,797C210.281,805.783 223.052,815.107 248,803C272.948,790.893 357.205,763.369 408,746C471.521,724.279 538.868,643.419 552,615C588.787,613.299 697.177,539.696 742,445C765.015,396.376 762.745,383.175 752,307C741.255,230.825 708,191 708,191ZM587,537L552,615" style="fill:rgb(191,182,182);stroke:black;stroke-width:6px;"/>
<g xmlns="http://www.w3.org/2000/svg" id="Eart3Front">
            <g transform="matrix(1,0,0,1,-45,7)">
                <path d="M687,226C687,226 767.864,73.406 854,134C940.136,194.594 941.526,273.38 935,310C928.474,346.62 884.536,419.667 877,430C869.464,440.333 828.699,492.585 827,509C823.224,545.485 781.25,598.998 727,579C696.331,567.695 698,532 698,532" style="fill:rgb(191,182,182);"/>
            </g>
            <g transform="matrix(1,0,0,1,-45,7)">
                <path d="M682,234C682,234 767.864,73.406 854,134C940.136,194.594 941.526,273.38 935,310C928.474,346.62 910.312,393.233 877,430C858.062,450.902 835.715,480.934 828,512C816.022,560.232 773.354,594.784 726,580C703.162,572.87 697,531 697,531" style="fill:none;stroke:black;stroke-width:6px;"/>
            </g>
        </g>
<path xmlns="http://www.w3.org/2000/svg" id="YoungEyes" d="M562.256,393.084C565.064,393.422 566.781,398.365 566.088,404.114C565.395,409.863 562.552,414.255 559.744,413.916C556.936,413.578 555.219,408.635 555.912,402.886C556.605,397.137 559.448,392.745 562.256,393.084ZM396.256,382.084C399.064,382.422 400.781,387.365 400.088,393.114C399.395,398.863 396.552,403.255 393.744,402.916C390.936,402.578 389.219,397.635 389.912,391.886C390.605,386.137 393.448,381.745 396.256,382.084Z" style="stroke:black;stroke-width:6px;"/></svg>