<?xml version="1.0" encoding="UTF-8" standalone="no"?>
<!DOCTYPE svg PUBLIC "-//W3C//DTD SVG 1.1//EN" "http://www.w3.org/Graphics/SVG/1.1/DTD/svg11.dtd">
<svg width="100%" height="100%" viewBox="0 0 1000 1000" xmlns="http://www.w3.org/2000/svg" xmlns:xlink="http://www.w3.org/1999/xlink" xml:space="preserve" xmlns:serif="http://www.serif.com/" style="fill-rule:evenodd;clip-rule:evenodd;stroke-linecap:round;stroke-linejoin:round;stroke-miterlimit:1.5;">
<rect xmlns="http://www.w3.org/2000/svg" x="0" y="-2" width="1003" height="1043" style="fill:url(#7851270172534453);"/><defs xmlns="http://www.w3.org/2000/svg">
        <linearGradient id="7851270172534453" x1="0" y1="0" x2="1" y2="0" gradientUnits="userSpaceOnUse" gradientTransform="matrix(530,1031.61,-999.972,551.137,458,-3.03575)"><stop offset="0" style="stop-color:rgb(46,50,64);stop-opacity:1"/><stop offset="1" style="stop-color:rgb(31,32,53);stop-opacity:1"/></linearGradient>
    </defs>
<g xmlns="http://www.w3.org/2000/svg" id="ArmBack">
        <path id="ArmBack1" xmlns:ns1="http://www.serif.com/" ns1:id="ArmBack" d="M848,944C847.227,943.883 914.358,930.329 961,780C894.839,745.966 758.742,556.508 715,504C676.846,458.2 574.99,496.288 557,523C664.677,607.222 684.341,829.427 848,944Z" style="fill:rgb(191,182,182);stroke:black;stroke-width:6px;"/>
        <path id="ArmBack2" xmlns:ns2="http://www.serif.com/" ns2:id="ArmBack" d="M909,892C919.698,891.865 877.217,830.117 941,833C927.395,827.745 902.151,789.674 956,779" style="fill:rgb(191,182,182);stroke:black;stroke-width:6px;"/>
    </g>
<g xmlns="http://www.w3.org/2000/svg" id="ShirtWhiteBack">
        <path id="ShirtWhiteBack1" xmlns:ns1="http://www.serif.com/" ns1:id="ShirtWhiteBack" d="M776,881C775.227,880.883 847.358,863.329 894,713C842.839,654.966 759.832,555.58 715,504C669.429,451.57 572.171,493.767 557,523C664.677,607.222 612.341,766.427 776,881Z" style="fill:rgb(230,230,230);stroke:black;stroke-width:6px;"/>
        <path d="M929,751C898.42,825.34 861.47,884.613 814,919L772,879C819.65,834.427 860.169,778.198 890,707L929,751Z" style="fill:rgb(230,230,230);stroke:black;stroke-width:6px;"/>
    </g>
<path xmlns="http://www.w3.org/2000/svg" id="SuitGreenBack" d="M776,881C784.227,893.883 865.358,867.329 912,717C860.839,658.966 759.832,555.58 715,504C669.429,451.57 572.171,493.767 557,523C664.677,607.222 612.341,766.427 776,881Z" style="fill:rgb(0,147,67);stroke:black;stroke-width:6px;"/>
<path xmlns="http://www.w3.org/2000/svg" id="Body" d="M729,999C756.359,935.515 852.869,518.109 591,464C315.846,407.146 245.065,785.723 263,999C280.896,1000.61 729,999 729,999Z" style="fill:rgb(191,182,182);stroke:black;stroke-width:6px;"/>
<path xmlns="http://www.w3.org/2000/svg" id="Pants" d="M744,940L728,1006L265,1004C259.724,963.607 259.985,900.414 264,857C465.432,948.045 633.709,983.196 744,940Z" style="fill:rgb(17,26,75);stroke:black;stroke-width:6px;"/>
<g xmlns="http://www.w3.org/2000/svg" id="Belt">
        <path id="Belt1" xmlns:ns1="http://www.serif.com/" ns1:id="Belt" d="M743,939L731,984C732.427,984.008 524.877,1057.15 265,887C261.716,882.839 263.106,850.285 265,845C534.962,971.128 673.132,972.378 743,939Z" style="fill:rgb(62,35,11);stroke:black;stroke-width:6px;"/>
        <path id="Buckle" d="M602,956L599,998C630.514,999.262 663.568,998.757 701,992L702,954C671.328,958.771 635.784,960.791 602,956Z" style="fill:rgb(229,145,0);stroke:black;stroke-width:6px;"/>
    </g>
<g xmlns="http://www.w3.org/2000/svg" id="WhiteShirtBody">
            <path id="WhiteShirtBody1" xmlns:ns1="http://www.serif.com/" ns1:id="WhiteShirtBody" d="M652,489C652,489 738.33,546.524 639,585C539.67,623.476 427.903,568.394 424,533C420.097,497.606 448.726,471.019 479,467C509.274,462.981 290.017,437.179 260,840C451.283,973.75 691.101,988.217 745,940C788.24,768.508 781.517,549.53 652,489Z" style="fill:rgb(230,230,230);stroke:black;stroke-width:6px;"/>
            <path id="Buttons" d="M667,860C672.519,860 677,864.481 677,870C677,875.519 672.519,880 667,880C661.481,880 657,875.519 657,870C657,864.481 661.481,860 667,860ZM668,788C673.519,788 678,792.481 678,798C678,803.519 673.519,808 668,808C662.481,808 658,803.519 658,798C658,792.481 662.481,788 668,788ZM665,715C670.519,715 675,719.481 675,725C675,730.519 670.519,735 665,735C659.481,735 655,730.519 655,725C655,719.481 659.481,715 665,715Z" style="stroke:black;stroke-width:6px;"/>
            <path id="Collar" d="M633,576C633,576 695.11,595.117 706,616C716.89,636.883 725.99,497.232 706,473C686.01,448.768 633,576 633,576Z" style="fill:rgb(230,230,230);stroke:black;stroke-width:6px;"/>
        </g>
<path xmlns="http://www.w3.org/2000/svg" id="VestBody" d="M745,934C762.058,888.467 811.725,667.735 714.493,542.096C711.23,598.451 704.232,616.48 661,690C581.804,655.021 469.386,539.068 377.77,482.881C285.379,543.781 263.301,698.883 275,838C275.274,885.144 448.211,945.754 588.714,961.829C628.074,937.088 665.165,911.493 665.165,911.493C665.165,911.493 687.458,942.028 703.023,960.775C720.129,956.094 734.458,943.975 745,934ZM665.5,715C670.743,715 675,719.257 675,724.5C675,729.743 670.743,734 665.5,734C660.257,734 656,729.743 656,724.5C656,719.257 660.257,715 665.5,715ZM669.5,788C674.743,788 679,792.257 679,797.5C679,802.743 674.743,807 669.5,807C664.257,807 660,802.743 660,797.5C660,792.257 664.257,788 669.5,788ZM666.5,860C671.743,860 676,864.257 676,869.5C676,874.743 671.743,879 666.5,879C661.257,879 657,874.743 657,869.5C657,864.257 661.257,860 666.5,860Z" style="fill:rgb(213,0,0);stroke:black;stroke-width:6px;"/>
<g xmlns="http://www.w3.org/2000/svg" id="SuitJacketBody">
            <path d="M451,484C560.258,677.431 546.18,844.681 344,972L239,948C241.759,617.493 343.421,502.896 451,484Z" style="fill:rgb(0,147,67);stroke:black;stroke-width:6px;"/>
            <path d="M656,487C749.485,606.366 789.164,798.578 746,946L857,909C801.696,758.17 774.644,544.699 656,487Z" style="fill:rgb(0,147,67);stroke:black;stroke-width:6px;"/>
        </g>
<g xmlns="http://www.w3.org/2000/svg" id="Bowtie" transform="matrix(1,0,0,1,90,-5)">
            <path d="M640,648C651.249,641.059 660.547,618.838 650,580C645.051,561.775 596.846,567.896 593,579C590.852,585.2 577.639,626.687 597,639C616.361,651.313 632.167,652.833 640,648Z" style="fill:rgb(231,0,0);stroke:rgb(1,1,1);stroke-width:6px;"/>
            <path d="M558,640C564.564,643.797 582.109,650.993 598,641C615.296,630.123 603.308,585.931 594,579C586.246,573.226 555.189,571.132 550,586C545.412,599.145 541.615,630.523 558,640Z" style="fill:rgb(231,0,0);stroke:rgb(1,1,1);stroke-width:6px;"/>
            <path d="M503,647C531.681,653.802 555.848,644.968 560,636C564.152,627.032 562.663,588.519 554,579C544.802,568.893 514.102,560.057 498,572C483.748,582.571 489.741,643.855 503,647Z" style="fill:rgb(231,0,0);stroke:rgb(1,1,1);stroke-width:6px;"/>
        </g>
<g xmlns="http://www.w3.org/2000/svg" id="ArmFront">
            <path id="ArmFront1" xmlns:ns1="http://www.serif.com/" ns1:id="ArmFront" d="M277,971C276.25,976.538 135.071,960.946 87,885C146.865,697.439 280.075,482.055 442,476C618.289,469.408 428.393,528.72 277,971" style="fill:rgb(191,182,182);stroke:black;stroke-width:6px;"/>
            <path id="ArmFront2" xmlns:ns2="http://www.serif.com/" ns2:id="ArmFront" d="M114,914C114,914 173.423,872.935 169,947C181.238,934.736 224.372,904.658 225,966C236.974,944.068 264.146,935.521 275,971" style="fill:none;stroke:black;stroke-width:6px;"/>
        </g>
<g xmlns="http://www.w3.org/2000/svg" id="ShirtWhiteFront">
            <path id="ArmFront" d="M441,471C633.62,443.291 421.974,569.052 319,870C318.25,875.538 170.071,857.946 122,782C202.307,612.233 293.648,492.197 441,471Z" style="fill:rgb(230,230,230);stroke:black;stroke-width:6px;"/>
            <path d="M298,918C228.558,905.142 162.091,872.614 97,831L127,768C191.605,811.006 257.92,839.823 326,854L298,918Z" style="fill:rgb(230,230,230);stroke:black;stroke-width:6px;"/>
            <ellipse cx="131.5" cy="812.5" rx="6.5" ry="7.5" style="fill:rgb(230,230,230);stroke:black;stroke-width:6px;"/>
        </g>
<g xmlns="http://www.w3.org/2000/svg" id="SuitCoatFront">
            <path id="SuitCoatFront1" xmlns:ns1="http://www.serif.com/" ns1:id="SuitCoatFront" d="M448,467C642.859,439.582 404.313,636.199 325,902C299.708,894.456 198.113,877.764 96,798C193.865,622.439 277.621,490.974 448,467Z" style="fill:rgb(0,147,67);stroke:black;stroke-width:6px;"/>
            <path d="M416,546C519.07,488.746 569.593,810.644 423,850C448.748,762.334 447.62,692.428 403,633C439.06,623.348 464,617 464,617C468.534,610.852 454.854,573.211 416,546Z" style="fill:rgb(0,147,67);"/>
            <path d="M423,850C448.748,762.334 447.62,692.428 403,633C439.06,623.348 464,617 464,617C468.534,610.852 439.708,560.857 416,546" style="fill:none;stroke:black;stroke-width:6px;"/>
        </g>
<path xmlns="http://www.w3.org/2000/svg" id="Ear3Back" d="M444,197C444,197 349.65,119.368 294,135C238.35,150.632 228.312,204.295 247,305C262.589,389.007 289.247,390.32 309,490C322.195,556.585 373.5,548.394 387,552C451.776,569.301 494.074,209.522 444,197Z" style="fill:rgb(191,182,182);stroke:black;stroke-width:6px;"/>
<g xmlns="http://www.w3.org/2000/svg" id="HornBack">
            <path d="M339,533C368.71,533.881 379.253,545.993 392,563C369.839,604.937 353.91,617.187 338,623C322.09,628.813 292.167,610.667 309,580C320.025,568.94 331.827,548.655 339,533Z" style="fill:white;stroke:black;stroke-width:6px;"/>
            <path id="HornBack1" xmlns:ns1="http://www.serif.com/" ns1:id="HornBack" d="M339,533C339,533 340.061,461.908 373,465C405.939,468.092 414.855,490.278 415,501C415.219,517.257 405.424,539.78 391,566C387.452,555.752 372.517,536.888 339,533Z" style="fill:rgb(191,182,182);stroke:black;stroke-width:6px;"/>
        </g>
<path xmlns="http://www.w3.org/2000/svg" id="Head" d="M669,550C654.903,569.845 636.525,590.122 618,608C536.833,686.333 450.013,727.63 386,733C300.281,740.191 235,708.167 193,650C184.427,638.128 165.5,627.667 158,614C154.148,606.981 157.551,597.988 157,590C156.333,580.333 157.607,564.351 154,556C149.042,544.52 139.979,520.421 148,520C167.187,518.994 205.255,569.728 240,601C242.05,602.846 314.399,649.285 356,569C369.909,542.157 364,498 364,498C335.388,402.015 346.848,278.902 396,201C396,201 426.77,144.823 542,141C657.23,137.177 677.163,163.014 688,166C742.991,181.154 771.218,309.021 747,393C722.782,476.979 669,550 669,550Z" style="fill:rgb(191,182,182);stroke:black;stroke-width:6px;"/>
<g xmlns="http://www.w3.org/2000/svg" id="HornFront">
            <path d="M512,629C526.681,615.19 548.051,596.082 562,575C562,575 630.026,587.74 600,628C562.399,678.416 485.502,653.926 512,629Z" style="fill:white;stroke:black;stroke-width:6px;"/>
            <path d="M575,556C613.393,461.56 658.288,504.218 677,540C655.202,570.254 629.229,599.968 598,629C596.491,590.655 583.537,575.608 563,576L575,556Z" style="fill:rgb(191,182,182);"/>
            <path d="M684,526C663.065,562.535 632.935,595.167 598,628C597.973,586.894 582.258,577.883 561,576L575,553" style="fill:none;stroke:black;stroke-width:6px;"/>
        </g>
<g xmlns="http://www.w3.org/2000/svg" id="Eart3Front">
            <g transform="matrix(1,0,0,1,-45,7)">
                <path d="M687,226C687,226 767.864,73.406 854,134C940.136,194.594 941.526,273.38 935,310C928.474,346.62 884.536,419.667 877,430C869.464,440.333 828.699,492.585 827,509C823.224,545.485 781.25,598.998 727,579C696.331,567.695 698,532 698,532" style="fill:rgb(191,182,182);"/>
            </g>
            <g transform="matrix(1,0,0,1,-45,7)">
                <path d="M682,234C682,234 767.864,73.406 854,134C940.136,194.594 941.526,273.38 935,310C928.474,346.62 910.312,393.233 877,430C858.062,450.902 835.715,480.934 828,512C816.022,560.232 773.354,594.784 726,580C703.162,572.87 697,531 697,531" style="fill:none;stroke:black;stroke-width:6px;"/>
            </g>
        </g>
<path xmlns="http://www.w3.org/2000/svg" id="YoungEyes" d="M562.256,393.084C565.064,393.422 566.781,398.365 566.088,404.114C565.395,409.863 562.552,414.255 559.744,413.916C556.936,413.578 555.219,408.635 555.912,402.886C556.605,397.137 559.448,392.745 562.256,393.084ZM396.256,382.084C399.064,382.422 400.781,387.365 400.088,393.114C399.395,398.863 396.552,403.255 393.744,402.916C390.936,402.578 389.219,397.635 389.912,391.886C390.605,386.137 393.448,381.745 396.256,382.084Z" style="stroke:black;stroke-width:6px;"/></svg>