<?xml version="1.0" encoding="UTF-8" standalone="no"?>
<!DOCTYPE svg PUBLIC "-//W3C//DTD SVG 1.1//EN" "http://www.w3.org/Graphics/SVG/1.1/DTD/svg11.dtd">
<svg width="100%" height="100%" viewBox="0 0 1000 1000" xmlns="http://www.w3.org/2000/svg" xmlns:xlink="http://www.w3.org/1999/xlink" xml:space="preserve" xmlns:serif="http://www.serif.com/" style="fill-rule:evenodd;clip-rule:evenodd;stroke-linecap:round;stroke-linejoin:round;stroke-miterlimit:1.5;">
<rect xmlns="http://www.w3.org/2000/svg" x="0" y="-2" width="1003" height="1043" style="fill:url(#1136722035846638);"/><defs xmlns="http://www.w3.org/2000/svg">
        <linearGradient id="1136722035846638" x1="0" y1="0" x2="1" y2="0" gradientUnits="userSpaceOnUse" gradientTransform="matrix(619,1359.94,-1313,641.129,380,34.2512)"><stop offset="0" style="stop-color:rgb(116,124,207);stop-opacity:1"/><stop offset="1" style="stop-color:rgb(56,64,152);stop-opacity:1"/></linearGradient>
    </defs>
<g xmlns="http://www.w3.org/2000/svg" id="ArmBack">
        <path id="ArmBack1" xmlns:ns1="http://www.serif.com/" ns1:id="ArmBack" d="M848,944C847.227,943.883 914.358,930.329 961,780C894.839,745.966 758.742,556.508 715,504C676.846,458.2 574.99,496.288 557,523C664.677,607.222 684.341,829.427 848,944Z" style="fill:rgb(191,182,182);stroke:black;stroke-width:6px;"/>
        <path id="ArmBack2" xmlns:ns2="http://www.serif.com/" ns2:id="ArmBack" d="M909,892C919.698,891.865 877.217,830.117 941,833C927.395,827.745 902.151,789.674 956,779" style="fill:rgb(191,182,182);stroke:black;stroke-width:6px;"/>
    </g>
<g xmlns="http://www.w3.org/2000/svg" id="ShirtYellowBack">
        <path d="M696,774L828.827,642.378C831.594,637.321 698.058,464.162 637,471C548.091,480.957 677.013,773.632 696,774Z" style="fill:rgb(255,183,0);stroke:black;stroke-width:6px;"/>
        <path d="M847,661C850.473,662.746 752.481,790.012 712,790C674.582,789.989 677,763 677,763C677,763 771.869,715.04 822.155,623.509C828.977,619.275 835.894,627.241 832.827,639.378C849.13,638.239 849.759,660.2 847,661Z" style="fill:rgb(255,183,0);stroke:black;stroke-width:6px;"/>
    </g>
<path xmlns="http://www.w3.org/2000/svg" id="Body" d="M729,999C756.359,935.515 852.869,518.109 591,464C315.846,407.146 245.065,785.723 263,999C280.896,1000.61 729,999 729,999Z" style="fill:rgb(191,182,182);stroke:black;stroke-width:6px;"/>
<path xmlns="http://www.w3.org/2000/svg" id="Pants" d="M744,940L728,1006L265,1004C259.724,963.607 259.985,900.414 264,857C465.432,948.045 633.709,983.196 744,940Z" style="fill:rgb(0,147,67);stroke:black;stroke-width:6px;"/>
<g xmlns="http://www.w3.org/2000/svg" id="Belt">
        <path id="Belt1" xmlns:ns1="http://www.serif.com/" ns1:id="Belt" d="M743,939L731,984C732.427,984.008 524.877,1057.15 265,887C261.716,882.839 263.106,850.285 265,845C534.962,971.128 673.132,972.378 743,939Z" style="fill:rgb(62,35,11);stroke:black;stroke-width:6px;"/>
        <path id="Buckle" d="M602,956L599,998C630.514,999.262 663.568,998.757 701,992L702,954C671.328,958.771 635.784,960.791 602,956Z" style="fill:rgb(229,145,0);stroke:black;stroke-width:6px;"/>
    </g>
<g xmlns="http://www.w3.org/2000/svg" id="ShirtYellowBody">
        <path id="ShirtYellowBody1" xmlns:ns1="http://www.serif.com/" ns1:id="ShirtYellowBody" d="M746,934C762.648,873.204 838.394,515.775 591,464C347.577,413.056 295.426,637.784 267,830C241.428,883.695 674.44,1012.46 746,934Z" style="fill:rgb(255,183,0);stroke:black;stroke-width:6px;"/>
        <path id="Buttons" d="M667,860C672.519,860 677,864.481 677,870C677,875.519 672.519,880 667,880C661.481,880 657,875.519 657,870C657,864.481 661.481,860 667,860ZM668,788C673.519,788 678,792.481 678,798C678,803.519 673.519,808 668,808C662.481,808 658,803.519 658,798C658,792.481 662.481,788 668,788ZM665,715C670.519,715 675,719.481 675,725C675,730.519 670.519,735 665,735C659.481,735 655,730.519 655,725C655,719.481 659.481,715 665,715Z" style="fill:rgb(3,3,3);stroke:rgb(3,0,0);stroke-width:6px;"/>
        <path id="Collar" d="M633,576C633,576 695.11,595.117 706,616C716.89,636.883 725.99,497.232 706,473C686.01,448.768 633,576 633,576Z" style="fill:rgb(255,183,0);stroke:black;stroke-width:6px;"/>
    </g>
<g xmlns="http://www.w3.org/2000/svg" id="BroVestBody">
            <path id="BroVestBody1" xmlns:ns1="http://www.serif.com/" ns1:id="BroVestBody" d="M577.045,461.46C581.642,462.181 586.291,463.027 591,464C852.869,518.109 765.359,910.515 738,974C691.287,1037.2 237.882,953.791 255,915C249.985,855.368 261.906,820.813 271.295,794.438C289.374,809.539 319.379,828.569 345,816C455.451,761.813 390.098,607.577 362,561C360.742,558.914 359.286,557.755 357.658,557.423C382.042,523.261 439.645,483.76 475.141,466.465C443.094,477.669 438.484,532.291 529,567C638.031,608.808 668.343,689.12 667,690L688,688C694.208,683.09 692.54,570.506 684,532C676.836,499.701 634.815,471.462 577.045,461.46Z" style="fill:rgb(0,47,98);stroke:black;stroke-width:6px;"/>
            <path d="M266,906C250.194,914.024 489.324,976.896 654,977" style="fill:none;stroke:black;stroke-width:6px;"/>
            <g transform="matrix(1,0,0,1,82,0)">
                <path d="M602,679L605,700L587,701L582,680C601.065,782.497 602.609,899.197 586,996L601,997C619.882,893.814 615.298,777.186 602,679Z" style="fill:rgb(0,47,98);stroke:black;stroke-width:6px;"/>
            </g>
            <g transform="matrix(0.968235,0.250044,-0.250044,0.968235,283.866,-137.389)">
                <rect x="579" y="701" width="20" height="39" style="fill:rgb(0,47,98);stroke:black;stroke-width:6px;"/>
            </g>
            <path d="M745,958C745,958 732.558,971.879 695,974" style="fill:none;stroke:black;stroke-width:6px;"/>
            <g transform="matrix(0.986021,0.166623,-0.166623,0.986021,178.772,-107.626)">
                <path d="M659,665L674,662C688.092,700.23 694.582,763.826 696,806L683,805C682.623,765.526 674.461,703.536 659,665Z" style="fill:none;stroke:black;stroke-width:6px;"/>
            </g>
            <g transform="matrix(0.954729,0.297477,-0.297477,0.954729,318.099,-37.1491)">
                <path d="M659,665L674,662C688.092,700.23 694.582,763.826 696,806L683,805C682.623,765.526 674.461,703.536 659,665Z" style="fill:none;stroke:black;stroke-width:6px;"/>
            </g>
            <g transform="matrix(0.954729,0.297477,-0.297477,0.954729,100.099,-32.1491)">
                <path d="M659,665L674,662C688.092,700.23 694.582,763.826 696,806L683,805C682.623,765.526 674.461,703.536 659,665Z" style="fill:none;stroke:black;stroke-width:6px;"/>
            </g>
            <g transform="matrix(0.839615,-0.0959406,0.113529,0.993535,181.169,143.555)">
                <rect x="579" y="701" width="20" height="39" style="fill:rgb(0,47,98);stroke:black;stroke-width:6.48px;"/>
            </g>
            <g transform="matrix(0.844963,-0.0139814,0.0165445,0.999863,29.8964,79.721)">
                <rect x="579" y="701" width="20" height="39" style="fill:rgb(0,47,98);stroke:black;stroke-width:6.48px;"/>
            </g>
        </g>
<g xmlns="http://www.w3.org/2000/svg" id="ArmFront">
            <path id="ArmFront1" xmlns:ns1="http://www.serif.com/" ns1:id="ArmFront" d="M277,971C276.25,976.538 135.071,960.946 87,885C146.865,697.439 280.075,482.055 442,476C618.289,469.408 428.393,528.72 277,971" style="fill:rgb(191,182,182);stroke:black;stroke-width:6px;"/>
            <path id="ArmFront2" xmlns:ns2="http://www.serif.com/" ns2:id="ArmFront" d="M114,914C114,914 173.423,872.935 169,947C181.238,934.736 224.372,904.658 225,966C236.974,944.068 264.146,935.521 275,971" style="fill:none;stroke:black;stroke-width:6px;"/>
        </g>
<g xmlns="http://www.w3.org/2000/svg" id="ShirtYellowFront">
            <path d="M174,691C174,691 300.445,463.058 431,488C547.05,510.171 339.55,774.311 352,785C366.541,797.484 165.754,708.896 174,691Z" style="fill:rgb(255,183,0);stroke:black;stroke-width:6px;"/>
            <path d="M151,720C151,720 237.235,793.145 352,811C357.446,807.61 364.154,801.735 362,790C362.96,790.317 373.477,774.715 374,765C299.75,753.641 231.323,722.72 171,671C171,671 158.556,685.88 162,695C150.815,699.721 146.044,707.524 151,720Z" style="fill:rgb(255,183,0);stroke:black;stroke-width:6px;"/>
        </g>
<g xmlns="http://www.w3.org/2000/svg" id="BroVestFront">
            <path d="M467.606,469.748C439.191,482.15 413.839,505.573 453,543C499.26,587.212 508.095,595.678 519.459,598.573C474.071,673.886 403.58,748.011 412,711C427.062,644.79 321,509 321,509C321,509 387.056,475.029 467.606,469.748Z" style="fill:rgb(0,47,98);"/>
            <path d="M412,711C427.062,644.79 320,510 320,510C323.585,503.103 403.143,471.973 472,467" style="fill:none;stroke:black;stroke-width:6px;"/>
            <path d="M630,469C630,469 693.362,465.441 739,521C728.394,568.881 745.094,579.197 762,635" style="fill:rgb(0,47,98);stroke:black;stroke-width:6px;"/>
            <path id="BroVestFront1" xmlns:ns1="http://www.serif.com/" ns1:id="BroVestFront" d="M666,686C661.86,663.814 646.834,637.867 618,615C600.265,600.936 527.366,582.851 489.564,552.231C458.188,526.817 426.718,501.806 454,482C519.572,434.396 614.046,455.042 638.729,487.672C685.313,547.723 676.002,593.144 685,683C695.26,666.679 695.745,587.032 757,561C750.469,494.736 696.689,438.656 660.755,415.913C624.822,393.17 433.068,383.175 394,416C350.219,461.611 477.73,566.149 499,618C536.31,618.99 638.388,662.684 666,686Z" style="fill:rgb(0,47,98);stroke:black;stroke-width:6px;"/>
        </g>
<path xmlns="http://www.w3.org/2000/svg" id="Ear2Back" d="M456,166C456,166 409.946,21.441 341,30C272.054,38.559 294.61,87.177 289,122C281.443,168.906 220.591,183.716 207,213C186.316,257.566 203.788,275.094 211,300C220.574,333.062 256.228,346.429 259,384C262.508,431.54 245.154,429.477 267,463C288.846,496.523 330.306,492.246 371,516C423.02,546.365 483.199,179.219 456,166Z" style="fill:rgb(191,182,182);stroke:black;stroke-width:6px;"/>
<g xmlns="http://www.w3.org/2000/svg" id="Horn2Back">
            <path d="M348,540C377.71,540.881 388.253,552.993 401,570C328.402,704.31 143.26,687.361 153,673C159.104,664 251.29,638.29 305,588C319.175,574.727 340.827,555.655 348,540Z" style="fill:white;stroke:black;stroke-width:6px;"/>
            <path id="HornBack" d="M341,548C337.811,555.797 337.062,557.463 336.347,542.598C335.892,533.125 344.66,525.342 356.78,514.52C384.034,490.186 385.83,444.275 399,488C408.542,519.678 423.855,497.278 424,508C424.219,524.257 413.424,550.78 399,577C403.758,557.309 347.459,532.204 341,548Z" style="fill:rgb(191,182,182);stroke:black;stroke-width:6px;"/>
        </g>
<g xmlns="http://www.w3.org/2000/svg" id="Head2">
            <path id="Head21" xmlns:ns1="http://www.serif.com/" ns1:id="Head2" d="M529,127C427.471,130.263 367.283,221.927 354,318C340.36,416.656 329.512,481.135 306,503C286.687,520.96 224.386,629.386 233,708C243.046,799.681 298.622,955.107 313,1002C322.459,1032.85 397.923,984.121 399,975C399.036,974.697 370.471,941.596 378,924C385.529,906.404 412.014,863.952 400,831C387.986,798.048 406.448,779.619 415,762C423.552,744.381 410.748,694.006 433,678C455.252,661.994 509.962,646.072 545,597.435C575.204,583.585 625.368,610.413 709,497C791.496,385.128 742.364,216.132 694,164C674.388,142.86 655.943,125.195 609,128C593.52,128.925 573,147 573,147C570.387,142.842 554.164,126.191 529,127ZM550,167L573,147" style="fill:rgb(191,182,182);stroke:black;stroke-width:6px;"/>
            <path d="M626,518C608.743,559.764 565.116,562.002 546,597" style="fill:none;stroke:black;stroke-width:6px;"/>
        </g>
<g xmlns="http://www.w3.org/2000/svg" id="Horn2Front">
            <path d="M358,706C438.747,667.931 516.094,618.54 524,583C529.108,560.038 614.873,556.336 601,624C442.683,758.531 325.094,721.514 358,706Z" style="fill:white;stroke:black;stroke-width:6px;"/>
            <path d="M530,535C549.324,519.09 663.592,444.541 675,539C659.872,559.996 644.859,581.684 624.777,601.936C622.121,622.271 609.026,633.807 595,633C603.125,570.13 550.938,556.222 522,578C519.02,564.08 522.272,549.704 530,535Z" style="fill:rgb(191,182,182);"/>
            <path d="M684,526C669.527,551.472 652.887,574.959 627.956,601.072C623.647,620.524 607.859,633.661 595,636C609.349,570.586 555.076,556.668 524,577C517.399,564.511 520.587,550.302 530,535" style="fill:none;stroke:black;stroke-width:6px;"/>
            <path d="M617,556C644.411,586.372 621.499,638.566 590,636" style="fill:none;stroke:black;stroke-width:6px;"/>
        </g>
<g xmlns="http://www.w3.org/2000/svg" id="Ear2Front">
            <path d="M639,236C639,236 732.717,10.989 819,58C864.465,82.772 842.681,130.999 850,167C857.319,203.001 920.509,213.249 924,288C927.491,362.751 856.556,355.166 847,410C837.444,464.834 850.04,455.103 830,470C809.96,484.897 766.217,490.833 764,513C761.783,535.167 767.253,531.609 759,545C750.747,558.391 721.306,545.609 710,561C698.694,576.391 707.529,630.187 659,616C610.471,601.813 615,560 615,560L639,236Z" style="fill:rgb(191,182,182);"/>
            <path d="M639,236C639,236 732.717,10.989 819,58C864.465,82.772 842.681,130.999 850,167C857.319,203.001 920.509,213.249 924,288C927.491,362.751 856.556,355.166 847,410C837.444,464.834 850.04,455.103 830,470C809.96,484.897 766.217,490.833 764,513C761.783,535.167 767.253,531.609 759,545C750.747,558.391 721.306,545.609 710,561C698.694,576.391 707.529,630.187 659,616C610.471,601.813 615,560 615,560" style="fill:none;stroke:black;stroke-width:6px;"/>
        </g>
<path xmlns="http://www.w3.org/2000/svg" id="YoungEyes" d="M562.256,393.084C565.064,393.422 566.781,398.365 566.088,404.114C565.395,409.863 562.552,414.255 559.744,413.916C556.936,413.578 555.219,408.635 555.912,402.886C556.605,397.137 559.448,392.745 562.256,393.084ZM396.256,382.084C399.064,382.422 400.781,387.365 400.088,393.114C399.395,398.863 396.552,403.255 393.744,402.916C390.936,402.578 389.219,397.635 389.912,391.886C390.605,386.137 393.448,381.745 396.256,382.084Z" style="stroke:black;stroke-width:6px;"/>
<g xmlns="http://www.w3.org/2000/svg" id="BikeGlasses">
        <path d="M567,437C536.392,445.232 499.215,449.597 477,452C468.989,452.867 460.925,459.162 451,441C438.625,418.356 444.207,404.65 431,400C421.893,396.794 425.309,392.443 409,400C403.086,419.205 394,446 394,446C382.742,455.475 327,424 327,424C322.635,418.721 318.99,406.514 316,388L321,351C321,351 442.144,339.425 578,366C583.996,376.976 593,401 593,401C585.379,417.763 576.866,430.462 567,437Z" style="fill:url(#3065593441343744);stroke:black;stroke-width:6px;"/>
        <path d="M602,370L586,391L574,366L602,370ZM308,358L315,373L321,352L308,358ZM374,349L378,355C416.321,352.037 455.387,353.974 495,360L500,354C458.737,348.93 416.753,347.19 374,349ZM634,239L601,370L595,367L634,239ZM317,361L358,289L321,366L317,361Z" style="stroke:black;stroke-width:6px;"/>
    </g><defs xmlns="http://www.w3.org/2000/svg">
        <radialGradient id="3065593441343744" cx="0" cy="0" r="1" gradientUnits="userSpaceOnUse" gradientTransform="matrix(-160.523,373.677,-142,-61,420,364)"><stop offset="0" style="stop-color:white;stop-opacity:1"/><stop offset="0.44" style="stop-color:rgb(255,0,239);stop-opacity:1"/><stop offset="1" style="stop-color:rgb(149,0,255);stop-opacity:1"/></radialGradient>
    </defs></svg>