<?xml version="1.0" encoding="UTF-8" standalone="no"?>
<!DOCTYPE svg PUBLIC "-//W3C//DTD SVG 1.1//EN" "http://www.w3.org/Graphics/SVG/1.1/DTD/svg11.dtd">
<svg width="100%" height="100%" viewBox="0 0 1000 1000" xmlns="http://www.w3.org/2000/svg" xmlns:xlink="http://www.w3.org/1999/xlink" xml:space="preserve" xmlns:serif="http://www.serif.com/" style="fill-rule:evenodd;clip-rule:evenodd;stroke-linecap:round;stroke-linejoin:round;stroke-miterlimit:1.5;">
<rect xmlns="http://www.w3.org/2000/svg" x="0" y="-2" width="1003" height="1043" style="fill:url(#27791205763595);"/><defs xmlns="http://www.w3.org/2000/svg">
        <linearGradient id="27791205763595" x1="0" y1="0" x2="1" y2="0" gradientUnits="userSpaceOnUse" gradientTransform="matrix(554,1421.05,-1372,573.805,428,39.43)"><stop offset="0" style="stop-color:rgb(183,163,223);stop-opacity:1"/><stop offset="1" style="stop-color:rgb(110,70,189);stop-opacity:1"/></linearGradient>
    </defs>
<g xmlns="http://www.w3.org/2000/svg" id="ArmBack">
        <path id="ArmBack1" xmlns:ns1="http://www.serif.com/" ns1:id="ArmBack" d="M848,944C847.227,943.883 914.358,930.329 961,780C894.839,745.966 758.742,556.508 715,504C676.846,458.2 574.99,496.288 557,523C664.677,607.222 684.341,829.427 848,944Z" style="fill:rgb(191,182,182);stroke:black;stroke-width:6px;"/>
        <path id="ArmBack2" xmlns:ns2="http://www.serif.com/" ns2:id="ArmBack" d="M909,892C919.698,891.865 877.217,830.117 941,833C927.395,827.745 902.151,789.674 956,779" style="fill:rgb(191,182,182);stroke:black;stroke-width:6px;"/>
    </g>
<g xmlns="http://www.w3.org/2000/svg" id="ShirtBlueBack">
        <path d="M696,774L828.827,642.378C831.594,637.321 698.058,464.162 637,471C548.091,480.957 677.013,773.632 696,774Z" style="fill:rgb(153,197,235);stroke:black;stroke-width:6px;"/>
        <path d="M847,661C850.473,662.746 752.481,790.012 712,790C674.582,789.989 677,763 677,763C677,763 771.869,715.04 822.155,623.509C828.977,619.275 835.894,627.241 832.827,639.378C849.13,638.239 849.759,660.2 847,661Z" style="fill:rgb(153,197,235);stroke:black;stroke-width:6px;"/>
    </g>
<path xmlns="http://www.w3.org/2000/svg" id="Body" d="M729,999C756.359,935.515 852.869,518.109 591,464C315.846,407.146 245.065,785.723 263,999C280.896,1000.61 729,999 729,999Z" style="fill:rgb(191,182,182);stroke:black;stroke-width:6px;"/>
<path xmlns="http://www.w3.org/2000/svg" id="Pants" d="M744,940L728,1006L265,1004C259.724,963.607 259.985,900.414 264,857C465.432,948.045 633.709,983.196 744,940Z" style="fill:rgb(17,26,75);stroke:black;stroke-width:6px;"/>
<g xmlns="http://www.w3.org/2000/svg" id="Belt">
        <path id="Belt1" xmlns:ns1="http://www.serif.com/" ns1:id="Belt" d="M743,939L731,984C732.427,984.008 524.877,1057.15 265,887C261.716,882.839 263.106,850.285 265,845C534.962,971.128 673.132,972.378 743,939Z" style="fill:rgb(62,35,11);stroke:black;stroke-width:6px;"/>
        <path id="Buckle" d="M602,956L599,998C630.514,999.262 663.568,998.757 701,992L702,954C671.328,958.771 635.784,960.791 602,956Z" style="fill:rgb(229,145,0);stroke:black;stroke-width:6px;"/>
    </g>
<g xmlns="http://www.w3.org/2000/svg" id="ShirtBlueBody">
            <path id="ShirtBody" d="M746,934C762.648,873.204 838.394,515.775 591,464C347.577,413.056 295.426,637.784 267,830C241.428,883.695 674.44,1012.46 746,934Z" style="fill:rgb(153,197,235);stroke:black;stroke-width:6px;"/>
            <path id="Buttons" d="M667,860C672.519,860 677,864.481 677,870C677,875.519 672.519,880 667,880C661.481,880 657,875.519 657,870C657,864.481 661.481,860 667,860ZM668,788C673.519,788 678,792.481 678,798C678,803.519 673.519,808 668,808C662.481,808 658,803.519 658,798C658,792.481 662.481,788 668,788ZM665,715C670.519,715 675,719.481 675,725C675,730.519 670.519,735 665,735C659.481,735 655,730.519 655,725C655,719.481 659.481,715 665,715Z" style="stroke:black;stroke-width:6px;"/>
            <path id="Collar" d="M633,576C633,576 695.11,595.117 706,616C716.89,636.883 725.99,497.232 706,473C686.01,448.768 633,576 633,576Z" style="fill:rgb(153,197,235);stroke:black;stroke-width:6px;"/>
        </g>
<g xmlns="http://www.w3.org/2000/svg" id="BroVestBody">
            <path id="BroVestBody1" xmlns:ns1="http://www.serif.com/" ns1:id="BroVestBody" d="M577.045,461.46C581.642,462.181 586.291,463.027 591,464C852.869,518.109 765.359,910.515 738,974C691.287,1037.2 237.882,953.791 255,915C249.985,855.368 261.906,820.813 271.295,794.438C289.374,809.539 319.379,828.569 345,816C455.451,761.813 390.098,607.577 362,561C360.742,558.914 359.286,557.755 357.658,557.423C382.042,523.261 439.645,483.76 475.141,466.465C443.094,477.669 438.484,532.291 529,567C638.031,608.808 668.343,689.12 667,690L688,688C694.208,683.09 692.54,570.506 684,532C676.836,499.701 634.815,471.462 577.045,461.46Z" style="fill:rgb(0,47,98);stroke:black;stroke-width:6px;"/>
            <path d="M266,906C250.194,914.024 489.324,976.896 654,977" style="fill:none;stroke:black;stroke-width:6px;"/>
            <g transform="matrix(1,0,0,1,82,0)">
                <path d="M602,679L605,700L587,701L582,680C601.065,782.497 602.609,899.197 586,996L601,997C619.882,893.814 615.298,777.186 602,679Z" style="fill:rgb(0,47,98);stroke:black;stroke-width:6px;"/>
            </g>
            <g transform="matrix(0.968235,0.250044,-0.250044,0.968235,283.866,-137.389)">
                <rect x="579" y="701" width="20" height="39" style="fill:rgb(0,47,98);stroke:black;stroke-width:6px;"/>
            </g>
            <path d="M745,958C745,958 732.558,971.879 695,974" style="fill:none;stroke:black;stroke-width:6px;"/>
            <g transform="matrix(0.986021,0.166623,-0.166623,0.986021,178.772,-107.626)">
                <path d="M659,665L674,662C688.092,700.23 694.582,763.826 696,806L683,805C682.623,765.526 674.461,703.536 659,665Z" style="fill:none;stroke:black;stroke-width:6px;"/>
            </g>
            <g transform="matrix(0.954729,0.297477,-0.297477,0.954729,318.099,-37.1491)">
                <path d="M659,665L674,662C688.092,700.23 694.582,763.826 696,806L683,805C682.623,765.526 674.461,703.536 659,665Z" style="fill:none;stroke:black;stroke-width:6px;"/>
            </g>
            <g transform="matrix(0.954729,0.297477,-0.297477,0.954729,100.099,-32.1491)">
                <path d="M659,665L674,662C688.092,700.23 694.582,763.826 696,806L683,805C682.623,765.526 674.461,703.536 659,665Z" style="fill:none;stroke:black;stroke-width:6px;"/>
            </g>
            <g transform="matrix(0.839615,-0.0959406,0.113529,0.993535,181.169,143.555)">
                <rect x="579" y="701" width="20" height="39" style="fill:rgb(0,47,98);stroke:black;stroke-width:6.48px;"/>
            </g>
            <g transform="matrix(0.844963,-0.0139814,0.0165445,0.999863,29.8964,79.721)">
                <rect x="579" y="701" width="20" height="39" style="fill:rgb(0,47,98);stroke:black;stroke-width:6.48px;"/>
            </g>
        </g>
<g xmlns="http://www.w3.org/2000/svg" id="ArmFront">
            <path id="ArmFront1" xmlns:ns1="http://www.serif.com/" ns1:id="ArmFront" d="M277,971C276.25,976.538 135.071,960.946 87,885C146.865,697.439 280.075,482.055 442,476C618.289,469.408 428.393,528.72 277,971" style="fill:rgb(191,182,182);stroke:black;stroke-width:6px;"/>
            <path id="ArmFront2" xmlns:ns2="http://www.serif.com/" ns2:id="ArmFront" d="M114,914C114,914 173.423,872.935 169,947C181.238,934.736 224.372,904.658 225,966C236.974,944.068 264.146,935.521 275,971" style="fill:none;stroke:black;stroke-width:6px;"/>
        </g>
<g xmlns="http://www.w3.org/2000/svg" id="ShirtBlueFront">
            <path d="M174,691C174,691 300.445,463.058 431,488C547.05,510.171 339.55,774.311 352,785C366.541,797.484 165.754,708.896 174,691Z" style="fill:rgb(153,197,235);stroke:black;stroke-width:6px;"/>
            <path d="M151,720C151,720 237.235,793.145 352,811C357.446,807.61 364.154,801.735 362,790C362.96,790.317 373.477,774.715 374,765C299.75,753.641 231.323,722.72 171,671C171,671 158.556,685.88 162,695C150.815,699.721 146.044,707.524 151,720Z" style="fill:rgb(153,197,235);stroke:black;stroke-width:6px;"/>
        </g>
<g xmlns="http://www.w3.org/2000/svg" id="BroVestFront">
            <path d="M467.606,469.748C439.191,482.15 413.839,505.573 453,543C499.26,587.212 508.095,595.678 519.459,598.573C474.071,673.886 403.58,748.011 412,711C427.062,644.79 321,509 321,509C321,509 387.056,475.029 467.606,469.748Z" style="fill:rgb(0,47,98);"/>
            <path d="M412,711C427.062,644.79 320,510 320,510C323.585,503.103 403.143,471.973 472,467" style="fill:none;stroke:black;stroke-width:6px;"/>
            <path d="M630,469C630,469 693.362,465.441 739,521C728.394,568.881 745.094,579.197 762,635" style="fill:rgb(0,47,98);stroke:black;stroke-width:6px;"/>
            <path id="BroVestFront1" xmlns:ns1="http://www.serif.com/" ns1:id="BroVestFront" d="M666,686C661.86,663.814 646.834,637.867 618,615C600.265,600.936 527.366,582.851 489.564,552.231C458.188,526.817 426.718,501.806 454,482C519.572,434.396 614.046,455.042 638.729,487.672C685.313,547.723 676.002,593.144 685,683C695.26,666.679 695.745,587.032 757,561C750.469,494.736 696.689,438.656 660.755,415.913C624.822,393.17 433.068,383.175 394,416C350.219,461.611 477.73,566.149 499,618C536.31,618.99 638.388,662.684 666,686Z" style="fill:rgb(0,47,98);stroke:black;stroke-width:6px;"/>
        </g>
<path xmlns="http://www.w3.org/2000/svg" id="Ear3Back" d="M444,197C444,197 349.65,119.368 294,135C238.35,150.632 228.312,204.295 247,305C262.589,389.007 289.247,390.32 309,490C322.195,556.585 373.5,548.394 387,552C451.776,569.301 494.074,209.522 444,197Z" style="fill:rgb(191,182,182);stroke:black;stroke-width:6px;"/>
<g xmlns="http://www.w3.org/2000/svg" id="Head2">
            <path id="Head21" xmlns:ns1="http://www.serif.com/" ns1:id="Head2" d="M529,127C427.471,130.263 367.283,221.927 354,318C340.36,416.656 329.512,481.135 306,503C286.687,520.96 224.386,629.386 233,708C243.046,799.681 298.622,955.107 313,1002C322.459,1032.85 397.923,984.121 399,975C399.036,974.697 370.471,941.596 378,924C385.529,906.404 412.014,863.952 400,831C387.986,798.048 406.448,779.619 415,762C423.552,744.381 410.748,694.006 433,678C455.252,661.994 509.962,646.072 545,597.435C575.204,583.585 625.368,610.413 709,497C791.496,385.128 742.364,216.132 694,164C674.388,142.86 655.943,125.195 609,128C593.52,128.925 573,147 573,147C570.387,142.842 554.164,126.191 529,127ZM550,167L573,147" style="fill:rgb(191,182,182);stroke:black;stroke-width:6px;"/>
            <path d="M626,518C608.743,559.764 565.116,562.002 546,597" style="fill:none;stroke:black;stroke-width:6px;"/>
        </g>
<g xmlns="http://www.w3.org/2000/svg" id="Eart3Front">
            <g transform="matrix(1,0,0,1,-45,7)">
                <path d="M687,226C687,226 767.864,73.406 854,134C940.136,194.594 941.526,273.38 935,310C928.474,346.62 884.536,419.667 877,430C869.464,440.333 828.699,492.585 827,509C823.224,545.485 781.25,598.998 727,579C696.331,567.695 698,532 698,532" style="fill:rgb(191,182,182);"/>
            </g>
            <g transform="matrix(1,0,0,1,-45,7)">
                <path d="M682,234C682,234 767.864,73.406 854,134C940.136,194.594 941.526,273.38 935,310C928.474,346.62 910.312,393.233 877,430C858.062,450.902 835.715,480.934 828,512C816.022,560.232 773.354,594.784 726,580C703.162,572.87 697,531 697,531" style="fill:none;stroke:black;stroke-width:6px;"/>
            </g>
        </g>
<path xmlns="http://www.w3.org/2000/svg" id="YoungEyes" d="M562.256,393.084C565.064,393.422 566.781,398.365 566.088,404.114C565.395,409.863 562.552,414.255 559.744,413.916C556.936,413.578 555.219,408.635 555.912,402.886C556.605,397.137 559.448,392.745 562.256,393.084ZM396.256,382.084C399.064,382.422 400.781,387.365 400.088,393.114C399.395,398.863 396.552,403.255 393.744,402.916C390.936,402.578 389.219,397.635 389.912,391.886C390.605,386.137 393.448,381.745 396.256,382.084Z" style="stroke:black;stroke-width:6px;"/></svg>