<?xml version="1.0" encoding="UTF-8" standalone="no"?>
<!DOCTYPE svg PUBLIC "-//W3C//DTD SVG 1.1//EN" "http://www.w3.org/Graphics/SVG/1.1/DTD/svg11.dtd">
<svg width="100%" height="100%" viewBox="0 0 1000 1000" xmlns="http://www.w3.org/2000/svg" xmlns:xlink="http://www.w3.org/1999/xlink" xml:space="preserve" xmlns:serif="http://www.serif.com/" style="fill-rule:evenodd;clip-rule:evenodd;stroke-linecap:round;stroke-linejoin:round;stroke-miterlimit:1.5;">
<rect xmlns="http://www.w3.org/2000/svg" x="0" y="-2" width="1003" height="1043" style="fill:url(#4667997129439887);"/><defs xmlns="http://www.w3.org/2000/svg">
        <linearGradient id="4667997129439887" x1="0" y1="0" x2="1" y2="0" gradientUnits="userSpaceOnUse" gradientTransform="matrix(478,1293.65,-1249,495.088,496,133.683)"><stop offset="0" style="stop-color:rgb(235,185,178);stop-opacity:1"/><stop offset="1" style="stop-color:rgb(205,92,78);stop-opacity:1"/></linearGradient>
    </defs>
<g xmlns="http://www.w3.org/2000/svg" id="ArmBack">
        <path id="ArmBack1" xmlns:ns1="http://www.serif.com/" ns1:id="ArmBack" d="M848,944C847.227,943.883 914.358,930.329 961,780C894.839,745.966 758.742,556.508 715,504C676.846,458.2 574.99,496.288 557,523C664.677,607.222 684.341,829.427 848,944Z" style="fill:rgb(191,182,182);stroke:black;stroke-width:6px;"/>
        <path id="ArmBack2" xmlns:ns2="http://www.serif.com/" ns2:id="ArmBack" d="M909,892C919.698,891.865 877.217,830.117 941,833C927.395,827.745 902.151,789.674 956,779" style="fill:rgb(191,182,182);stroke:black;stroke-width:6px;"/>
    </g>
<path xmlns="http://www.w3.org/2000/svg" id="T-ShirtBack" d="M830,631C830,631 771.163,791.382 711,809C664.868,751.493 537.345,606.825 545,566C552.655,525.175 635.932,428.33 706,494C772.28,556.119 819.54,639.193 830,631Z" style="fill:rgb(41,41,45);stroke:black;stroke-width:6px;"/>
<g xmlns="http://www.w3.org/2000/svg" id="HoodieArmBack">
        <path d="M812,918C857.94,883.691 902.561,828.771 931,754L902,726C866.403,797.723 821.535,856.955 776,881L812,918Z" style="fill:rgb(216,216,216);stroke:black;stroke-width:6px;"/>
        <path d="M847,656L799,600C799,600 795.425,556.926 774,546C752.575,535.074 673,492 673,492C673,492 616.421,692.997 693,787C735.262,838.879 752.901,868.43 771,881C797.227,899.214 910.84,754.226 903,716C890.028,694.436 878.914,664.518 847,656Z" style="fill:rgb(216,216,216);stroke:black;stroke-width:6px;"/>
        <path d="M781,630C781,630 815.304,652.285 847.794,655.794" style="fill:none;stroke:black;stroke-width:6px;"/>
    </g>
<path xmlns="http://www.w3.org/2000/svg" id="Body" d="M729,999C756.359,935.515 852.869,518.109 591,464C315.846,407.146 245.065,785.723 263,999C280.896,1000.61 729,999 729,999Z" style="fill:rgb(191,182,182);stroke:black;stroke-width:6px;"/>
<path xmlns="http://www.w3.org/2000/svg" id="Pants" d="M744,940L728,1006L265,1004C259.724,963.607 259.985,900.414 264,857C465.432,948.045 633.709,983.196 744,940Z" style="fill:rgb(0,147,67);stroke:black;stroke-width:6px;"/>
<g xmlns="http://www.w3.org/2000/svg" id="Belt">
        <path id="Belt1" xmlns:ns1="http://www.serif.com/" ns1:id="Belt" d="M743,939L731,984C732.427,984.008 524.877,1057.15 265,887C261.716,882.839 263.106,850.285 265,845C534.962,971.128 673.132,972.378 743,939Z" style="fill:rgb(62,35,11);stroke:black;stroke-width:6px;"/>
        <path id="Buckle" d="M602,956L599,998C630.514,999.262 663.568,998.757 701,992L702,954C671.328,958.771 635.784,960.791 602,956Z" style="fill:rgb(229,145,0);stroke:black;stroke-width:6px;"/>
    </g>
<g xmlns="http://www.w3.org/2000/svg" id="T-ShirtBody">
            <path d="M661,492C661,492 738.33,546.524 639,585C539.67,623.476 427.903,568.394 424,533C420.097,497.606 448.726,471.019 479,467C509.274,462.981 273.017,461.179 259,908C449.283,1029.75 686.101,997.217 735,984C792.24,818.508 790.517,552.53 661,492Z" style="fill:rgb(41,41,45);stroke:black;stroke-width:6px;"/>
            <path d="M400,508C386.479,527.904 397.322,624.625 576,625C692.969,625.245 723.934,566.023 712,537" style="fill:none;stroke:black;stroke-width:6px;"/>
        </g>
<g xmlns="http://www.w3.org/2000/svg" id="BitcoinLogo" transform="matrix(3.62343,-1.37205,1.22801,3.24302,-981.848,43.8989)">
            <path d="M335.71,344.95C336.347,340.692 333.105,338.403 328.672,336.876L330.11,331.108L326.599,330.233L325.199,335.849C324.276,335.619 323.328,335.402 322.386,335.187L323.796,329.534L320.287,328.659L318.848,334.425C318.084,334.251 317.334,334.079 316.606,333.898L316.61,333.88L311.768,332.671L310.834,336.421C310.834,336.421 313.439,337.018 313.384,337.055C314.806,337.41 315.063,338.351 315.02,339.097L313.382,345.668C313.48,345.693 313.607,345.729 313.747,345.785C313.63,345.756 313.505,345.724 313.376,345.693L311.08,354.898C310.906,355.33 310.465,355.978 309.471,355.732C309.506,355.783 306.919,355.095 306.919,355.095L305.176,359.114L309.745,360.253C310.595,360.466 311.428,360.689 312.248,360.899L310.795,366.733L314.302,367.608L315.741,361.836C316.699,362.096 317.629,362.336 318.539,362.562L317.105,368.307L320.616,369.182L322.069,363.359C328.056,364.492 332.558,364.035 334.453,358.62C335.98,354.26 334.377,351.745 331.227,350.105C333.521,349.576 335.249,348.067 335.71,344.95ZM327.688,356.199C326.603,360.559 319.262,358.202 316.882,357.611L318.81,349.882C321.19,350.476 328.822,351.652 327.688,356.199ZM328.774,344.887C327.784,348.853 321.674,346.838 319.692,346.344L321.44,339.334C323.422,339.828 329.805,340.75 328.774,344.887Z" style="fill:rgb(255,141,0);fill-rule:nonzero;"/>
        </g>
<g xmlns="http://www.w3.org/2000/svg" id="HoodieWhiteBody">
            <path id="HoodieWhiteBody1" xmlns:ns1="http://www.serif.com/" ns1:id="HoodieWhiteBody" d="M746,961C761.359,893.515 852.869,518.109 591,464C315.846,407.146 238.065,700.723 256,914C186.718,969.397 615.456,1040.65 746,961Z" style="fill:rgb(216,216,216);stroke:black;stroke-width:6px;"/>
            <path id="HoodiePocket" d="M764.543,915.691C758.522,906.436 743.599,911.849 745,799C690.13,847.757 634.452,866.465 458,839C439.73,882.935 436.989,921.38 372,931C368.386,950.319 358.431,966.225 353,977C471.484,1018.57 666.969,1021.31 751,959C751,959 763.217,942.891 764.543,915.691Z" style="fill:rgb(216,216,216);stroke:black;stroke-width:6px;"/>
        </g>
<g xmlns="http://www.w3.org/2000/svg" id="ArmFront">
            <path id="ArmFront1" xmlns:ns1="http://www.serif.com/" ns1:id="ArmFront" d="M277,971C276.25,976.538 135.071,960.946 87,885C146.865,697.439 280.075,482.055 442,476C618.289,469.408 428.393,528.72 277,971" style="fill:rgb(191,182,182);stroke:black;stroke-width:6px;"/>
            <path id="ArmFront2" xmlns:ns2="http://www.serif.com/" ns2:id="ArmFront" d="M114,914C114,914 173.423,872.935 169,947C181.238,934.736 224.372,904.658 225,966C236.974,944.068 264.146,935.521 275,971" style="fill:none;stroke:black;stroke-width:6px;"/>
        </g>
<path xmlns="http://www.w3.org/2000/svg" id="T-ShirtBackFront" d="M451,463C615.791,440.597 420.162,697.407 400,721C399.25,726.538 247.071,703.946 199,628C260.865,521.439 370.181,473.987 451,463Z" style="fill:rgb(41,41,45);stroke:black;stroke-width:6px;"/>
<g xmlns="http://www.w3.org/2000/svg" id="HoodieFront">
            <g id="HoodieWhiteFront">
                <path id="HoodieWhiteFront1" xmlns:ns1="http://www.serif.com/" ns1:id="HoodieWhiteFront" d="M330,539C309.879,551.865 289.392,561.239 268,562M300,921C256.316,932.303 183.789,888.725 110,809L125,776C178.24,836.569 240.371,889.082 306,896L300,921ZM313,521L268,562C235.075,562.37 198.762,617.973 194,641C189.238,664.027 135.409,682.933 138,709C140.591,735.067 99.737,741.676 128,780C155.927,817.868 278.968,917.473 318,891C327.878,884.3 340.124,871.393 319.252,846.485C353.685,853.503 452.055,571.241 440,593L435,628C486.453,602.413 515.174,454.002 407,478C341.837,492.456 313,521 313,521Z" style="fill:rgb(216,216,216);stroke:black;stroke-width:6px;"/>
                <path d="M215,755C229.794,797.409 256.384,819.315 301,841" style="fill:none;stroke:black;stroke-width:6px;"/>
            </g>
            <g id="HoodieHood">
                <path id="HoodieHood1" xmlns:ns2="http://www.serif.com/" ns2:id="HoodieHood" d="M600,638C609.283,634.491 562.603,568.758 510,531C461.677,496.314 446,442 446,442C446,442 607.956,453.701 628,438C648.044,422.299 641.258,530.945 640,546C638.742,561.055 599,638 599,638C633.944,636.041 731.919,573.322 738,568C757.331,551.082 705.544,489.63 705.544,489.63C693.677,479.508 678,484 678,484C666.326,477.461 647.061,421.879 631,422C603,422.211 528.482,430.716 488,421C447.518,411.284 411.17,393.315 400,414C388.83,434.685 394,428 394,428C394,428 380.461,417.763 367,433C353.539,448.237 297.816,491.448 308.63,523.185C333.45,494.735 432.549,531.361 495,586C520.063,607.928 600,638 600,638ZM678,484C683.645,484.929 638.442,550.256 636,559M386,452L394,429M439,515L370.011,456.011L439,515Z" style="fill:rgb(216,216,216);"/>
                <clipPath id="_clip1">
                    <path id="HoodieHood2" xmlns:ns3="http://www.serif.com/" ns3:id="HoodieHood" d="M600,638C609.283,634.491 562.603,568.758 510,531C461.677,496.314 446,442 446,442C446,442 607.956,453.701 628,438C648.044,422.299 641.258,530.945 640,546C638.742,561.055 599,638 599,638C633.944,636.041 731.919,573.322 738,568C757.331,551.082 705.544,489.63 705.544,489.63C693.677,479.508 678,484 678,484C666.326,477.461 647.061,421.879 631,422C603,422.211 528.482,430.716 488,421C447.518,411.284 411.17,393.315 400,414C388.83,434.685 394,428 394,428C394,428 380.461,417.763 367,433C353.539,448.237 297.816,491.448 308.63,523.185C333.45,494.735 432.549,531.361 495,586C520.063,607.928 600,638 600,638ZM678,484C683.645,484.929 638.442,550.256 636,559M386,452L394,429M439,515L370.011,456.011L439,515Z"/>
                </clipPath>
                <g clip-path="url(#_clip1)">
                    <g transform="matrix(1,0,0,1,0,-6)">
                        <circle cx="628.5" cy="618.5" r="9.5" style="fill:rgb(216,216,216);stroke:black;stroke-width:6px;"/>
                    </g>
                    <g transform="matrix(1,0,0,1,-59,-8)">
                        <circle cx="628.5" cy="618.5" r="9.5" style="fill:rgb(216,216,216);stroke:black;stroke-width:6px;"/>
                    </g>
                </g>
                <path id="HoodieHood3" xmlns:ns4="http://www.serif.com/" ns4:id="HoodieHood" d="M600,638C609.283,634.491 562.603,568.758 510,531C461.677,496.314 446,442 446,442C446,442 607.956,453.701 628,438C648.044,422.299 641.258,530.945 640,546C638.742,561.055 599,638 599,638C633.944,636.041 731.919,573.322 738,568C757.331,551.082 705.544,489.63 705.544,489.63C693.677,479.508 678,484 678,484C666.326,477.461 647.061,421.879 631,422C603,422.211 528.482,430.716 488,421C447.518,411.284 411.17,393.315 400,414C388.83,434.685 394,428 394,428C394,428 380.461,417.763 367,433C353.539,448.237 297.816,491.448 308.63,523.185C333.45,494.735 432.549,531.361 495,586C520.063,607.928 600,638 600,638ZM678,484C683.645,484.929 638.442,550.256 636,559M386,452L394,429M439,515L370.011,456.011L439,515Z" style="fill:none;stroke:black;stroke-width:6px;"/>
                <path d="M637,615C637,615 655.622,722.698 652,775L638,773C642.058,725.97 636.234,669.401 621,615C626.034,610.883 631.227,608.958 637,615Z" style="fill:rgb(216,216,216);stroke:black;stroke-width:6px;"/>
                <g transform="matrix(0.997895,0.0648512,-0.0648512,0.997895,-17.8942,-40.8247)">
                    <path d="M637,615C637,615 655.622,722.698 652,775L638,773C642.058,725.97 636.234,669.401 621,615C626.034,610.883 631.227,608.958 637,615Z" style="fill:rgb(216,216,216);stroke:black;stroke-width:6px;"/>
                </g>
                <g transform="matrix(1,0,0,1,1,-5)">
                    <path d="M646,803L652,775C645.999,781.146 641.221,778.965 637,773L633,798C635.575,805.081 639.704,807.374 646,803Z" style="fill:rgb(216,216,216);stroke:black;stroke-width:6px;"/>
                </g>
                <g transform="matrix(0.997895,0.0648512,-0.0648512,0.997895,-16.5721,-45.7493)">
                    <path d="M646,803L652,775C645.999,781.146 641.221,778.965 637,773L633,798C635.575,805.081 639.704,807.374 646,803Z" style="fill:rgb(216,216,216);stroke:black;stroke-width:6px;"/>
                </g>
            </g>
        </g>
<path xmlns="http://www.w3.org/2000/svg" id="Ear2Back" d="M456,166C456,166 409.946,21.441 341,30C272.054,38.559 294.61,87.177 289,122C281.443,168.906 220.591,183.716 207,213C186.316,257.566 203.788,275.094 211,300C220.574,333.062 256.228,346.429 259,384C262.508,431.54 245.154,429.477 267,463C288.846,496.523 330.306,492.246 371,516C423.02,546.365 483.199,179.219 456,166Z" style="fill:rgb(191,182,182);stroke:black;stroke-width:6px;"/>
<path xmlns="http://www.w3.org/2000/svg" id="Head" d="M669,550C654.903,569.845 636.525,590.122 618,608C536.833,686.333 450.013,727.63 386,733C300.281,740.191 235,708.167 193,650C184.427,638.128 165.5,627.667 158,614C154.148,606.981 157.551,597.988 157,590C156.333,580.333 157.607,564.351 154,556C149.042,544.52 139.979,520.421 148,520C167.187,518.994 205.255,569.728 240,601C242.05,602.846 314.399,649.285 356,569C369.909,542.157 364,498 364,498C335.388,402.015 346.848,278.902 396,201C396,201 426.77,144.823 542,141C657.23,137.177 677.163,163.014 688,166C742.991,181.154 771.218,309.021 747,393C722.782,476.979 669,550 669,550Z" style="fill:rgb(191,182,182);stroke:black;stroke-width:6px;"/>
<g xmlns="http://www.w3.org/2000/svg" id="Ear2Front">
            <path d="M639,236C639,236 732.717,10.989 819,58C864.465,82.772 842.681,130.999 850,167C857.319,203.001 920.509,213.249 924,288C927.491,362.751 856.556,355.166 847,410C837.444,464.834 850.04,455.103 830,470C809.96,484.897 766.217,490.833 764,513C761.783,535.167 767.253,531.609 759,545C750.747,558.391 721.306,545.609 710,561C698.694,576.391 707.529,630.187 659,616C610.471,601.813 615,560 615,560L639,236Z" style="fill:rgb(191,182,182);"/>
            <path d="M639,236C639,236 732.717,10.989 819,58C864.465,82.772 842.681,130.999 850,167C857.319,203.001 920.509,213.249 924,288C927.491,362.751 856.556,355.166 847,410C837.444,464.834 850.04,455.103 830,470C809.96,484.897 766.217,490.833 764,513C761.783,535.167 767.253,531.609 759,545C750.747,558.391 721.306,545.609 710,561C698.694,576.391 707.529,630.187 659,616C610.471,601.813 615,560 615,560" style="fill:none;stroke:black;stroke-width:6px;"/>
        </g>
<g xmlns="http://www.w3.org/2000/svg" id="YoungEyes2">
            <path d="M379.848,372.344C384.707,373.321 387.421,380.234 385.904,387.771C384.388,395.308 379.212,400.634 374.353,399.656C369.494,398.679 366.781,391.766 368.297,384.229C369.814,376.692 374.99,371.366 379.848,372.344ZM531.853,382.431C537.071,382.881 540.734,389.909 540.027,398.116C539.32,406.323 534.51,412.622 529.292,412.172C524.073,411.723 520.41,404.695 521.117,396.488C521.824,388.28 526.634,381.982 531.853,382.431Z" style="stroke:black;stroke-width:6px;"/>
            <path d="M349,311C349,311 371.806,293.128 393,289" style="fill:none;stroke:black;stroke-width:6px;"/>
            <path d="M516,291C516,291 552.521,298.57 582,325" style="fill:none;stroke:black;stroke-width:6px;"/>
        </g>
<g xmlns="http://www.w3.org/2000/svg" id="AviatorGlasses">
            <path d="M636,243C611.512,290.971 575.006,391.201 575,392M363,273L275,387M409,391C409,391 427.454,383.792 436,393M469,360C441.147,365.028 406.605,365.574 377,360" style="fill:none;stroke:black;stroke-width:6px;"/>
            <path d="M435,381C437.035,360.871 519.21,350.969 561,375C573.117,381.968 575.507,395.403 577.072,405.619C580.849,430.265 577.443,446.529 562,465C537.111,494.768 429.723,433.202 435,381ZM283,369C296.882,354.606 378.634,350.771 401,375C423.366,399.229 396.278,459.269 346,469C289.186,479.996 262.527,390.229 283,369Z" style="fill:url(#285856817539737);stroke:black;stroke-width:6px;"/>
        </g><defs xmlns="http://www.w3.org/2000/svg">
        <radialGradient id="285856817539737" cx="0" cy="0" r="1" gradientUnits="userSpaceOnUse" gradientTransform="matrix(162.604,2.62265,-2.62265,162.604,426,383)"><stop offset="0" style="stop-color:rgb(166,166,166);stop-opacity:1"/><stop offset="1" style="stop-color:black;stop-opacity:1"/></radialGradient>
    </defs></svg>